<?xml version="1.0" encoding="UTF-8"?>
<svg id="Layer_2" data-name="Layer 2" xmlns="http://www.w3.org/2000/svg" viewBox="0 0 108.27 47.39">
  <defs>
    <style>
      .cls-1 {
        fill: #41783d;
        stroke-width: 0px;
      }
    </style>
  </defs>
  <g id="Layer_1-2" data-name="Layer 1">
    <path class="cls-1" d="m32.42.12c1.29,2.36,6.54,12.57,3.3,25.43-3.48,13.86-14.24,20.57-16.34,21.82-4.06,0-8.13.01-12.19.02,1.07-5.9,1.98-14.98.1-25.78C5.68,12.35,2.58,5.06,0,.12h13.12c2.17,2.93,5.3,7.97,6.95,14.9,2.21,9.25.61,16.94-.45,20.71,1.63-2.86,4.39-8.62,4.64-16.35.32-9.43-3.27-16.4-4.96-19.27h13.12Z"/>
    <path class="cls-1" d="m47.44.08c1.97,2.35,8.78,11.08,8.76,24.06-.02,12.26-6.13,20.63-8.1,23.13-7.89,0-15.78,0-23.67,0,1.82-1.08,13.45-8.23,16.18-22.86,2.36-12.66-3.56-22.27-4.95-24.4,3.93.03,7.85.05,11.78.08Z"/>
    <path class="cls-1" d="m66.3.12c2.06,2.53,6.45,8.6,7.71,17.59,1.36,9.77-1.77,17.32-3.17,20.22,1.81-.04,3.62-.07,5.43-.11-.8,3.19-1.6,6.38-2.4,9.57h-20.01c1.63-2.7,11.36-19.36,4.43-36.3-1.89-4.61-4.57-8.16-7.07-10.78,5.03-.06,10.06-.13,15.09-.19Z"/>
    <path class="cls-1" d="m69.63.27c3.85-.12,10.04-.26,16.56-.15.52,0,2.19-.05,4.42.08,2.15.13,3.56.34,4.26.46,2.42.4,3.78.88,5.01,1.57,0,0,.16.09.33.19,2.71,1.63,4.79,4.39,4.98,4.66,3.53,4.83,5.45,33.3-2.21,38.12-1.75,1.1-3.72,1.69-3.72,1.69-1.48.32-3.7.48-6.68.48h-15.69c.82-2.42,1.92-6.14,2.58-10.78.94-6.58,2.37-15.84-1.94-25.41-1.18-2.62-3.45-6.74-7.89-10.93Zm19.69,7.93v31.09c1.79,0,2.9-.35,3.31-1.06.41-.71.62-2.64.62-5.8V14.07c0-2.14-.07-3.51-.21-4.12-.14-.6-.45-1.05-.95-1.33-.49-.28-1.42-.42-2.78-.42Z"/>
  </g>
</svg>