<?xml version="1.0" encoding="UTF-8"?>
<svg id="Layer_2" data-name="Layer 2" xmlns="http://www.w3.org/2000/svg" viewBox="0 0 90.86 78.15">
  <defs>
    <style>
      .cls-1 {
        fill: #231f20;
      }

      .cls-1, .cls-2 {
        stroke: #bcb2d6;
        stroke-miterlimit: 10;
      }

      .cls-2 {
        fill: #1b2615;
      }
    </style>
  </defs>
  <g id="Layer_1-2" data-name="Layer 1">
    <g>
      <ellipse class="cls-2" cx="20.89" cy="10.96" rx="11.29" ry="10.46"/>
      <ellipse class="cls-2" cx="7" cy="28.4" rx="5.82" ry="6.51" transform="translate(-21.98 32.36) rotate(-83.92)"/>
      <path class="cls-2" d="m64.99,28.57c.2.38.07,1.01-.2,2.26-.29,1.37-.6,2.06-1.18,4.22-.26.96-.39,1.55-.2,2.26.19.68.57,1.12.79,1.37,3.02,3.36,4.55,5.06,5.99,5.71,1.17.53,2.14.97,3.44.88.65-.04,2.22-.3,5.8-3.93,2.6-2.65,3.35-4.17,6.17-6.22,1.6-1.16,2.43-1.45,3.09-1.18,1.29.54,1.34,3.07,1.35,3.76.04,2.22-.7,3.37-2.36,7.47-1.31,3.24-1.97,4.88-1.96,5.99,0,.7.09,1.44,2.32,6.55,1.82,4.17,2.48,5.35,2.3,7.3-.05.55-.28,2.95-1.64,3.48-1.3.51-2.72-1.05-5.33-2.89-2.63-1.86-5.55-3.92-8.35-4.22-2.11-.23-3.31.78-11.4,6.09-3.96,2.6-5.94,3.91-6.24,4.08-10.2,5.79-22.29,2.9-25.49,2.01-3.02-.84-7.69-2.2-11.89-6.19-3.54-3.37-6.09-7.98-5.3-8.74.48-.47,2,.78,5.3,2.26,3.25,1.46,6.12,2.19,8.08,2.58-7.58-5.9-13.11-10.25-15.05-11.62-.4-.29-1.53-1.06-1.96-2.46-.29-.93-.16-1.76-.04-2.31.83-3.94,3.38-7.12,3.38-7.12,3.97-4.96,6.36-7.93,10.9-9.73,3.19-1.26,5.86-1.31,8.84-1.38,3.24-.07,8.08-.19,12.67,1.47.77.28,1.63.64,2.85.59,2.02-.09,2.75-1.22,5.7-2.36.68-.26,1.95-.74,3.63-.98.87-.12,5.11-.73,5.99.98Z"/>
      <path class="cls-2" d="m63.43,76.51c.64.38,2,1.13,3.82,1.15,2.48.02,5.28-1.32,5.31-2.68,0-.27-.1-.48-2.08-2.24-1.54-1.37-2.78-2.41-3.82-3.27-1.23-1.01-1.52-1.24-1.73-1.39-.94-.7-1.79-1.25-2.78-1.89-3.42-2.21-4.23-2.13-4.71-1.91-1,.46-1.4,1.9-1.4,2.93,0,1.09.46,1.79,3.82,5.73,2.14,2.5,2.63,3.02,3.57,3.57Z"/>
      <path class="cls-2" d="m61.64,45.3c0,1.14-.6,2.06-1.33,2.06s-1.33-.92-1.33-2.06.6-2.06,1.33-2.06,1.33.92,1.33,2.06Z"/>
      <ellipse class="cls-2" cx="50.63" cy="44.09" rx="3.31" ry="4.56"/>
      <path class="cls-2" d="m9.58,55.36c-.15,1.42-1.43,2.45-2.85,2.3-1.42-.15-2.45-1.43-2.3-2.85.15-1.42,1.43-2.45,2.85-2.3,1.42.15,2.45,1.43,2.3,2.85Z"/>
      <ellipse class="cls-2" cx="56.31" cy="49.74" rx="1.66" ry="3.27"/>
      <circle class="cls-2" cx="30.26" cy="48.65" r="10.04" transform="translate(-26.87 44.35) rotate(-53.82)"/>
      <circle class="cls-1" cx="30.26" cy="48.65" r="6.44"/>
    </g>
  </g>
</svg>