<svg width="103" height="215" viewBox="0 0 103 215" fill="none" xmlns="http://www.w3.org/2000/svg">
<path d="M41.3297 39.4393C40.8327 39.6144 40.4849 40.0228 40.2861 40.5479C39.5904 39.6143 38.6958 38.9142 37.9007 39.8477C37.4535 40.3728 37.4535 41.1897 37.5529 41.8898C37.5529 42.0065 37.6026 42.1816 37.6026 42.2983C37.4535 42.1232 37.3044 42.0065 37.1553 41.8898C36.4596 41.3064 35.5154 40.8396 34.6706 41.3064C33.7264 41.8898 34.0245 43.4652 34.1239 44.4571C34.273 45.6823 34.5712 46.9076 34.9687 48.0745C35.1178 48.4829 35.416 48.7163 35.7639 48.5996C36.062 48.4829 36.3602 48.0162 36.2111 47.6661C35.9129 46.7909 35.6645 45.8574 35.4657 44.9238C35.3663 44.4571 35.3166 43.9903 35.2669 43.5235C35.2669 43.2902 35.2172 43.0568 35.2172 42.8817C35.2172 42.765 35.2669 42.7067 35.2172 42.6483C35.6645 42.4733 36.3602 43.1151 36.6087 43.4068C37.1553 43.9903 37.6026 44.6321 38.0498 45.3323C38.1989 45.624 38.5965 45.624 38.8449 45.4489C39.0934 45.2739 39.1928 44.9238 39.1431 44.5738C38.994 43.5235 38.7952 42.4733 38.7455 41.3647C38.8449 41.4814 38.994 41.5981 39.0437 41.7148C39.3916 42.1816 39.64 42.6483 39.9382 43.1151C40.2861 43.7569 41.28 43.5819 41.2303 42.7067C41.1806 42.2399 41.0812 41.5981 41.3794 41.1897C41.5781 40.9563 41.7272 41.073 41.8266 41.3647C41.926 41.7731 42.423 41.9482 42.6714 41.5981C43.6156 40.4312 42.3236 39.0309 41.3297 39.4393Z" fill="white"/>
<path d="M51.6072 39.0001C51.3492 38.2334 50.7815 37.5847 50.0073 37.5258C49.13 37.5258 48.5623 38.3514 48.201 39.118C48.0978 39.3539 48.0462 39.5898 47.943 39.7668C47.8397 39.4719 47.7365 39.236 47.6333 38.9411C47.272 38.1155 46.7043 37.1129 45.7754 37.054C44.898 36.995 44.3303 37.8796 44.1239 38.7642C43.9174 39.8847 43.969 41.0052 44.2787 42.0667C44.5367 43.0103 45.827 42.5975 45.5689 41.6539C45.4141 40.9462 45.3109 40.2385 45.4141 39.4719C45.4657 39.236 45.4657 38.9411 45.6205 38.7642L45.6722 38.7052H45.7238C46.1366 39.0591 46.3431 39.6488 46.5495 40.1796C46.8592 40.8872 47.0656 41.5949 47.272 42.3026C47.5301 43.1282 48.5107 42.9513 48.5623 42.1257C48.6139 41.418 48.8203 40.7693 49.0784 40.1206C49.2332 39.7667 49.5429 38.9411 49.9557 38.9411C50.0073 38.9411 50.1106 39.0591 50.1622 39.118C50.2654 39.295 50.3686 39.5309 50.4202 39.7668C50.5234 40.1206 50.5751 40.4155 50.6267 40.7693C50.6783 41.1821 50.8331 41.5949 51.0395 41.9488C51.246 42.3026 51.8137 42.3026 51.9169 41.8308C52.1233 40.9462 51.9169 39.8847 51.6072 39.0001Z" fill="white"/>
<path d="M96.58 55.5109C95.6091 53.9465 93.9738 52.6717 92.543 51.7447C88.1482 48.7896 83.1913 47.9784 78.2855 48.384C82.1692 47.0514 86.1041 45.9505 90.0901 44.9655C90.4478 44.9075 90.2945 44.3281 89.9368 44.386C86.9728 44.8496 84.1111 45.5449 81.1983 46.414C83.8556 44.5599 86.1552 42.0104 87.9438 39.1133C87.9949 39.3451 88.1993 39.5189 88.4548 39.5769C90.8566 39.7507 93.7183 40.7936 94.4848 43.6907C94.8426 45.0234 94.536 46.2981 93.8716 47.457C93.5139 48.0364 93.1051 48.4999 92.6963 49.0214C92.2875 49.4849 91.7253 49.8905 91.4698 50.4699C91.3676 50.7597 91.572 51.1073 91.8275 50.9914C92.4919 50.7597 93.054 50.0644 93.5139 49.5429C93.9738 49.0214 94.4338 48.384 94.7915 47.7467C95.5069 46.414 95.7624 44.8496 95.3536 43.3431C94.9448 41.8366 93.9738 40.5619 92.8496 39.7507C91.572 38.8236 89.9879 38.476 88.5059 38.3021C88.5059 38.3021 88.5059 38.3021 88.4548 38.3021C89.3746 36.6218 90.1412 34.8256 90.7033 32.9715C91.1632 31.4071 91.7253 29.6688 90.2434 28.6258C88.7103 27.5249 86.6662 27.1194 84.8776 27.0614C80.8406 26.9455 76.8546 28.6838 73.6352 31.3491C73.073 31.8126 72.562 32.2762 72.1021 32.7397C72.5109 32.1603 72.9708 31.5809 73.4308 31.0015C75.3726 28.5679 77.4678 26.1923 79.5119 23.8746C79.7674 23.5849 79.3586 23.1793 79.1031 23.4111C76.9568 25.7867 74.8616 28.1623 72.8175 30.7118C71.8466 31.9285 70.8756 33.1453 70.0069 34.478C72.562 30.1903 74.555 25.497 75.4748 20.3401C75.8326 18.2542 76.0881 16.0524 76.037 13.9086C76.037 12.6918 76.2414 9.91059 74.9638 9.33117C73.8396 8.8097 71.8977 9.505 70.8245 9.91059C69.2915 10.49 67.9117 11.3591 66.6853 12.518C63.8235 15.0674 61.9328 18.6019 60.2975 22.2522C60.3997 21.441 60.5019 20.6878 60.553 19.8766C61.6773 17.3851 62.6993 14.8357 63.7213 12.2862C63.9258 11.8227 63.3125 11.4171 63.1081 11.8806C62.2905 13.9086 61.4729 15.9945 60.6552 18.0804C60.7574 15.5889 60.7574 13.0974 60.4508 10.6638C60.5019 10.6638 60.6041 10.6059 60.6552 10.49C61.2173 9.67883 61.8817 8.98352 62.5971 8.40411C63.3125 7.82469 64.2324 7.24527 65.1011 7.12938C65.9698 7.0135 66.532 7.65086 66.7364 8.51999C66.8386 9.04147 66.8386 9.56294 66.7364 10.0844C66.6853 10.6059 66.4809 11.2433 66.5831 11.7647C66.6342 12.0544 66.9408 12.1124 67.1452 11.9386C67.554 11.475 67.7073 10.6638 67.7584 10.0265C67.8095 9.38912 67.8095 8.75176 67.6562 8.1144C67.3496 7.0135 66.5831 6.20231 65.561 6.02849C64.4879 5.9126 63.3636 6.54996 62.4438 7.18733C61.6262 7.76675 60.8596 8.51999 60.2464 9.33117C60.1953 8.92558 60.1442 8.51999 60.042 8.1144C59.4288 4.57994 56.5159 -1.5619 52.9899 2.49403C49.7194 6.20231 47.9819 12.0544 46.9598 17.0954C45.7334 23.2372 45.6823 29.495 46.8065 35.6368C46.9087 36.2742 47.7775 35.9845 47.6753 35.3471C46.0911 25.8446 47.2153 15.4151 51.3546 6.89762C51.8656 5.85466 52.4278 4.81171 53.0921 3.88464C53.3987 3.47904 53.7053 3.01551 54.063 2.7258C55.0851 1.85667 56.0049 2.14638 56.8737 3.13139C58.2534 4.69582 58.8155 6.95556 59.1222 9.04147C59.8376 13.6768 59.7865 18.6019 59.0199 23.2372C58.6111 25.7287 58.049 28.2202 57.2314 30.6538C56.3626 33.2612 55.1362 35.5789 54.1652 38.1283C54.1141 38.2442 54.1652 38.3601 54.2163 38.418C53.3987 38.9395 52.6833 39.9245 52.2234 40.8516C51.8145 41.6628 52.8877 42.3581 53.2965 41.5469C53.8075 40.5039 54.7274 38.9974 55.9538 39.461C57.3336 39.9825 56.7204 42.1263 56.567 43.2272C56.4648 43.8646 57.3336 44.444 57.6402 43.7487C57.9468 42.9375 58.5089 41.9525 59.3266 41.6628C59.9909 41.431 60.7063 41.8945 60.3997 42.7637C60.2464 43.2851 60.8596 43.8066 61.2173 43.5169C61.6773 43.1113 62.2905 43.1113 62.7504 43.5749C63.1592 43.9804 63.1592 44.5019 63.3636 45.0234C63.4658 45.3131 63.9768 45.3131 64.0791 45.0234C64.2835 44.5599 64.1813 44.0384 64.028 43.6328C64.1813 43.7487 64.4368 43.7487 64.5901 43.5169C68.9338 36.9115 73.9929 30.1323 81.4538 28.452C83.2935 28.0464 85.1843 27.9885 86.9728 28.3941C87.6883 28.5679 89.1702 28.7417 89.7324 29.3211C90.6522 30.3062 90.039 31.5809 89.6301 32.6818C88.4548 36.1003 86.6662 39.1713 84.4177 41.7787C82.067 44.5019 79.2053 46.5878 76.1392 48.0943C75.4748 48.3261 74.8616 48.5579 74.1973 48.7896C74.044 48.8476 73.9929 48.9635 73.9418 49.0793C72.2043 49.4849 70.5179 50.0064 68.8827 50.5858C68.2694 50.8176 68.525 51.9185 69.1382 51.6867C75.7304 49.1952 83.1402 48.3261 89.6301 51.7447C91.061 52.4979 92.3897 53.425 93.6161 54.5838C94.076 54.9894 95.3025 55.9744 95.4558 56.6118C95.7113 57.6547 94.7915 58.7556 94.2293 59.393C92.083 61.8845 89.1702 62.5798 86.5129 63.9704C86.1552 64.1442 86.3085 64.8395 86.7173 64.8395C89.9368 64.6657 93.4628 62.8116 95.558 60.0304C96.6822 58.8136 97.551 57.1333 96.58 55.5109ZM63.568 42.6478V42.7057C63.5169 42.6478 63.4658 42.5898 63.3636 42.5319C62.8526 42.1263 62.2394 42.0104 61.6773 42.0684C61.524 41.1992 60.8085 40.446 59.9909 40.3881C59.2243 40.3301 58.6622 40.6198 58.1512 41.1413C58.1001 39.8666 57.6913 38.6498 56.5159 38.1863C55.9538 37.9545 55.3917 37.9545 54.8807 38.1283C56.2093 36.2742 57.0781 34.0144 57.8957 31.8706C58.7133 29.6688 59.3266 27.4091 59.7865 25.0914C59.9909 25.1493 60.1953 25.0914 60.3486 24.8017C62.035 20.514 64.0791 16.2263 67.3496 13.2712C68.9338 11.8227 70.7223 10.7218 72.7153 10.2003C73.3797 10.0265 74.6061 9.56295 75.0149 10.548C75.1682 10.8956 75.1171 11.9386 75.1682 12.3442C75.2193 13.6189 75.2193 14.8936 75.1171 16.1683C74.4017 26.3661 69.2404 35.1153 63.568 42.6478ZM64.028 43.1113C63.9769 43.1693 63.9769 43.2272 63.9769 43.2851C63.8747 43.1693 63.8236 42.9954 63.7213 42.8796C63.7213 42.8796 63.7725 42.8796 63.7725 42.8216C64.4368 42.0684 65.05 41.3151 65.6632 40.5619C65.1011 41.431 64.539 42.2422 64.028 43.1113Z" fill="white"/>
<path d="M43.9725 51.3713C43.6384 50.4322 43.1136 49.6035 42.3501 49.1063C41.5866 48.5539 40.5369 48.3329 39.9165 49.2721C39.3916 50.1007 39.4871 51.2056 39.678 52.1447C39.7257 52.4762 39.8211 52.8076 39.9643 53.1391C39.5348 53.0286 39.2008 53.1943 38.9622 53.6915C38.6282 54.6307 38.7236 55.7355 39.0099 56.6747C38.0079 56.7299 36.9104 57.1166 37.0058 58.4977C37.0535 59.2711 37.5307 59.934 37.8647 60.5417C38.2465 61.2046 38.7236 62.0885 39.3439 62.4752C39.678 62.641 40.0597 62.3648 39.9643 61.9228C39.8211 61.3704 39.4871 60.8732 39.2008 60.4312C38.9145 59.9893 38.6759 59.5473 38.4373 59.1054C38.1987 58.6634 38.0079 58.2767 38.5327 58.111C39.0099 58.0005 39.4871 58.0558 39.9643 57.9453C40.2983 57.89 40.4891 57.2824 40.2983 57.0061C39.9165 56.3432 39.7257 55.5146 39.8211 54.6859C39.8211 54.5754 39.8211 54.5202 39.8688 54.4097C39.8688 54.3545 39.8688 54.2992 39.9165 54.2992C39.9643 54.3545 40.2028 54.5202 40.2506 54.5202C40.5846 54.7412 40.9186 54.9621 41.2526 55.2384C41.7298 55.6803 42.3024 54.7412 41.8729 54.2992C41.1095 53.3601 40.3937 51.758 40.68 50.3769C40.8709 49.493 41.5866 49.8245 42.0638 50.2112C42.5887 50.5979 42.9227 51.1503 43.1613 51.8133C43.3044 52.3105 44.1633 51.9237 43.9725 51.3713Z" fill="white"/>
<path d="M51.8991 64.14C51.7548 63.802 51.3218 63.8583 51.1774 64.14C51.0812 64.3654 51.0331 64.4781 50.8407 64.5344C50.6482 64.5908 50.4076 64.5908 50.2152 64.4781C49.686 64.1964 49.4935 63.0695 49.4935 62.4497C49.4935 61.8862 48.8681 61.7172 48.6275 62.168C48.3388 62.7314 47.9058 63.6329 47.2322 63.5202C46.4624 63.4076 46.9917 62.2807 47.2322 61.8862C47.5209 61.3791 46.8954 60.872 46.5105 61.2665C45.7889 61.9989 44.5379 63.0695 43.5757 62.5624C43.9125 62.168 44.2493 61.8299 44.6342 61.5482C45.3077 61.0411 44.6823 59.8578 44.0087 60.3086C43.3351 60.8157 42.7097 61.4355 42.1804 62.168C41.9399 62.506 41.9399 62.9005 42.1804 63.1822C42.8059 63.971 43.8162 64.1964 44.6823 63.9147C45.0672 63.802 45.3558 63.6329 45.6445 63.4075C45.6926 64.0837 46.1256 64.7035 46.703 64.8725C47.5209 65.1542 48.1945 64.7598 48.7237 64.0837C48.7718 64.3091 48.8199 64.4781 48.9162 64.7035C49.1567 65.2669 49.5416 65.774 50.119 65.9431C51.0331 66.2248 52.3803 65.3796 51.8991 64.14Z" fill="white"/>
<path d="M52.4761 50.1992C51.2111 49.6403 49.7586 49.6403 48.4935 50.2613C47.5096 50.758 45.1201 52.4346 46.3383 54.1732C46.4788 54.3595 46.6662 54.5458 46.8537 54.67C46.9474 54.7942 47.0411 54.9183 47.1348 54.9804C47.7907 55.6014 48.5873 56.036 49.3369 56.3465C50.0866 56.657 50.9299 56.7812 51.6796 56.7191C52.3824 56.5949 53.0852 56.3465 53.6943 55.8498C54.2566 55.4151 54.8657 54.7321 54.9594 53.8627C55.2874 51.9378 53.5538 50.6959 52.4761 50.1992ZM49.8055 52.1241C49.7586 52.1241 49.7117 52.1241 49.6649 52.1241C49.5712 52.1241 49.4775 52.1862 49.3838 52.2483C48.9621 52.4346 48.5873 52.683 48.2593 52.9934C48.0719 53.1797 47.9782 53.5523 48.0719 53.8007C47.9313 53.6765 47.7907 53.6144 47.6502 53.4902C47.5565 53.4281 47.4628 53.366 47.4159 53.3039C47.4159 52.683 48.3998 52.3104 48.681 52.2483C49.2901 51.9999 49.946 51.9378 50.602 52.062C50.3208 51.9999 50.0397 51.9999 49.8055 52.1241ZM52.4293 55.2909C52.523 55.1667 52.6635 55.1046 52.7573 54.9183C52.9915 54.6079 53.2258 54.1732 53.1789 53.6765C53.1321 53.2418 52.8978 52.9313 52.6167 52.7451C52.5698 52.7451 52.5698 52.683 52.523 52.683C52.8978 52.6209 53.1321 51.9378 52.7104 51.6274C52.6635 51.5653 52.6167 51.5653 52.5698 51.5032C53.1789 51.8136 53.8349 52.2483 54.1629 52.9313C54.6783 54.1111 53.2258 54.9804 52.4293 55.2909Z" fill="white"/>
<path d="M55.0188 45.7679C54.7448 45.6461 54.4709 45.6461 54.197 45.7679C54.1513 45.3414 54.1057 44.9149 54.0144 44.4884C53.8774 43.7573 53.5578 42.8433 52.9186 42.8433C52.2338 42.7824 51.8685 43.6963 51.5946 44.4275C51.5033 44.7321 51.4119 45.0368 51.3206 45.3414C51.1837 44.9149 51.0011 44.4884 50.8184 44.0619C50.4988 43.2698 49.951 42.6605 49.2205 42.9042C48.6269 43.087 48.1704 43.8791 48.0334 44.6712C47.8964 45.707 48.216 46.7428 48.353 47.7786C48.49 48.5707 49.3574 48.2051 49.2205 47.474C49.1292 46.7428 48.9009 46.0726 48.9009 45.3414C48.9009 44.9149 49.0835 44.2447 49.4944 44.1228C49.9053 44.001 50.2249 44.9758 50.4075 45.3414C50.6815 46.0116 50.9554 46.6819 51.1837 47.413C51.3206 47.9005 51.8685 47.5958 51.8685 47.1693C51.8685 46.56 51.9598 46.0116 52.0968 45.4024C52.1881 45.1586 52.2794 44.9149 52.4164 44.6712C52.5077 44.5493 52.6903 44.0619 52.873 44.0619C53.1012 44.1228 53.1925 45.1586 53.1925 45.4024C53.2382 46.0726 53.1925 46.7428 53.1469 47.3521C53.1012 48.1442 53.9687 48.2051 54.1513 47.5349C54.2426 47.2302 54.5166 47.1084 54.6992 47.2302C54.9731 47.413 54.9731 47.9005 55.0188 48.2051C55.1101 48.5707 55.521 48.8144 55.7493 48.4488C56.3428 47.413 55.7949 46.0726 55.0188 45.7679Z" fill="white"/>
<path d="M45.9904 47.9772C45.9384 47.6176 45.8346 47.258 45.5749 46.9433C45.2633 46.5837 44.8479 46.314 44.2767 46.314C43.7054 46.314 43.2381 46.5837 43.0823 47.0332C42.9265 47.3928 43.0304 47.8873 43.0823 48.2469C43.1342 48.7414 43.29 49.191 43.5496 49.6405C43.7054 49.9102 44.2247 49.7754 44.2247 49.5056C44.2247 49.1011 44.2247 48.6515 44.2247 48.2469C44.2247 48.0671 44.2247 47.8424 44.2767 47.6626V47.6176C44.2767 47.5727 44.2767 47.5727 44.2767 47.5277C44.2767 47.5277 44.2767 47.5277 44.3286 47.5277L44.3805 47.5727C44.3805 47.5727 44.3805 47.5727 44.3805 47.6176C44.3805 47.6626 44.4325 47.6626 44.4325 47.7075V47.7525C44.4325 47.7974 44.4325 47.7974 44.4844 47.8424C44.5363 48.0222 44.5882 48.202 44.5882 48.3818C44.6402 48.5167 44.796 48.6965 44.8998 48.7414C45.0556 48.8313 45.2633 48.8313 45.4711 48.7864C45.8865 48.6515 46.0423 48.3369 45.9904 47.9772Z" fill="white"/>
<path d="M62.788 52.8559C62.4225 52.1835 61.5544 52.0154 60.9605 52.0714H60.9148C61.1889 51.2309 61.2803 50.3344 60.8234 49.5499C60.1381 48.2611 58.539 48.3172 58.0365 49.774C57.8994 50.1663 58.1735 50.5585 58.4476 50.6706C58.8131 50.7826 59.0416 50.5025 59.1787 50.1663C59.1787 50.2223 59.1786 50.1663 59.2243 50.1102C59.27 50.1102 59.4528 50.0542 59.3614 50.0542C59.3614 50.0542 59.4528 50.0542 59.4985 50.0542C59.5441 50.0542 59.6812 50.1102 59.6355 50.1102C59.7269 50.1663 59.6355 50.0542 59.7269 50.1663C59.8183 50.2783 59.864 50.3904 59.9096 50.5585C60.0924 51.399 59.5442 52.2395 59.133 52.8559C58.9502 53.136 58.9045 53.5283 59.0873 53.8645C59.27 54.1446 59.6355 54.3127 59.9096 54.0886C60.0467 53.9765 60.1838 53.7524 60.3665 53.6403C60.5493 53.5283 60.732 53.4722 60.9148 53.4722C61.0975 53.4722 61.2346 53.4722 61.4173 53.4722C61.5544 53.4722 61.7829 53.5283 61.8742 53.6403C61.8742 53.6403 61.8742 53.6964 61.8742 53.7524C61.8285 53.8645 61.8285 54.0326 61.7828 54.1446C61.7372 54.3127 61.6458 54.4808 61.6001 54.705C61.4173 55.0972 61.0975 55.4334 60.8234 55.7696C60.4579 56.1619 60.8691 56.8343 61.2803 56.7222C61.9199 56.5541 62.4225 55.9938 62.6966 55.2653C62.925 54.5369 63.1992 53.5283 62.788 52.8559Z" fill="white"/>
<path d="M61.721 60.286C61.4341 59.871 61.0993 59.5153 60.8124 59.1597C60.5732 58.8633 60.1428 59.219 60.3341 59.6339C60.4298 59.871 60.5254 60.1081 60.6689 60.3453C60.6689 60.3453 60.6689 60.4045 60.7167 60.4045C60.5732 60.3453 60.3819 60.3453 60.2385 60.2267C59.7602 59.9303 59.282 60.4045 59.3777 61.0566C59.4733 61.6494 59.5211 62.1829 59.5211 62.7757C59.5211 62.7757 59.5211 63.0128 59.5211 63.1314C59.4733 63.1314 59.4733 63.1314 59.4733 63.1314C58.8516 62.835 58.4212 61.8865 58.0386 61.2345C57.8951 60.9973 57.7038 60.8195 57.4169 60.9381C57.13 61.0566 56.9387 61.4123 57.0343 61.768C57.0821 62.0051 57.1778 62.1829 57.2256 62.3608C57.3212 62.7757 57.3212 63.25 57.2256 63.6649C57.1778 63.7835 57.1778 63.9613 57.1299 64.0799C57.0821 64.1392 56.9865 64.317 56.9865 64.3763C56.9387 64.317 56.843 64.2577 56.7952 64.2577C56.0778 63.4871 55.5518 62.42 55.217 61.353C55.1214 60.9973 54.7866 60.7009 54.4518 60.8195C54.1649 60.9381 53.9258 61.353 54.0214 61.768C54.2605 62.6572 54.5953 63.4871 55.0735 64.1984C55.504 64.9098 56.0778 65.799 56.7952 65.9768C57.656 66.1547 58.1342 65.1469 58.2777 64.1984C58.2777 64.1392 58.2777 64.1392 58.2777 64.0799C58.6125 64.4356 59.0429 64.7912 59.5211 64.7912C60.1907 64.7912 60.7167 64.1984 60.7645 63.3685C60.7645 62.9536 60.7645 62.5386 60.7167 62.0644C61.1471 62.1829 61.5775 62.1236 61.8645 61.6494C62.1036 61.2345 62.0079 60.7009 61.721 60.286Z" fill="white"/>
<path d="M66.9578 88.4541C65.5807 85.5645 64.056 82.7906 62.6298 79.9588C61.2035 77.127 59.8264 74.2375 58.4985 71.3479C58.3509 71.059 58.1542 70.9434 57.9083 71.0012C58.0066 70.5966 58.0558 70.1343 58.0066 69.672C58.1542 69.7298 58.2525 69.8454 58.4001 69.9031C58.8919 70.1921 59.3837 70.5388 59.9247 70.3655C60.3674 70.1921 60.6625 69.7298 60.7608 69.2097C60.81 69.0363 60.81 68.9207 60.81 68.7473C61.6461 68.9207 62.5314 68.7473 63.1216 67.9382C63.3675 67.5915 63.1708 67.0136 62.7281 67.187C61.9412 67.5337 61.0559 67.7649 60.269 67.2448C59.9247 67.0136 59.2854 67.4181 59.4821 67.9382C59.5805 68.1694 59.7772 68.5739 59.6788 68.8629C59.6296 69.2096 59.3837 68.9785 59.187 68.8629C58.5968 68.5739 57.9574 68.285 57.3673 67.996C56.9738 67.7649 56.3836 68.285 56.6787 68.8051C57.0722 69.4986 57.2197 70.6544 56.5803 71.2323C56.1377 71.5791 55.3508 71.4635 55.1541 70.8278C54.9573 69.9609 53.8261 70.3655 54.0229 71.1745C54.4163 72.6193 55.9902 73.1972 57.0722 72.3882C57.2197 72.2726 57.3181 72.157 57.4656 71.9836C57.4656 71.9836 57.4656 71.9836 57.4656 72.0414C60.1706 77.8205 62.9249 83.773 66.3676 88.9742C66.6135 89.4365 67.1545 88.9164 66.9578 88.4541Z" fill="white"/>
<path d="M81.6232 35.9209C76.0048 37.8968 70.9381 41.6163 66.5738 46.0912C65.9718 45.8006 65.2194 45.975 65.0187 46.7886C64.8682 47.4279 65.6708 47.6603 65.8213 47.0792C65.8213 47.0211 65.9217 47.0211 66.022 47.0211C66.0722 47.1373 66.1725 47.2535 66.2728 47.2535C66.323 47.5441 66.2227 47.9509 66.1223 48.1253C65.8213 48.9389 65.42 49.52 65.42 50.4499C65.42 51.0892 66.1725 51.3216 66.4735 50.7986C66.624 50.508 67.0755 50.8567 67.1758 51.0892C67.4768 51.7284 66.925 52.4839 66.624 53.007C66.2728 53.6463 67.0253 54.2855 67.4768 53.7625C67.7276 53.53 68.0286 53.5882 68.2794 53.7625C68.6306 53.995 68.6807 54.518 68.6306 54.9248C68.5302 56.029 67.6774 56.5521 66.9751 57.0751C66.6742 57.3076 66.7745 57.9468 67.1758 57.8887C68.6306 57.7144 69.985 56.2034 69.7342 54.4018C69.5837 53.4138 68.9316 52.7164 68.1289 52.5421C68.3797 51.7284 68.3797 50.8567 67.8781 50.2174C67.5771 49.8687 67.1758 49.5781 66.7243 49.5781C66.8748 49.2295 67.0755 48.8226 67.1758 48.474C67.3263 47.9509 67.3765 47.3116 67.1256 46.8467C71.49 42.488 76.4563 39.2916 81.7236 36.7345C82.1751 36.444 82.0246 35.7466 81.6232 35.9209Z" fill="white"/>
<path d="M55.3005 12.8961C52.1576 20.2694 50.8433 28.3506 51.0148 36.4318C51.0148 37.2576 52.2719 37.2576 52.2719 36.4318C52.1576 28.5276 53.5862 20.7413 55.9862 13.191C56.1005 12.8371 55.4719 12.5422 55.3005 12.8961Z" fill="white"/>
<path d="M70.4682 18.6369C65.4307 24.0705 61.6526 31.2021 59.037 38.6168C58.7948 39.3526 59.812 39.6922 60.0542 38.9564C62.6214 31.5983 66.4964 25.2025 70.9042 19.2029C71.1948 18.8067 70.7588 18.2973 70.4682 18.6369Z" fill="white"/>
<path d="M102.424 83.2177C95.8933 88.7457 89.4124 94.7393 85.4938 103.177C82.0273 110.625 80.2689 119.179 75.7976 125.988C73.2354 128.955 70.5727 131.807 67.8597 134.6C63.1875 139.488 58.6659 144.492 54.7975 150.195C54.7975 136.52 54.6468 122.845 54.3956 109.171C54.1946 99.7437 53.9434 90.3169 53.5918 80.9482C54.6468 84.4397 56.1037 87.8147 58.0631 90.7242C59.721 93.1682 61.7306 95.2631 63.9411 96.8924C66.0511 98.4053 68.7138 99.9183 71.276 99.8601C71.6779 99.8601 71.7282 99.22 71.3765 99.0454C68.965 97.9398 66.654 97.1251 64.4435 95.4376C62.2832 93.7501 60.3741 91.5971 58.8167 89.1531C55.5009 83.9741 53.6923 77.806 52.6372 71.5796C52.587 71.1723 52.2855 71.0559 52.0344 71.1141C51.9339 70.6486 51.7832 70.1248 51.6324 69.6593C51.4817 69.1356 50.6276 69.1356 50.7281 69.7757C51.2808 74.7219 51.532 79.5517 50.6779 84.4978C49.8238 89.3858 48.1659 94.0411 46.1563 98.4053C45.1516 100.558 44.0463 102.711 42.8908 104.806C42.6396 105.214 42.3382 106.086 41.9865 106.377C41.1826 107.076 40.5295 106.028 40.1779 105.33C39.6755 104.166 39.2736 102.886 38.9219 101.664C37.7161 97.0669 37.4649 92.2372 37.8668 87.5237C38.3692 81.6465 39.7759 75.9439 41.1826 70.2994C41.2831 69.7757 40.9817 69.4848 40.63 69.4266C40.6803 69.1356 40.7305 68.9029 40.7807 68.6119C40.7807 68.4955 40.7807 68.3791 40.7305 68.3209C41.0822 68.3791 41.4338 68.4373 41.7855 68.4373C41.8358 68.9029 42.0367 69.3684 42.3382 69.7175C42.8908 70.474 43.7951 70.7068 44.5989 70.474C44.9506 70.3576 45.252 70.183 45.5032 69.8921C45.6539 70.3576 45.9051 70.7649 46.2568 71.0559C46.2568 71.1141 46.2066 71.1141 46.2066 71.1141C45.252 75.7693 44.4482 80.4245 43.8453 85.1379C43.2425 89.6768 42.6396 94.332 42.5894 98.929C42.5894 99.3946 43.2425 99.5109 43.2927 99.0454C43.9458 94.4484 44.3477 89.7932 45.0008 85.1961C45.6539 80.6573 46.4578 76.1184 47.3119 71.5796C48.1659 71.8124 49.1205 71.5796 49.8741 71.0559C50.276 70.7649 50.075 70.0667 49.6229 70.0667C48.8693 70.0667 48.0152 70.2994 47.3119 69.9503C46.8597 69.7175 46.2568 68.961 46.508 68.3209C46.7592 67.6227 45.8549 66.9826 45.6037 67.6809C45.3525 68.321 44.5487 69.0774 43.8956 68.9029C43.5941 68.8447 43.3429 68.6119 43.1922 68.3209C43.142 68.2046 43.0917 68.0882 43.0917 67.9718C43.2425 67.9136 43.4434 67.8554 43.5941 67.7972C43.7951 67.6809 43.9458 67.2735 43.8453 67.0408C43.5439 66.1097 42.5391 66.1679 42.0367 66.9244C42.0367 66.9826 41.9865 66.9826 41.9865 67.0408C40.9314 67.1572 39.8262 66.5752 39.1731 65.6442C38.7209 65.0041 37.9171 65.9352 38.3692 66.5752C38.8716 67.2735 39.5247 67.739 40.1779 68.03C40.1276 68.0882 40.0774 68.1464 40.0271 68.2628C38.6707 72.8016 37.1635 77.1659 34.8023 81.1228C32.441 85.1379 29.4266 88.6294 25.9601 91.4225C24.3022 92.7609 22.4936 93.9829 20.6347 94.9721C20.1324 95.263 18.8764 96.0777 18.3237 95.3794C17.9721 94.9139 18.1228 93.9829 18.1228 93.401C18.173 92.1208 18.3237 90.7824 18.4745 89.5022C19.1276 84.6724 20.5845 79.959 22.6946 75.7111C25.1563 70.8231 28.4721 66.5752 32.441 63.3166C32.9936 62.8511 32.5415 61.8036 31.9888 62.0364C31.9386 61.9782 31.8381 61.9782 31.7376 61.9782C24.4529 65.1787 17.0678 67.1572 9.23041 66.1097C8.22562 65.9933 7.22084 65.8188 6.21605 65.586C5.31174 65.4114 3.70408 65.4114 4.00552 63.8985C4.15624 63.142 4.80935 62.1528 5.21126 61.5127C5.76389 60.6398 6.36677 59.8252 6.96964 59.0105C9.43137 56.101 12.4457 53.948 15.7615 52.6678C20.2328 50.9221 24.8549 50.5729 29.5271 51.0384C29.7281 51.0384 29.8286 50.9221 29.8788 50.7475C30.4314 50.7475 30.9841 50.6893 31.4865 50.6311C30.9841 52.4932 31.9888 54.1807 33.1946 55.2863C32.24 56.2756 32.0391 58.1377 32.2903 59.476C32.4912 60.5816 33.0941 61.5127 33.7472 62.3274C34.4506 63.142 35.3549 64.0149 36.3597 64.364C36.9123 64.5386 37.2137 63.7821 36.9123 63.3166C35.9578 61.92 34.4003 61.2217 33.8477 59.4178C33.4458 58.0795 33.7975 56.7411 34.752 55.9264C35.2042 55.5773 35.1037 54.8208 34.6013 54.6462C33.697 54.2389 32.8932 52.9587 32.7424 51.8531C32.6922 51.4458 32.6922 50.7475 33.0941 50.5147C33.1946 50.4565 33.7472 50.3984 33.7472 50.6311C33.8979 51.7367 35.2042 51.5622 35.1037 50.3984C35.0032 49.4673 34.1994 48.8854 33.4458 48.8854C32.9936 48.8854 32.5917 49.0018 32.24 49.2927C26.362 49.1182 20.886 47.7798 15.9625 43.8229C11.5917 40.3314 8.17539 35.3853 5.86437 29.8572C14.6563 26.7149 25.2568 26.6567 32.3405 33.8141C32.9936 34.7452 33.697 35.5598 34.4506 36.3745C34.6515 36.6655 34.8525 36.8982 35.0534 37.1892C35.1539 37.3637 35.3046 37.4219 35.4554 37.3637C35.7568 37.6547 36.1085 37.9456 36.4099 38.2366C36.9625 38.6439 37.5152 37.7129 37.1133 37.1892C35.3549 35.0943 33.5463 33.174 32.0893 30.7882C30.6324 28.4606 29.3764 25.9003 28.4721 23.2235C26.764 18.2191 25.9601 12.7493 26.4123 7.39575C31.3357 8.50137 35.6061 11.7018 38.8716 16.0661C42.7401 21.3032 44.6492 27.9369 45.252 34.687C45.3023 35.2107 46.0056 35.2107 45.9554 34.687C45.3525 27.8205 43.4937 20.8959 39.8262 15.3678C39.1228 14.2622 38.319 13.273 37.4147 12.2837C37.4649 12.1674 37.4649 12.1092 37.4649 11.9928C37.1635 9.60698 37.9171 7.27937 38.7209 5.12633C39.374 3.38063 40.5798 0.645682 42.6396 1.22758C44.2472 1.69311 45.3023 4.02072 45.9554 5.59185C46.3573 6.5229 46.6587 7.57033 46.8597 8.61775C47.1109 9.66517 47.1109 10.7708 47.3621 11.76C47.4626 12.1092 47.8645 12.1092 47.965 11.76C48.1659 10.829 48.0654 9.83975 47.965 8.9087C47.8645 7.91947 47.6635 6.98842 47.3621 6.05738C46.7592 4.31167 45.9554 2.50777 44.7496 1.22758C43.5439 -0.110791 41.9865 -0.401742 40.5295 0.587493C39.0224 1.63492 38.319 3.49701 37.6659 5.24271C36.9625 7.16299 36.4099 9.19965 36.5104 11.2945C33.5463 8.3268 29.8788 6.23195 25.9601 5.53366C25.4577 5.47547 25.106 5.76643 25.0558 6.34833C24.6539 12.4583 25.4075 18.5101 27.4673 24.1545C28.2711 26.424 29.3262 28.7516 30.5821 30.9046C30.13 30.5555 29.7281 30.2645 29.2759 29.9736V29.9154C28.0199 28.0533 26.6132 26.3658 25.2568 24.5619C23.9003 22.8162 22.6443 20.9541 21.3883 19.092C21.0869 18.6265 20.3836 19.2666 20.685 19.7321C21.941 21.5942 23.197 23.4563 24.5534 25.2602C25.508 26.5403 26.4625 27.7623 27.5175 28.9261C20.6348 25.3765 12.1945 25.9003 4.96006 28.7516C4.55815 28.9261 4.40743 29.3335 4.60839 29.7408C6.21605 33.465 8.22563 37.0146 10.6371 40.0405C8.77826 39.1676 6.61797 39.1676 4.65863 39.3422C3.55337 39.4004 2.4481 39.575 1.34283 39.8659C0.488763 40.0987 -0.164352 40.6806 0.0366054 41.7862C0.237563 42.7754 0.840438 43.7647 1.34283 44.5793C1.84523 45.4522 2.39786 46.2668 3.00073 47.0815C4.20648 48.6526 5.56294 49.991 7.07012 51.1548C8.42658 52.2022 9.88353 53.0169 11.4409 53.5988C9.48161 54.7626 7.72323 56.2756 6.16581 58.1958C4.90983 59.7088 3.70408 61.5127 3.05097 63.4912C2.39786 65.2951 3.40264 66.0515 4.80934 66.4589C7.32131 67.2153 9.93377 67.5645 12.5462 67.6809C10.5869 69.8339 8.67778 72.1033 7.27108 74.7801C6.01509 77.1659 5.01031 80.1918 5.36198 83.0431C5.71366 85.8362 8.62754 86.4763 10.6371 86.6509C12.9984 86.8255 15.661 86.2436 17.3692 84.2069C17.5701 83.9741 17.3692 83.4504 17.0678 83.5668C15.1084 84.3815 13.1993 85.1961 11.0893 85.1961C10.0342 85.1961 9.02946 84.9634 8.02467 84.6142C7.47204 84.4397 6.86916 84.2651 6.56772 83.625C6.31653 83.1013 6.31653 82.3448 6.36677 81.7629C6.51749 76.293 9.984 71.9869 13.1491 68.3209C13.35 68.0882 13.2998 67.8554 13.1491 67.6809C14.807 67.7391 16.4649 67.6227 18.1228 67.4481C20.8859 67.1571 23.6994 66.5171 26.362 65.5278C24.2017 67.0408 22.0917 68.6119 20.0821 70.3576C17.2687 72.7434 14.5055 75.2456 12.0941 78.1551C11.7926 78.5043 12.2448 78.9698 12.5462 78.6788C15.3094 76.1185 17.9218 73.4417 20.7855 71.1141C23.0965 69.1938 25.4577 67.5063 27.9195 65.877C22.2926 72.0451 18.5247 80.3663 17.4194 89.3276C17.2687 90.666 17.1682 91.9462 17.1682 93.2846C17.1682 94.2738 17.1682 95.4958 17.8716 96.1941C19.2783 97.5325 22.0414 95.3794 23.2974 94.5648C24.2017 94.0411 25.0558 93.4592 25.8596 92.8191C24.5534 96.6014 24.7544 100.908 25.9099 104.748C26.4625 106.61 27.4673 108.414 29.4266 107.949C31.386 107.483 32.9936 105.214 34.1491 103.468C35.3046 101.722 36.4602 99.6855 36.9123 97.5325C37.2137 99.3946 37.6157 101.198 38.2185 102.944C38.7712 104.457 39.5247 107.192 41.1826 107.483C41.886 107.599 42.4386 107.134 42.8405 106.552C43.5439 105.505 44.197 104.341 44.7999 103.235C47.5128 98.5217 49.7736 93.401 51.2305 87.9311C51.2808 87.8147 51.2808 87.6983 51.331 87.5819C50.3262 110.334 51.0798 133.087 51.0798 155.897C46.8597 163.637 43.7951 172.249 42.5391 181.326C41.7353 186.971 41.6348 192.732 42.1874 198.376C40.3788 188.542 41.0822 178.126 37.9673 168.641C35.3549 160.785 30.3812 154.152 24.051 150.136C23.7496 149.962 23.3477 150.369 23.5486 150.718C27.7687 158.923 27.3668 168.816 28.673 177.893C29.3262 182.316 30.4314 186.622 32.5415 190.404C34.8023 194.419 38.0678 197.736 41.5343 200.296H41.5846C41.9362 201.169 42.3382 202.042 42.7903 202.799C43.3932 206.348 44.2975 209.84 45.5032 213.215C45.6539 213.68 46.3071 213.447 46.1563 213.04C40.1779 195.118 42.6898 174.984 51.0798 158.69C51.0798 166.663 50.9291 174.635 50.6277 182.607C50.4267 187.378 50.1755 192.15 49.7736 196.863C49.5224 200.355 49.0702 203.904 48.7688 207.396C48.4171 209.432 48.0654 211.411 47.7138 213.447C47.7138 213.564 47.7138 213.68 47.764 213.797C47.6635 214.146 48.1659 214.379 48.3166 214.029C48.4674 213.738 48.5678 213.506 48.7185 213.215C48.9697 213.215 49.2712 213.04 49.2712 212.633C49.3214 212.342 49.3214 212.051 49.3717 211.76C49.3717 211.76 49.3717 211.76 49.3717 211.702C49.4219 211.411 49.4721 211.178 49.5224 210.887C50.2257 208.327 50.4267 205.592 50.6779 202.857C51.0798 200.704 51.4817 198.551 51.8334 196.34C51.8836 196.281 51.9339 196.223 51.9339 196.165C51.9339 195.874 51.9841 195.583 52.0344 195.292C52.3358 193.43 52.6372 191.51 52.8884 189.648C54.0439 184.294 56.0535 179.348 58.6157 174.693C58.8167 174.751 59.0679 174.693 59.1683 174.402C59.2186 174.227 59.2688 174.053 59.3191 173.878L59.3693 173.936C59.6205 174.111 59.8717 173.994 60.0224 173.762C61.1277 171.958 62.6349 170.561 64.142 169.281C69.6181 166.197 74.7928 161.891 79.0129 157.061C84.0368 151.242 87.7043 144.259 89.5632 136.345C89.6636 135.996 89.2617 135.589 88.9603 135.822C85.2426 138.673 80.8717 140.128 76.9028 142.455C73.4866 144.434 70.4722 147.111 68.0607 150.602C63.3382 157.294 60.776 165.557 58.465 173.645C56.8071 176.613 55.4004 179.697 54.1947 182.956C53.8932 183.77 53.642 184.585 53.3908 185.4C54.2449 177.66 54.4961 169.921 54.5966 162.124C54.6468 158.923 54.6468 155.723 54.6468 152.522C58.5152 146.645 63.1373 141.524 67.9602 136.578C71.8287 132.679 75.5966 128.722 79.1636 124.475C85.8957 121.216 91.623 114.931 95.6924 108.065C99.9627 100.791 102.525 92.3535 102.927 83.5668C103.178 83.334 102.726 82.9849 102.424 83.2177ZM5.11078 47.6634C3.95528 46.4414 2.9505 45.0448 2.14667 43.4737C1.94571 43.1246 1.74475 42.7754 1.59403 42.3681C1.54379 42.1935 1.34283 41.9026 1.34283 41.728C1.34283 41.4952 1.44331 41.4952 1.69451 41.4371C2.64905 41.1461 3.6036 41.0297 4.60839 40.9133C5.66342 40.797 6.71844 40.797 7.82371 40.9133C8.92897 40.9715 9.984 41.1461 11.0893 41.1461C11.24 41.1461 11.2902 41.0297 11.3405 40.9133C12.6969 42.5427 14.1539 44.0556 15.7615 45.3358C18.374 47.4888 21.5391 49.2345 24.8046 50.1656C24.6037 50.1656 24.4529 50.1656 24.252 50.2238C24.2017 50.1656 24.2017 50.1074 24.1013 50.1074C19.0271 48.5363 14.0032 46.4996 9.28065 43.7647C8.5773 43.3573 7.97443 44.5793 8.67778 44.9867C13.0988 47.4888 17.6706 49.3509 22.4936 50.3984C19.3285 50.6893 16.2137 51.4458 13.35 52.8423C13.2998 52.7842 13.2496 52.7842 13.1993 52.726C10.1347 51.8531 7.37156 50.1074 5.11078 47.6634ZM36.8118 96.2523C36.7113 96.2523 36.6109 96.3105 36.5606 96.4268C35.9578 97.5325 35.5056 98.7545 34.953 99.9183C34.4506 100.966 33.8477 102.013 33.1946 103.002C32.4912 104.05 31.6874 105.097 30.8333 105.97C29.9793 106.901 28.673 107.832 27.6683 106.668C26.9649 105.795 26.6635 104.515 26.4123 103.41C26.1108 102.129 25.9099 100.849 25.8596 99.5691C25.7592 96.9506 26.1611 94.3902 27.2663 92.1208C29.8286 90.0259 32.1396 87.5237 34.1491 84.6724C34.1491 84.6724 34.1491 84.6724 34.1491 84.6142C31.9888 90.2587 29.8286 95.8449 28.0702 101.664C27.9697 101.955 28.3716 102.13 28.4721 101.897C31.5367 95.2049 33.9984 88.222 36.6109 81.3556C36.7113 81.1228 36.6611 80.9482 36.6109 80.7737C37.264 79.6099 37.8669 78.3879 38.4195 77.1659C37.1133 83.334 36.1085 89.9095 36.8118 96.2523ZM29.7281 176.206C28.673 169.165 28.4219 161.716 26.2113 155.024C27.4171 157.701 28.6228 160.378 29.9793 162.938C30.0295 163.055 30.2305 162.938 30.1802 162.822C28.7233 159.331 27.0654 155.956 25.4577 152.58C25.4075 152.464 25.307 152.464 25.2568 152.522C25.1563 152.29 25.1061 152.115 25.0056 151.882C30.0798 155.606 34.1491 160.96 36.6109 167.303C36.9123 170.038 37.1133 172.772 37.1133 175.566C37.1133 176.904 37.1133 178.242 37.0128 179.581C36.9625 180.686 36.7616 181.85 36.7113 182.956C35.0032 177.486 33.5463 171.9 32.24 166.313C32.1396 165.79 31.4362 166.022 31.5367 166.546C32.7927 172.132 34.2496 177.66 35.8573 183.13C35.6563 182.898 35.4051 182.665 35.2042 182.432C34.6013 181.792 34.0487 181.152 33.4458 180.57C32.2903 179.29 31.0845 178.068 29.929 176.788C29.8788 176.729 29.8286 176.729 29.7783 176.729C29.7783 176.555 29.7281 176.38 29.7281 176.206ZM33.496 188.949C31.6372 185.516 30.6324 181.559 29.929 177.602C30.9841 178.708 32.0391 179.872 33.0439 180.977C33.5965 181.617 34.1994 182.199 34.752 182.839L35.6563 183.829C35.8573 184.003 36.008 184.236 36.2592 184.411C36.3597 184.818 36.4601 185.167 36.6109 185.574C37.5654 188.658 38.52 191.684 39.6252 194.71C39.9769 195.641 40.2783 196.572 40.5798 197.503C37.9171 195.001 35.3549 192.324 33.496 188.949ZM40.4793 194.128C39.4243 191.102 38.3692 188.077 37.3645 184.992C37.2137 184.585 37.1133 184.178 36.9625 183.77C37.2137 182.548 37.2137 181.152 37.264 179.872C37.3645 178.417 37.3645 176.962 37.3645 175.507C37.3645 173.238 37.264 170.969 37.063 168.699C37.264 169.223 37.4147 169.805 37.5654 170.328C39.9769 178.65 39.7759 187.553 41.1324 196.107C40.9817 195.525 40.7305 194.827 40.4793 194.128ZM78.41 156.654C75.7976 159.621 72.8837 162.24 69.8191 164.568C67.2569 166.546 64.4937 168.175 61.831 169.921C65.5487 164.277 69.9698 159.156 74.3909 154.443L74.4411 154.384C74.4411 154.617 74.5416 154.908 74.843 154.908C77.1038 154.908 79.2641 154.268 81.2234 153.104C80.3694 154.326 79.4148 155.49 78.41 156.654ZM82.3287 151.591C80.4196 152.813 78.3598 153.628 76.1995 153.861C77.5057 153.221 78.7617 152.58 80.0679 151.882C81.2737 151.242 82.5296 150.486 83.6349 149.613C83.1828 150.311 82.7809 150.951 82.3287 151.591ZM78.41 143.212C81.8765 141.35 85.4938 139.895 88.7593 137.509C87.7545 141.582 86.0966 145.481 83.9866 148.973C82.5799 149.496 81.1732 150.253 79.8167 150.951C78.5105 151.649 77.2043 152.29 75.898 152.93C78.5607 150.136 81.2737 147.343 83.8861 144.376C84.1373 144.143 83.7856 143.736 83.5344 143.968C79.5153 147.925 75.3957 152.057 71.477 156.421C72.3813 153.453 72.9842 150.369 73.6875 147.285C73.7378 146.936 73.5368 146.761 73.2856 146.761C74.843 145.365 76.5512 144.201 78.41 143.212ZM69.166 151.184C70.3215 149.613 71.5272 148.274 72.8837 147.052C72.2306 150.136 71.477 153.221 71.0248 156.363C71.0248 156.479 71.0751 156.596 71.1756 156.596C67.3071 160.96 63.5894 165.557 60.4746 170.561C62.6349 163.695 65.0966 156.828 69.166 151.184ZM53.3406 158.574C53.2903 167.186 53.2401 175.857 52.386 184.469C52.3358 184.818 52.2855 185.167 52.2855 185.458C52.7879 177.079 53.0391 168.641 53.0894 160.203C53.0894 158.632 53.0894 157.003 53.0894 155.432C53.1899 155.315 53.2401 155.141 53.3406 155.024C53.3406 156.188 53.3406 157.41 53.3406 158.574ZM53.3406 152.464C53.2401 152.58 53.1899 152.697 53.0894 152.871C53.1396 138.033 52.8884 123.136 52.9889 108.298C52.9889 104.69 53.0391 101.082 53.0391 97.5325C53.2401 109.171 53.3908 120.75 53.3908 132.388C53.4411 139.022 53.3908 145.772 53.3406 152.464ZM94.989 107.367C91.4723 113.36 86.9507 118.015 81.7258 121.856C83.0823 120.168 84.4387 118.365 85.6947 116.561C91.3718 108.472 96.044 99.5691 99.4603 89.9677C99.6613 89.444 98.9077 89.0949 98.6565 89.5604C94.7881 97.998 90.367 106.086 85.3431 113.651C83.233 116.852 80.922 119.878 78.5607 122.729C81.3742 117.084 83.0823 110.683 85.6445 104.864C89.3622 96.3105 95.6421 90.6078 102.073 84.9052C101.42 92.9354 98.8574 100.675 94.989 107.367Z" fill="white"/>
<path d="M41.9733 37.7923C40.8783 33.9139 39.7312 30.0951 38.3234 26.3957C36.9156 22.7559 35.1949 19.0564 32.64 16.3117C32.3792 16.0134 31.8057 16.431 32.0664 16.789C34.0999 19.9515 35.9249 23.1736 37.437 26.7537C38.9491 30.3934 40.1484 34.2122 41.3476 37.9713C41.5562 38.389 42.1297 38.21 41.9733 37.7923Z" fill="white"/>
<path d="M32.9186 45.7724C27.8292 40.8873 21.7629 36.7171 15.3369 34.7511C14.977 34.632 14.8742 35.2277 15.1826 35.3469C18.2672 36.6575 21.3517 38.0277 24.282 39.8745C27.2123 41.6618 29.9369 43.8065 32.5074 46.249C32.7644 46.4873 33.1757 46.0107 32.9186 45.7724Z" fill="white"/>
<path d="M31.393 54.4254C24.0079 55.513 16.7239 57.8027 10.1481 61.8096C9.84456 61.9814 10.0469 62.6683 10.401 62.4965C17.1285 59.291 24.109 56.8868 31.393 55.9137C32.2023 55.742 32.2023 54.3109 31.393 54.4254Z" fill="white"/>
<path d="M36.3105 66.1538C31.0362 73.622 26.2991 81.8608 23.0271 90.9295C22.8806 91.3444 23.369 91.7 23.5155 91.2851C27.3735 82.6314 31.6222 74.3926 36.8965 66.865C37.2384 66.3908 36.6523 65.6796 36.3105 66.1538Z" fill="white"/>
<path d="M91.83 78.7246C92.1829 78.552 91.9309 78.0342 91.578 78.0917C91.3763 78.1492 91.1746 78.1492 90.973 78.2068C91.0234 78.0917 91.0234 77.9766 91.0234 77.9191C90.8722 76.6533 90.0655 75.3299 89.511 74.2367C88.906 73.0859 88.2002 71.9352 87.444 70.8995C85.8812 68.7131 84.0159 66.8719 81.9993 65.3184C81.6968 65.0882 81.4447 64.9156 81.1422 64.6855C83.7638 65.4335 86.2845 66.3541 88.6539 67.85C88.8556 67.9651 89.0572 67.6774 88.906 67.5048C86.0324 64.8006 82.2009 63.9375 78.6215 63.132C75.4959 61.4634 72.0677 60.4853 68.5891 60.4277C68.5387 60.025 68.4883 59.6222 68.2866 59.277C68.1354 58.9317 67.6313 58.9893 67.5809 59.3921C67.48 59.7948 67.48 60.2551 67.4296 60.6579C67.3792 60.8305 67.3792 61.0606 67.2784 61.2332C67.228 61.2908 67.2279 61.4059 67.1775 61.4634C67.2279 61.4059 67.1271 61.5209 67.1271 61.5209C67.0767 61.5209 67.0767 61.5785 67.0767 61.5785C66.9759 61.4634 66.9255 61.3483 66.8246 61.2332C66.623 61.0606 66.4213 60.888 66.1693 60.888C65.8164 60.888 65.5139 61.2332 65.5139 61.636C65.5139 62.3265 65.9172 62.7292 66.4213 62.9018C66.4213 62.9594 66.4717 63.0169 66.4717 63.0744C66.4717 63.5347 66.3709 63.9375 66.1188 64.2252C66.018 64.3978 65.9172 64.4553 65.7155 64.5704C65.5643 64.628 65.413 64.743 65.2114 64.743C65.2114 64.743 65.161 64.743 65.1106 64.743C65.0602 64.743 65.0097 64.743 64.9593 64.743C64.9089 64.743 64.8585 64.743 64.8081 64.743C64.9089 64.743 64.7072 64.743 64.7072 64.743C64.6568 64.743 64.6064 64.743 64.556 64.6855L64.4552 64.6279C64.4048 64.6279 64.3544 64.5704 64.3544 64.5704C64.3039 64.5129 64.2535 64.5129 64.2031 64.4553C63.9006 64.2252 63.4469 64.3978 63.2957 64.743C63.094 65.0882 63.2452 65.5485 63.5477 65.7787C63.699 65.8938 63.8502 65.9513 64.0015 66.0088C64.0519 66.1239 64.1023 66.239 64.2031 66.2965C69.4462 69.4611 75.5463 71.7626 81.5455 71.7626C81.8984 71.7626 81.9993 71.0721 81.6464 71.0146C76.2017 70.094 70.9586 68.7131 65.9676 66.0664C66.1693 66.0088 66.3205 65.9513 66.4717 65.8362C67.3792 65.2033 67.7825 63.995 67.5809 62.8443C68.1354 62.6141 68.4379 62.0388 68.5891 61.4634C73.2272 61.636 77.7645 63.3621 81.596 66.4116C83.5117 67.9076 85.1754 69.6912 86.6374 71.7626C87.3936 72.7983 88.0994 73.949 88.7044 75.0997C89.2589 76.1929 89.6622 77.4012 90.2672 78.4369C88.0994 78.8397 85.982 79.2424 83.7134 79.2424C80.991 79.1849 78.2686 78.6671 75.6471 77.6889C70.8578 75.9628 66.5726 72.7407 62.9428 68.8282C62.4386 68.3103 61.6824 69.1734 62.1865 69.6912L62.237 69.7488C61.9849 70.0365 61.8841 70.4392 62.1865 70.842C65.2114 74.8121 67.5809 79.415 69.0429 84.3633C69.7487 86.6647 70.3032 89.0813 70.6561 91.4979C71.009 94.0871 70.9082 96.6762 71.3115 99.2079C71.4123 99.7257 72.0677 99.6682 72.1685 99.2079C72.6223 97.0215 72.4206 94.4323 72.1181 92.1308C73.3785 93.8569 75.1934 94.9501 77.0083 95.8132C79.0753 96.7913 81.2935 97.3667 83.5621 96.9639C84.5704 96.7913 85.5283 96.4461 86.4357 95.8707C87.1415 95.468 88.2002 94.7775 88.4523 93.8569C88.7044 92.8788 88.2002 91.4979 87.9986 90.5197C87.6961 89.3115 87.2928 88.1032 86.7886 86.9524C85.8308 84.6509 84.6208 82.3494 82.9067 80.6233C85.982 80.7959 89.1581 80.2781 91.83 78.7246ZM85.6291 87.3552C86.1836 88.621 86.587 89.9444 86.9399 91.2677C87.0911 91.9006 87.3432 92.5911 87.3936 93.224C87.444 94.0295 86.8894 94.3172 86.3349 94.72C84.1671 96.1584 81.4447 96.1009 79.1257 95.2378C76.9075 94.4323 74.1347 92.9939 72.8239 90.6924C72.5718 90.2896 72.1181 90.2896 71.8661 90.5197C71.5132 88.1032 71.009 85.6866 70.2528 83.3851C68.9924 79.4726 67.228 75.7902 65.0601 72.453C65.161 72.5106 65.2618 72.6256 65.3626 72.6832C65.3626 72.7982 65.413 72.9709 65.4635 73.0859C67.8329 76.2505 70.3032 79.3 72.9752 82.1768C75.5463 84.9962 78.2686 87.758 81.2431 90.0019C81.5456 90.2321 81.9489 89.7142 81.6464 89.369C79.0248 86.5497 76.2521 83.9605 73.681 81.0836C71.9669 79.1849 70.3032 77.2286 68.69 75.2724C70.8578 76.7683 73.1264 78.0342 75.4959 78.9547C77.3612 79.7027 79.4786 80.2206 81.6464 80.5083C81.6464 80.5658 81.6464 80.5658 81.6968 80.6233C83.1084 82.8097 84.5704 84.8811 85.6291 87.3552Z" fill="white"/>
<path d="M87.6553 54.4241C81.7335 56.1929 75.713 58.6251 69.6431 57.0037C69.0016 56.8562 68.7055 58.3303 69.3964 58.4777C75.6143 60.0992 81.8816 58.0355 87.8034 55.3085C88.1488 55.0874 88.0008 54.3504 87.6553 54.4241Z" fill="white"/>
<path d="M24.9778 16.7444C24.2953 15.2493 22.5892 14.3633 21.1755 14.0864C19.8594 13.8096 18.007 13.5881 17.422 15.2493C17.1295 16.0245 17.0808 16.8551 17.032 17.6858C16.9833 18.7379 16.9833 19.79 17.0808 20.8421C17.2758 22.7802 17.7145 24.6629 18.4457 26.4349C18.6407 26.8779 19.1769 26.4903 19.0307 26.0473C17.812 23.0017 17.3733 19.4577 17.812 16.1353C17.8607 15.803 17.9095 15.36 18.1532 15.0832C18.3969 14.8063 18.8357 14.8063 19.1769 14.8063C19.8106 14.8063 20.4443 14.917 21.1268 15.0832C21.7605 15.3047 22.3942 15.5815 22.9792 15.9692C23.5641 16.3568 24.0516 16.7998 24.6366 17.132C24.8316 17.2428 25.0753 16.9659 24.9778 16.7444Z" fill="white"/>
<path d="M82.8219 18.2447C81.9266 17.5025 80.6072 17.3169 79.5705 17.3788C78.3925 17.4406 77.2144 17.8736 76.2249 18.6776C75.7065 19.0487 76.1777 20.0382 76.6961 19.6672C77.5443 19.0487 78.5339 18.6776 79.4763 18.6157C80.3716 18.5539 81.4083 18.6157 82.2094 19.1724C83.1047 19.7909 82.9633 21.2133 82.9162 22.3266C82.8691 23.6254 82.445 24.8005 82.2565 26.0993C82.2094 26.5322 82.5392 26.7796 82.7748 26.5323C83.6702 25.4808 83.9529 23.7491 84 22.2029C84 20.7186 83.8115 19.0487 82.8219 18.2447Z" fill="white"/>
<path d="M92.7081 62.8183C92.3213 62.1111 91.4028 62.8183 91.7895 63.4665C92.7081 64.9987 93.1432 66.8254 93.0949 68.7112C93.0949 69.0647 93.0949 69.5951 92.8532 69.8898C92.5631 70.1844 92.128 70.2433 91.7895 70.4201C90.9677 70.7148 90.0491 70.9505 89.1789 71.1862C88.8888 71.2451 88.9855 71.7755 89.2272 71.7755C90.2425 71.8344 91.2094 71.6576 92.2247 71.3041C92.6114 71.1862 93.0949 71.0094 93.4333 70.6558C93.7717 70.3023 93.8684 69.7719 93.9167 69.2415C94.2068 66.9433 93.7234 64.6451 92.7081 62.8183Z" fill="white"/>
<path d="M71.3622 148.453C70.9589 150.168 70.498 151.821 70.0947 153.536C69.6914 155.19 69.1728 156.844 69 158.497C69 158.62 69.1728 158.681 69.2305 158.559C69.8642 157.027 70.2099 155.312 70.6708 153.659C71.1317 151.944 71.535 150.29 71.996 148.575C72.0536 148.208 71.4774 148.024 71.3622 148.453Z" fill="white"/>
<path d="M35.7655 165.926C35.7068 165.454 34.9446 165.454 35.0032 165.926C35.1791 167.931 35.2964 169.995 35.2964 172.001C35.2964 174.006 35.0618 176.07 35.1205 178.075C35.1205 178.311 35.5309 178.429 35.5896 178.134C36 176.188 36 174.124 36 172.119C36 170.054 35.9414 167.99 35.7655 165.926Z" fill="white"/>
</svg>
