<?xml version="1.0" encoding="utf-8"?>
<!-- Generator: Adobe Illustrator 28.2.0, SVG Export Plug-In . SVG Version: 6.00 Build 0)  -->
<svg version="1.1" id="Layer_1" xmlns="http://www.w3.org/2000/svg" xmlns:xlink="http://www.w3.org/1999/xlink" x="0px" y="0px"
	 viewBox="0 0 103 215" style="enable-background:new 0 0 103 215;" xml:space="preserve">
<style type="text/css">
	.st0{fill:#FFFFFF;}
</style>
<path class="st0" d="M40.1,39.4c-0.5,0.2-0.8,0.6-1,1.1c-0.7-0.9-1.5-1.6-2.3-0.7c-0.4,0.5-0.4,1.3-0.3,2c0,0.1,0,0.3,0,0.4
	c-0.1-0.2-0.3-0.3-0.4-0.4c-0.7-0.6-1.6-1.1-2.4-0.6c-0.9,0.6-0.6,2.2-0.5,3.2c0.1,1.2,0.4,2.5,0.8,3.6c0.1,0.4,0.4,0.6,0.8,0.5
	c0.3-0.1,0.6-0.6,0.4-0.9c-0.3-0.9-0.5-1.8-0.7-2.7c-0.1-0.5-0.1-0.9-0.2-1.4c0-0.2,0-0.5,0-0.6c0-0.1,0-0.2,0-0.2
	c0.4-0.2,1.1,0.5,1.4,0.8c0.5,0.6,1,1.2,1.4,1.9c0.1,0.3,0.5,0.3,0.8,0.1c0.2-0.2,0.3-0.5,0.3-0.9c-0.1-1.1-0.3-2.1-0.4-3.2
	c0.1,0.1,0.2,0.2,0.3,0.4c0.3,0.5,0.6,0.9,0.9,1.4c0.3,0.6,1.3,0.5,1.3-0.4c0-0.5-0.1-1.1,0.1-1.5c0.2-0.2,0.3-0.1,0.4,0.2
	c0.1,0.4,0.6,0.6,0.8,0.2C42.3,40.4,41.1,39,40.1,39.4z"/>
<path class="st0" d="M50.1,39c-0.3-0.8-0.8-1.4-1.6-1.5c-0.9,0-1.4,0.8-1.8,1.6c-0.1,0.2-0.2,0.5-0.3,0.6c-0.1-0.3-0.2-0.5-0.3-0.8
	c-0.4-0.8-0.9-1.8-1.8-1.9c-0.9-0.1-1.4,0.8-1.6,1.7c-0.2,1.1-0.2,2.2,0.2,3.3c0.3,0.9,1.5,0.5,1.3-0.4c-0.2-0.7-0.3-1.4-0.2-2.2
	c0.1-0.2,0.1-0.5,0.2-0.7l0.1-0.1h0.1c0.4,0.4,0.6,0.9,0.8,1.5c0.3,0.7,0.5,1.4,0.7,2.1c0.3,0.8,1.2,0.6,1.3-0.2
	c0.1-0.7,0.3-1.4,0.5-2c0.2-0.4,0.5-1.2,0.9-1.2c0.1,0,0.2,0.1,0.2,0.2c0.1,0.2,0.2,0.4,0.3,0.6c0.1,0.4,0.2,0.6,0.2,1
	c0.1,0.4,0.2,0.8,0.4,1.2c0.2,0.4,0.8,0.4,0.9-0.1C50.6,40.9,50.4,39.9,50.1,39z"/>
<path class="st0" d="M93.8,55.5c-0.9-1.6-2.5-2.8-3.9-3.8c-4.3-3-9.1-3.8-13.8-3.4c3.8-1.3,7.6-2.4,11.5-3.4
	c0.3-0.1,0.2-0.6-0.1-0.6c-2.9,0.5-5.7,1.2-8.5,2c2.6-1.9,4.8-4.4,6.5-7.3c0,0.2,0.2,0.4,0.5,0.5c2.3,0.2,5.1,1.2,5.9,4.1
	c0.3,1.3,0,2.6-0.6,3.8c-0.3,0.6-0.7,1-1.1,1.6c-0.4,0.5-0.9,0.9-1.2,1.4c-0.1,0.3,0.1,0.6,0.3,0.5c0.6-0.2,1.2-0.9,1.6-1.4
	c0.4-0.5,0.9-1.2,1.2-1.8c0.7-1.3,0.9-2.9,0.5-4.4s-1.3-2.8-2.4-3.6c-1.2-0.9-2.8-1.3-4.2-1.4c0,0,0,0,0,0c0.9-1.7,1.6-3.5,2.2-5.3
	c0.4-1.6,1-3.3-0.4-4.3c-1.5-1.1-3.5-1.5-5.2-1.6c-3.9-0.1-7.8,1.6-10.9,4.3c-0.5,0.5-1,0.9-1.5,1.4c0.4-0.6,0.8-1.2,1.3-1.7
	c1.9-2.4,3.9-4.8,5.9-7.1c0.2-0.3-0.1-0.7-0.4-0.5c-2.1,2.4-4.1,4.8-6.1,7.3c-0.9,1.2-1.9,2.4-2.7,3.8c2.5-4.3,4.4-9,5.3-14.1
	c0.3-2.1,0.6-4.3,0.5-6.4c0-1.2,0.2-4-1-4.6c-1.1-0.5-3,0.2-4,0.6c-1.5,0.6-2.8,1.4-4,2.6c-2.8,2.5-4.6,6.1-6.2,9.7
	c0.1-0.8,0.2-1.6,0.2-2.4c1.1-2.5,2.1-5,3.1-7.6c0.2-0.5-0.4-0.9-0.6-0.4c-0.8,2-1.6,4.1-2.4,6.2c0.1-2.5,0.1-5-0.2-7.4
	c0,0,0.1-0.1,0.2-0.2c0.5-0.8,1.2-1.5,1.9-2.1c0.7-0.6,1.6-1.2,2.4-1.3C64,7,64.6,7.7,64.8,8.5c0.1,0.5,0.1,1,0,1.6
	c0,0.5-0.2,1.2-0.1,1.7c0,0.3,0.3,0.3,0.5,0.2c0.4-0.5,0.5-1.3,0.6-1.9c0-0.6,0-1.3-0.1-1.9c-0.3-1.1-1-1.9-2-2.1
	c-1-0.1-2.1,0.5-3,1.2c-0.8,0.6-1.5,1.3-2.1,2.1c0-0.4-0.1-0.8-0.2-1.2c-0.6-3.5-3.4-9.7-6.8-5.6c-3.2,3.7-4.9,9.6-5.9,14.6
	c-1.2,6.1-1.2,12.4-0.1,18.5c0.1,0.6,0.9,0.3,0.8-0.3c-1.5-9.5-0.4-19.9,3.6-28.4c0.5-1,1-2.1,1.7-3c0.3-0.4,0.6-0.9,0.9-1.2
	c1-0.9,1.9-0.6,2.7,0.4C56.6,4.7,57.1,7,57.4,9c0.7,4.6,0.6,9.6-0.1,14.2c-0.4,2.5-0.9,5-1.7,7.4c-0.8,2.6-2,4.9-3,7.5
	c0,0.1,0,0.2,0,0.3c-0.8,0.5-1.5,1.5-1.9,2.4c-0.4,0.8,0.6,1.5,1,0.7c0.5-1,1.4-2.5,2.6-2.1c1.3,0.5,0.7,2.7,0.6,3.8
	c-0.1,0.6,0.7,1.2,1,0.5c0.3-0.8,0.8-1.8,1.6-2.1c0.6-0.2,1.3,0.2,1,1.1c-0.1,0.5,0.4,1,0.8,0.8c0.4-0.4,1-0.4,1.5,0.1
	c0.4,0.4,0.4,0.9,0.6,1.4c0.1,0.3,0.6,0.3,0.7,0c0.2-0.5,0.1-1,0-1.4c0.1,0.1,0.4,0.1,0.5-0.1c4.2-6.6,9.1-13.4,16.4-15.1
	c1.8-0.4,3.6-0.5,5.4-0.1c0.7,0.2,2.1,0.3,2.7,0.9c0.9,1,0.3,2.3-0.1,3.4c-1.1,3.4-2.9,6.5-5.1,9.1c-2.3,2.7-5.1,4.8-8,6.3
	c-0.6,0.2-1.2,0.5-1.9,0.7c-0.1,0.1-0.2,0.2-0.2,0.3c-1.7,0.4-3.3,0.9-4.9,1.5c-0.6,0.2-0.3,1.3,0.2,1.1c6.4-2.5,13.6-3.4,19.9,0.1
	c1.4,0.8,2.7,1.7,3.9,2.8c0.4,0.4,1.6,1.4,1.8,2c0.2,1-0.6,2.1-1.2,2.8c-2.1,2.5-4.9,3.2-7.5,4.6c-0.3,0.2-0.2,0.9,0.2,0.9
	c3.1-0.2,6.5-2,8.6-4.8C93.9,58.8,94.7,57.1,93.8,55.5z M61.7,42.6L61.7,42.6c0,0-0.1-0.1-0.2-0.1c-0.5-0.4-1.1-0.5-1.6-0.5
	c-0.1-0.9-0.8-1.6-1.6-1.7c-0.7-0.1-1.3,0.2-1.8,0.8c0-1.3-0.4-2.5-1.6-3c-0.5-0.2-1.1-0.2-1.6-0.1c1.3-1.9,2.1-4.1,2.9-6.3
	c0.8-2.2,1.4-4.5,1.8-6.8c0.2,0.1,0.4,0,0.5-0.3c1.6-4.3,3.6-8.6,6.8-11.5c1.5-1.4,3.3-2.5,5.2-3.1c0.6-0.2,1.8-0.6,2.2,0.3
	c0.1,0.3,0.1,1.4,0.1,1.8c0,1.3,0,2.5,0,3.8C72.2,26.4,67.2,35.1,61.7,42.6z M62.2,43.1c0,0.1,0,0.1,0,0.2C62,43.2,62,43,61.9,42.9
	c0,0,0,0,0-0.1c0.6-0.8,1.2-1.5,1.8-2.3C63.2,41.4,62.7,42.2,62.2,43.1z"/>
<path class="st0" d="M42.7,51.4c-0.3-0.9-0.8-1.8-1.6-2.3c-0.7-0.6-1.8-0.8-2.4,0.2c-0.5,0.8-0.4,1.9-0.2,2.9c0,0.3,0.1,0.7,0.3,1
	c-0.4-0.1-0.7,0.1-1,0.6c-0.3,0.9-0.2,2,0,3c-1,0.1-2,0.4-1.9,1.8c0,0.8,0.5,1.4,0.8,2c0.4,0.7,0.8,1.5,1.4,1.9
	c0.3,0.2,0.7-0.1,0.6-0.6c-0.1-0.6-0.5-1-0.7-1.5c-0.3-0.4-0.5-0.9-0.7-1.3c-0.2-0.4-0.4-0.8,0.1-1c0.5-0.1,0.9-0.1,1.4-0.2
	c0.3-0.1,0.5-0.7,0.3-0.9c-0.4-0.7-0.6-1.5-0.5-2.3c0-0.1,0-0.2,0-0.3c0-0.1,0-0.1,0-0.1c0,0.1,0.3,0.2,0.3,0.2
	c0.3,0.2,0.6,0.4,1,0.7c0.5,0.4,1-0.5,0.6-0.9c-0.7-0.9-1.4-2.5-1.2-3.9c0.2-0.9,0.9-0.6,1.3-0.2c0.5,0.4,0.8,0.9,1.1,1.6
	C42,52.3,42.9,51.9,42.7,51.4z"/>
<path class="st0" d="M50.4,64.1c-0.1-0.3-0.6-0.3-0.7,0c-0.1,0.2-0.1,0.3-0.3,0.4c-0.2,0.1-0.4,0.1-0.6-0.1c-0.5-0.3-0.7-1.4-0.7-2
	c0-0.6-0.6-0.7-0.8-0.3c-0.3,0.6-0.7,1.5-1.4,1.4c-0.7-0.1-0.2-1.2,0-1.6c0.3-0.5-0.3-1-0.7-0.6c-0.7,0.7-1.9,1.8-2.8,1.3
	c0.3-0.4,0.7-0.7,1-1c0.7-0.5,0-1.7-0.6-1.2c-0.7,0.5-1.3,1.1-1.8,1.9c-0.2,0.3-0.2,0.7,0,1c0.6,0.8,1.6,1,2.4,0.7
	c0.4-0.1,0.7-0.3,0.9-0.5c0,0.7,0.5,1.3,1,1.5c0.8,0.3,1.4-0.1,2-0.8c0,0.2,0.1,0.4,0.2,0.6c0.2,0.6,0.6,1.1,1.2,1.2
	C49.5,66.2,50.9,65.4,50.4,64.1z"/>
<path class="st0" d="M50.9,50.2c-1.2-0.6-2.6-0.6-3.9,0.1c-1,0.5-3.3,2.2-2.1,3.9c0.1,0.2,0.3,0.4,0.5,0.5c0.1,0.1,0.2,0.2,0.3,0.3
	c0.6,0.6,1.4,1.1,2.1,1.4c0.7,0.3,1.5,0.4,2.3,0.4c0.7-0.1,1.4-0.4,2-0.9c0.5-0.4,1.1-1.1,1.2-2C53.7,51.9,52,50.7,50.9,50.2z
	 M48.4,52.1c0,0-0.1,0-0.1,0c-0.1,0-0.2,0.1-0.3,0.1c-0.4,0.2-0.8,0.4-1.1,0.7c-0.2,0.2-0.3,0.6-0.2,0.8c-0.1-0.1-0.3-0.2-0.4-0.3
	c-0.1-0.1-0.2-0.1-0.2-0.2c0-0.6,1-1,1.2-1.1c0.6-0.2,1.2-0.3,1.9-0.2C48.9,52,48.6,52,48.4,52.1z M50.9,55.3
	c0.1-0.1,0.2-0.2,0.3-0.4c0.2-0.3,0.5-0.7,0.4-1.2c0-0.4-0.3-0.7-0.5-0.9c0,0,0-0.1-0.1-0.1c0.4-0.1,0.6-0.7,0.2-1.1
	c0-0.1-0.1-0.1-0.1-0.1c0.6,0.3,1.2,0.7,1.5,1.4C53.1,54.1,51.7,55,50.9,55.3z"/>
<path class="st0" d="M53.4,45.8c-0.3-0.1-0.5-0.1-0.8,0c0-0.4-0.1-0.9-0.2-1.3c-0.1-0.7-0.4-1.6-1.1-1.6c-0.7-0.1-1,0.9-1.3,1.6
	c-0.1,0.3-0.2,0.6-0.3,0.9c-0.1-0.4-0.3-0.9-0.5-1.3c-0.3-0.8-0.8-1.4-1.6-1.2c-0.6,0.2-1,1-1.2,1.8c-0.1,1,0.2,2.1,0.3,3.1
	c0.1,0.8,1,0.4,0.8-0.3c-0.1-0.7-0.3-1.4-0.3-2.1c0-0.4,0.2-1.1,0.6-1.2c0.4-0.1,0.7,0.9,0.9,1.2c0.3,0.7,0.5,1.3,0.8,2.1
	c0.1,0.5,0.7,0.2,0.7-0.2c0-0.6,0.1-1.2,0.2-1.8c0.1-0.2,0.2-0.5,0.3-0.7c0.1-0.1,0.3-0.6,0.4-0.6c0.2,0.1,0.3,1.1,0.3,1.3
	c0,0.7,0,1.3,0,1.9c0,0.8,0.8,0.9,1,0.2c0.1-0.3,0.4-0.4,0.5-0.3c0.3,0.2,0.3,0.7,0.3,1c0.1,0.4,0.5,0.6,0.7,0.2
	C54.7,47.4,54.2,46.1,53.4,45.8z"/>
<path class="st0" d="M44.7,48c-0.1-0.4-0.2-0.7-0.4-1c-0.3-0.4-0.7-0.6-1.3-0.6c-0.6,0-1,0.3-1.2,0.7c-0.2,0.4-0.1,0.9,0,1.2
	c0.1,0.5,0.2,0.9,0.5,1.4c0.2,0.3,0.7,0.1,0.7-0.1c0-0.4,0-0.9,0-1.3c0-0.2,0-0.4,0.1-0.6v0c0,0,0,0,0-0.1c0,0,0,0,0.1,0l0.1,0
	c0,0,0,0,0,0c0,0,0.1,0,0.1,0.1v0c0,0,0,0,0.1,0.1c0.1,0.2,0.1,0.4,0.1,0.5c0.1,0.1,0.2,0.3,0.3,0.4c0.2,0.1,0.4,0.1,0.6,0
	C44.5,48.7,44.7,48.3,44.7,48z"/>
<path class="st0" d="M61,52.9c-0.4-0.7-1.2-0.8-1.8-0.8h0c0.3-0.8,0.4-1.7-0.1-2.5c-0.7-1.3-2.2-1.2-2.7,0.2
	c-0.1,0.4,0.1,0.8,0.4,0.9c0.4,0.1,0.6-0.2,0.7-0.5c0,0.1,0,0,0-0.1c0,0,0.2-0.1,0.1-0.1c0,0,0.1,0,0.1,0c0,0,0.2,0.1,0.1,0.1
	c0.1,0.1,0-0.1,0.1,0.1c0.1,0.1,0.1,0.2,0.2,0.4c0.2,0.8-0.4,1.7-0.8,2.3c-0.2,0.3-0.2,0.7,0,1c0.2,0.3,0.5,0.4,0.8,0.2
	c0.1-0.1,0.3-0.3,0.4-0.4c0.2-0.1,0.4-0.2,0.5-0.2c0.2,0,0.3,0,0.5,0c0.1,0,0.4,0.1,0.4,0.2c0,0,0,0.1,0,0.1c0,0.1,0,0.3-0.1,0.4
	c0,0.2-0.1,0.3-0.2,0.6c-0.2,0.4-0.5,0.7-0.8,1.1c-0.4,0.4,0,1.1,0.4,1c0.6-0.2,1.1-0.7,1.4-1.5C61.1,54.5,61.4,53.5,61,52.9z"/>
<path class="st0" d="M59.9,60.3c-0.3-0.4-0.6-0.8-0.9-1.1c-0.2-0.3-0.7,0.1-0.5,0.5c0.1,0.2,0.2,0.5,0.3,0.7c0,0,0,0.1,0,0.1
	c-0.1-0.1-0.3-0.1-0.5-0.2c-0.5-0.3-0.9,0.2-0.8,0.8c0.1,0.6,0.1,1.1,0.1,1.7c0,0,0,0.2,0,0.4c0,0,0,0,0,0c-0.6-0.3-1-1.2-1.4-1.9
	c-0.1-0.2-0.3-0.4-0.6-0.3c-0.3,0.1-0.5,0.5-0.4,0.8c0,0.2,0.1,0.4,0.2,0.6c0.1,0.4,0.1,0.9,0,1.3c0,0.1,0,0.3-0.1,0.4
	c0,0.1-0.1,0.2-0.1,0.3c0-0.1-0.1-0.1-0.2-0.1c-0.7-0.8-1.2-1.8-1.5-2.9c-0.1-0.4-0.4-0.7-0.7-0.5c-0.3,0.1-0.5,0.5-0.4,0.9
	c0.2,0.9,0.6,1.7,1,2.4c0.4,0.7,1,1.6,1.7,1.8c0.8,0.2,1.3-0.8,1.4-1.8c0-0.1,0-0.1,0-0.1c0.3,0.4,0.7,0.7,1.2,0.7
	c0.7,0,1.2-0.6,1.2-1.4c0-0.4,0-0.8,0-1.3c0.4,0.1,0.8,0.1,1.1-0.4C60.3,61.2,60.2,60.7,59.9,60.3z"/>
<path class="st0" d="M65,88.5c-1.3-2.9-2.8-5.7-4.2-8.5c-1.4-2.8-2.7-5.7-4-8.6c-0.1-0.3-0.3-0.4-0.6-0.3c0.1-0.4,0.1-0.9,0.1-1.3
	c0.1,0.1,0.2,0.2,0.4,0.2c0.5,0.3,1,0.6,1.5,0.5c0.4-0.2,0.7-0.6,0.8-1.2c0-0.2,0-0.3,0-0.5c0.8,0.2,1.7,0,2.2-0.8
	c0.2-0.3,0-0.9-0.4-0.8c-0.8,0.3-1.6,0.6-2.4,0.1c-0.3-0.2-1,0.2-0.8,0.7c0.1,0.2,0.3,0.6,0.2,0.9c0,0.3-0.3,0.1-0.5,0
	c-0.6-0.3-1.2-0.6-1.8-0.9c-0.4-0.2-1,0.3-0.7,0.8c0.4,0.7,0.5,1.8-0.1,2.4c-0.4,0.3-1.2,0.2-1.4-0.4c-0.2-0.9-1.3-0.5-1.1,0.3
	c0.4,1.4,1.9,2,3,1.2c0.1-0.1,0.2-0.2,0.4-0.4c0,0,0,0,0,0.1c2.6,5.8,5.3,11.7,8.6,16.9C64.7,89.4,65.2,88.9,65,88.5z"/>
<path class="st0" d="M79.2,35.9c-5.5,2-10.4,5.7-14.6,10.2c-0.6-0.3-1.3-0.1-1.5,0.7c-0.1,0.6,0.6,0.9,0.8,0.3
	c0-0.1,0.1-0.1,0.2-0.1c0,0.1,0.1,0.2,0.2,0.2c0,0.3,0,0.7-0.1,0.9c-0.3,0.8-0.7,1.4-0.7,2.3c0,0.6,0.7,0.9,1,0.3
	c0.1-0.3,0.6,0.1,0.7,0.3c0.3,0.6-0.2,1.4-0.5,1.9c-0.3,0.6,0.4,1.3,0.8,0.8c0.2-0.2,0.5-0.2,0.8,0c0.3,0.2,0.4,0.8,0.3,1.2
	c-0.1,1.1-0.9,1.6-1.6,2.2c-0.3,0.2-0.2,0.9,0.2,0.8c1.4-0.2,2.7-1.7,2.5-3.5c-0.1-1-0.8-1.7-1.6-1.9c0.2-0.8,0.2-1.7-0.2-2.3
	c-0.3-0.3-0.7-0.6-1.1-0.6c0.1-0.3,0.3-0.8,0.4-1.1c0.1-0.5,0.2-1.2,0-1.6c4.2-4.4,9.1-7.6,14.2-10.1C79.8,36.4,79.6,35.7,79.2,35.9
	z"/>
<path class="st0" d="M53.7,12.9c-3.1,7.4-4.3,15.5-4.2,23.5c0,0.8,1.2,0.8,1.2,0c-0.1-7.9,1.3-15.7,3.6-23.2
	C54.5,12.8,53.9,12.5,53.7,12.9z"/>
<path class="st0" d="M68.4,18.6c-4.9,5.4-8.6,12.6-11.1,20c-0.2,0.7,0.8,1.1,1,0.3c2.5-7.4,6.3-13.8,10.5-19.8
	C69.1,18.8,68.7,18.3,68.4,18.6z"/>
<path class="st0" d="M99.4,83.2c-6.3,5.5-12.6,11.5-16.4,20c-3.4,7.4-5.1,16-9.4,22.8c-2.5,3-5.1,5.8-7.7,8.6
	c-4.5,4.9-8.9,9.9-12.7,15.6c0-13.7-0.1-27.4-0.4-41c-0.2-9.4-0.4-18.9-0.8-28.2c1,3.5,2.4,6.9,4.3,9.8c1.6,2.4,3.6,4.5,5.7,6.2
	c2,1.5,4.6,3,7.1,3c0.4,0,0.4-0.6,0.1-0.8c-2.3-1.1-4.6-1.9-6.7-3.6c-2.1-1.7-4-3.8-5.5-6.3c-3.2-5.2-5-11.3-6-17.6
	c0-0.4-0.3-0.5-0.6-0.5c-0.1-0.5-0.2-1-0.4-1.5c-0.1-0.5-1-0.5-0.9,0.1c0.5,4.9,0.8,9.8,0,14.7c-0.8,4.9-2.4,9.5-4.4,13.9
	c-1,2.2-2,4.3-3.2,6.4c-0.2,0.4-0.5,1.3-0.9,1.6c-0.8,0.7-1.4-0.3-1.8-1c-0.5-1.2-0.9-2.4-1.2-3.7c-1.2-4.6-1.4-9.4-1-14.1
	c0.5-5.9,1.9-11.6,3.2-17.2c0.1-0.5-0.2-0.8-0.5-0.9c0-0.3,0.1-0.5,0.1-0.8c0-0.1,0-0.2,0-0.3c0.3,0.1,0.7,0.1,1,0.1
	c0,0.5,0.2,0.9,0.5,1.3c0.5,0.8,1.4,1,2.2,0.8c0.3-0.1,0.6-0.3,0.9-0.6c0.1,0.5,0.4,0.9,0.7,1.2c0,0.1,0,0.1,0,0.1
	c-0.9,4.7-1.7,9.3-2.3,14c-0.6,4.5-1.2,9.2-1.2,13.8c0,0.5,0.6,0.6,0.7,0.1c0.6-4.6,1-9.3,1.7-13.8c0.6-4.5,1.4-9.1,2.2-13.6
	c0.8,0.2,1.8,0,2.5-0.5c0.4-0.3,0.2-1-0.2-1c-0.7,0-1.6,0.2-2.2-0.1c-0.4-0.2-1-1-0.8-1.6c0.2-0.7-0.6-1.3-0.9-0.6
	c-0.2,0.6-1,1.4-1.7,1.2c-0.3-0.1-0.5-0.3-0.7-0.6c0-0.1-0.1-0.2-0.1-0.3c0.1-0.1,0.3-0.1,0.5-0.2c0.2-0.1,0.3-0.5,0.2-0.8
	c-0.3-0.9-1.3-0.9-1.8-0.1c0,0.1,0,0.1,0,0.1c-1,0.1-2.1-0.5-2.7-1.4c-0.4-0.6-1.2,0.3-0.8,0.9c0.5,0.7,1.1,1.2,1.8,1.5
	c0,0.1-0.1,0.1-0.1,0.2c-1.3,4.5-2.8,8.9-5.1,12.9c-2.3,4-5.2,7.5-8.6,10.3C23.6,92.8,21.8,94,20,95c-0.5,0.3-1.7,1.1-2.2,0.4
	c-0.3-0.5-0.2-1.4-0.2-2c0-1.3,0.2-2.6,0.3-3.9c0.6-4.8,2-9.5,4.1-13.8c2.4-4.9,5.6-9.1,9.5-12.4c0.5-0.5,0.1-1.5-0.4-1.3
	c0-0.1-0.1-0.1-0.2-0.1c-7.1,3.2-14.2,5.2-21.9,4.1C8,66,7,65.8,6,65.6c-0.9-0.2-2.4-0.2-2.1-1.7c0.1-0.8,0.8-1.7,1.2-2.4
	c0.5-0.9,1.1-1.7,1.7-2.5c2.4-2.9,5.3-5.1,8.5-6.3c4.3-1.7,8.8-2.1,13.4-1.6c0.2,0,0.3-0.1,0.3-0.3c0.5,0,1.1-0.1,1.6-0.1
	c-0.5,1.9,0.5,3.5,1.7,4.7c-0.9,1-1.1,2.9-0.9,4.2c0.2,1.1,0.8,2,1.4,2.9c0.7,0.8,1.6,1.7,2.5,2c0.5,0.2,0.8-0.6,0.5-1
	c-0.9-1.4-2.4-2.1-3-3.9c-0.4-1.3,0-2.7,0.9-3.5c0.4-0.3,0.3-1.1-0.1-1.3c-0.9-0.4-1.7-1.7-1.8-2.8c0-0.4,0-1.1,0.3-1.3
	c0.1-0.1,0.6-0.1,0.6,0.1c0.1,1.1,1.4,0.9,1.3-0.2c-0.1-0.9-0.9-1.5-1.6-1.5c-0.4,0-0.8,0.1-1.2,0.4c-5.7-0.2-11-1.5-15.8-5.5
	c-4.2-3.5-7.6-8.4-9.8-14c8.5-3.1,18.8-3.2,25.7,4c0.6,0.9,1.3,1.7,2,2.6c0.2,0.3,0.4,0.5,0.6,0.8c0.1,0.2,0.2,0.2,0.4,0.2
	c0.3,0.3,0.6,0.6,0.9,0.9c0.5,0.4,1.1-0.5,0.7-1c-1.7-2.1-3.5-4-4.9-6.4c-1.4-2.3-2.6-4.9-3.5-7.6c-1.7-5-2.4-10.5-2-15.8
	c4.8,1.1,8.9,4.3,12.1,8.7c3.8,5.2,5.6,11.9,6.2,18.6c0,0.5,0.7,0.5,0.7,0c-0.6-6.9-2.4-13.8-6-19.3c-0.7-1.1-1.5-2.1-2.3-3.1
	c0-0.1,0-0.2,0-0.3c-0.3-2.4,0.4-4.7,1.2-6.9c0.6-1.7,1.8-4.5,3.8-3.9C43,1.7,44,4,44.6,5.6c0.4,0.9,0.7,2,0.9,3
	c0.2,1,0.2,2.2,0.5,3.1c0.1,0.3,0.5,0.3,0.6,0c0.2-0.9,0.1-1.9,0-2.9c-0.1-1-0.3-1.9-0.6-2.9c-0.6-1.7-1.4-3.5-2.5-4.8
	c-1.2-1.3-2.7-1.6-4.1-0.6c-1.5,1-2.1,2.9-2.8,4.7c-0.7,1.9-1.2,4-1.1,6.1c-2.9-3-6.4-5.1-10.2-5.8c-0.5-0.1-0.8,0.2-0.9,0.8
	c-0.4,6.1,0.3,12.2,2.3,17.8c0.8,2.3,1.8,4.6,3,6.8c-0.4-0.3-0.8-0.6-1.3-0.9v-0.1c-1.2-1.9-2.6-3.5-3.9-5.4
	c-1.3-1.7-2.5-3.6-3.8-5.5c-0.3-0.5-1,0.2-0.7,0.6c1.2,1.9,2.4,3.7,3.8,5.5c0.9,1.3,1.9,2.5,2.9,3.7c-6.7-3.5-14.9-3-21.9-0.2
	c-0.4,0.2-0.5,0.6-0.3,1C6,33.5,8,37,10.3,40c-1.8-0.9-3.9-0.9-5.8-0.7c-1.1,0.1-2.1,0.2-3.2,0.5c-0.8,0.2-1.5,0.8-1.3,1.9
	c0.2,1,0.8,2,1.3,2.8c0.5,0.9,1,1.7,1.6,2.5c1.2,1.6,2.5,2.9,4,4.1c1.3,1,2.7,1.9,4.2,2.4c-1.9,1.2-3.6,2.7-5.1,4.6
	c-1.2,1.5-2.4,3.3-3,5.3c-0.6,1.8,0.3,2.6,1.7,3c2.4,0.8,5,1.1,7.5,1.2c-1.9,2.2-3.8,4.4-5.1,7.1c-1.2,2.4-2.2,5.4-1.9,8.3
	c0.3,2.8,3.2,3.4,5.1,3.6c2.3,0.2,4.9-0.4,6.5-2.4c0.2-0.2,0-0.8-0.3-0.6c-1.9,0.8-3.8,1.6-5.8,1.6c-1,0-2-0.2-3-0.6
	c-0.5-0.2-1.1-0.3-1.4-1c-0.2-0.5-0.2-1.3-0.2-1.9c0.1-5.5,3.5-9.8,6.6-13.4c0.2-0.2,0.1-0.5,0-0.6c1.6,0.1,3.2-0.1,4.8-0.2
	c2.7-0.3,5.4-0.9,8-1.9c-2.1,1.5-4.1,3.1-6.1,4.8c-2.7,2.4-5.4,4.9-7.8,7.8c-0.3,0.3,0.1,0.8,0.4,0.5c2.7-2.6,5.2-5.2,8-7.6
	c2.2-1.9,4.5-3.6,6.9-5.2C21.6,72,18,80.4,16.9,89.3c-0.1,1.3-0.2,2.6-0.2,4c0,1,0,2.2,0.7,2.9c1.4,1.3,4-0.8,5.3-1.6
	c0.9-0.5,1.7-1.1,2.5-1.7c-1.3,3.8-1.1,8.1,0,11.9c0.5,1.9,1.5,3.7,3.4,3.2c1.9-0.5,3.5-2.7,4.6-4.5c1.1-1.7,2.2-3.8,2.7-5.9
	c0.3,1.9,0.7,3.7,1.3,5.4c0.5,1.5,1.3,4.2,2.9,4.5c0.7,0.1,1.2-0.3,1.6-0.9c0.7-1,1.3-2.2,1.9-3.3c2.6-4.7,4.8-9.8,6.2-15.3
	c0-0.1,0-0.2,0.1-0.3c-1,22.8-0.2,45.5-0.2,68.3c-4.1,7.7-7.1,16.4-8.3,25.4c-0.8,5.6-0.9,11.4-0.3,17.1c-1.8-9.8-1.1-20.2-4.1-29.7
	c-2.5-7.9-7.4-14.5-13.5-18.5c-0.3-0.2-0.7,0.2-0.5,0.6c4.1,8.2,3.7,18.1,5,27.2c0.6,4.4,1.7,8.7,3.8,12.5c2.2,4,5.4,7.3,8.7,9.9h0
	c0.3,0.9,0.7,1.7,1.2,2.5c0.6,3.5,1.5,7,2.6,10.4c0.1,0.5,0.8,0.2,0.6-0.2c-5.8-17.9-3.4-38.1,4.8-54.3c0,8-0.1,15.9-0.4,23.9
	c-0.2,4.8-0.4,9.5-0.8,14.3c-0.2,3.5-0.7,7-1,10.5c-0.3,2-0.7,4-1,6.1c0,0.1,0,0.2,0,0.3c-0.1,0.3,0.4,0.6,0.5,0.2
	c0.1-0.3,0.2-0.5,0.4-0.8c0.2,0,0.5-0.2,0.5-0.6c0-0.3,0-0.6,0.1-0.9c0,0,0,0,0-0.1c0-0.3,0.1-0.5,0.1-0.8c0.7-2.6,0.9-5.3,1.1-8
	c0.4-2.2,0.8-4.3,1.1-6.5c0-0.1,0.1-0.1,0.1-0.2c0-0.3,0-0.6,0.1-0.9c0.3-1.9,0.6-3.8,0.8-5.6c1.1-5.4,3.1-10.3,5.6-15
	c0.2,0.1,0.4,0,0.5-0.3c0-0.2,0.1-0.3,0.1-0.5l0,0.1c0.2,0.2,0.5,0.1,0.6-0.2c1.1-1.8,2.5-3.2,4-4.5c5.3-3.1,10.3-7.4,14.4-12.2
	c4.9-5.8,8.4-12.8,10.2-20.7c0.1-0.3-0.3-0.8-0.6-0.5c-3.6,2.9-7.9,4.3-11.7,6.6c-3.3,2-6.2,4.7-8.6,8.1c-4.6,6.7-7.1,15-9.3,23
	c-1.6,3-3,6.1-4.1,9.3c-0.3,0.8-0.5,1.6-0.8,2.4c0.8-7.7,1.1-15.5,1.2-23.3c0-3.2,0-6.4,0-9.6c3.8-5.9,8.2-11,12.9-15.9
	c3.8-3.9,7.4-7.9,10.9-12.1c6.5-3.3,12.1-9.5,16-16.4c4.1-7.3,6.6-15.7,7-24.5C100.2,83.3,99.7,83,99.4,83.2z M5,47.7
	c-1.1-1.2-2.1-2.6-2.9-4.2c-0.2-0.3-0.4-0.7-0.5-1.1c0-0.2-0.2-0.5-0.2-0.6c0-0.2,0.1-0.2,0.3-0.3c0.9-0.3,1.9-0.4,2.8-0.5
	c1-0.1,2-0.1,3.1,0c1.1,0.1,2.1,0.2,3.2,0.2c0.1,0,0.2-0.1,0.2-0.2c1.3,1.6,2.7,3.1,4.3,4.4c2.5,2.2,5.6,3.9,8.8,4.8
	c-0.2,0-0.3,0-0.5,0.1c0-0.1,0-0.1-0.1-0.1c-4.9-1.6-9.8-3.6-14.4-6.3c-0.7-0.4-1.3,0.8-0.6,1.2c4.3,2.5,8.7,4.4,13.4,5.4
	c-3.1,0.3-6.1,1-8.9,2.4c0-0.1-0.1-0.1-0.1-0.1C9.8,51.9,7.2,50.1,5,47.7z M35.7,96.3c-0.1,0-0.2,0.1-0.2,0.2
	c-0.6,1.1-1,2.3-1.6,3.5c-0.5,1-1.1,2.1-1.7,3.1c-0.7,1-1.5,2.1-2.3,3c-0.8,0.9-2.1,1.9-3.1,0.7c-0.7-0.9-1-2.2-1.2-3.3
	c-0.3-1.3-0.5-2.6-0.5-3.8c-0.1-2.6,0.3-5.2,1.4-7.4c2.5-2.1,4.7-4.6,6.7-7.4c0,0,0,0,0-0.1c-2.1,5.6-4.2,11.2-5.9,17
	c-0.1,0.3,0.3,0.5,0.4,0.2c3-6.7,5.4-13.7,7.9-20.5c0.1-0.2,0-0.4,0-0.6c0.6-1.2,1.2-2.4,1.8-3.6C36,83.3,35.1,89.9,35.7,96.3z
	 M28.9,176.2c-1-7-1.3-14.5-3.4-21.2c1.2,2.7,2.3,5.4,3.7,7.9c0,0.1,0.2,0,0.2-0.1c-1.4-3.5-3-6.9-4.6-10.2c0-0.1-0.1-0.1-0.2-0.1
	c-0.1-0.2-0.1-0.4-0.2-0.6c4.9,3.7,8.9,9.1,11.3,15.4c0.3,2.7,0.5,5.5,0.5,8.3c0,1.3,0,2.7-0.1,4c0,1.1-0.2,2.3-0.3,3.4
	c-1.7-5.5-3.1-11.1-4.3-16.6c-0.1-0.5-0.8-0.3-0.7,0.2c1.2,5.6,2.6,11.1,4.2,16.6c-0.2-0.2-0.4-0.5-0.6-0.7
	c-0.6-0.6-1.1-1.3-1.7-1.9c-1.1-1.3-2.3-2.5-3.4-3.8c0-0.1-0.1-0.1-0.1-0.1C28.9,176.6,28.9,176.4,28.9,176.2z M32.5,188.9
	c-1.8-3.4-2.8-7.4-3.5-11.3c1,1.1,2,2.3,3,3.4c0.5,0.6,1.1,1.2,1.7,1.9l0.9,1c0.2,0.2,0.3,0.4,0.6,0.6c0.1,0.4,0.2,0.8,0.3,1.2
	c0.9,3.1,1.9,6.1,2.9,9.1c0.3,0.9,0.6,1.9,0.9,2.8C36.8,195,34.3,192.3,32.5,188.9z M39.3,194.1c-1-3-2-6.1-3-9.1
	c-0.1-0.4-0.2-0.8-0.4-1.2c0.2-1.2,0.2-2.6,0.3-3.9c0.1-1.5,0.1-2.9,0.1-4.4c0-2.3-0.1-4.5-0.3-6.8c0.2,0.5,0.3,1.1,0.5,1.6
	c2.3,8.3,2.1,17.2,3.5,25.8C39.8,195.5,39.5,194.8,39.3,194.1z M76.1,156.7c-2.5,3-5.4,5.6-8.3,7.9c-2.5,2-5.2,3.6-7.8,5.4
	c3.6-5.6,7.9-10.8,12.2-15.5l0-0.1c0,0.2,0.1,0.5,0.4,0.5c2.2,0,4.3-0.6,6.2-1.8C78,154.3,77.1,155.5,76.1,156.7z M79.9,151.6
	c-1.9,1.2-3.9,2-6,2.3c1.3-0.6,2.5-1.3,3.8-2c1.2-0.6,2.4-1.4,3.5-2.3C80.8,150.3,80.4,151,79.9,151.6z M76.1,143.2
	c3.4-1.9,6.9-3.3,10-5.7c-1,4.1-2.6,8-4.6,11.5c-1.4,0.5-2.7,1.3-4,2c-1.3,0.7-2.5,1.3-3.8,2c2.6-2.8,5.2-5.6,7.8-8.6
	c0.2-0.2-0.1-0.6-0.3-0.4c-3.9,4-7.9,8.1-11.7,12.5c0.9-3,1.5-6.1,2.1-9.1c0-0.3-0.1-0.5-0.4-0.5C72.7,145.4,74.3,144.2,76.1,143.2z
	 M67.2,151.2c1.1-1.6,2.3-2.9,3.6-4.1c-0.6,3.1-1.4,6.2-1.8,9.3c0,0.1,0,0.2,0.1,0.2c-3.8,4.4-7.4,9-10.4,14
	C60.8,163.7,63.2,156.8,67.2,151.2z M51.8,158.6c0,8.6-0.1,17.3-0.9,25.9c0,0.3-0.1,0.7-0.1,1c0.5-8.4,0.7-16.8,0.8-25.3
	c0-1.6,0-3.2,0-4.8c0.1-0.1,0.1-0.3,0.2-0.4C51.8,156.2,51.8,157.4,51.8,158.6z M51.8,152.5c-0.1,0.1-0.1,0.2-0.2,0.4
	c0-14.8-0.2-29.7-0.1-44.6c0-3.6,0-7.2,0-10.8c0.2,11.6,0.3,23.2,0.3,34.9C51.9,139,51.8,145.8,51.8,152.5z M92.2,107.4
	c-3.4,6-7.8,10.6-12.9,14.5c1.3-1.7,2.6-3.5,3.9-5.3c5.5-8.1,10-17,13.4-26.6c0.2-0.5-0.5-0.9-0.8-0.4c-3.8,8.4-8,16.5-12.9,24.1
	c-2,3.2-4.3,6.2-6.6,9.1c2.7-5.6,4.4-12,6.9-17.9c3.6-8.6,9.7-14.3,15.9-20C98.5,92.9,96,100.7,92.2,107.4z"/>
<path class="st0" d="M40.8,37.8c-1.1-3.9-2.2-7.7-3.5-11.4c-1.4-3.6-3-7.3-5.5-10.1c-0.3-0.3-0.8,0.1-0.6,0.5c2,3.2,3.7,6.4,5.2,10
	c1.5,3.6,2.6,7.5,3.8,11.2C40.3,38.4,40.9,38.2,40.8,37.8z"/>
<path class="st0" d="M32,45.8c-4.9-4.9-10.8-9.1-17.1-11c-0.3-0.1-0.4,0.5-0.1,0.6c3,1.3,6,2.7,8.8,4.5c2.8,1.8,5.5,3.9,8,6.4
	C31.8,46.5,32.2,46,32,45.8z"/>
<path class="st0" d="M30.5,54.4c-7.2,1.1-14.2,3.4-20.6,7.4c-0.3,0.2-0.1,0.9,0.2,0.7c6.5-3.2,13.3-5.6,20.4-6.6
	C31.3,55.7,31.3,54.3,30.5,54.4z"/>
<path class="st0" d="M35.3,66.2c-5.1,7.5-9.7,15.7-12.9,24.8c-0.1,0.4,0.3,0.8,0.5,0.4c3.7-8.7,7.9-16.9,13-24.4
	C36.2,66.4,35.6,65.7,35.3,66.2z"/>
<path class="st0" d="M89.2,78.7c0.3-0.2,0.1-0.7-0.2-0.6c-0.2,0.1-0.4,0.1-0.6,0.1c0-0.1,0-0.2,0-0.3c-0.1-1.3-0.9-2.6-1.5-3.7
	c-0.6-1.2-1.3-2.3-2-3.3c-1.5-2.2-3.3-4-5.3-5.6c-0.3-0.2-0.5-0.4-0.8-0.6c2.5,0.7,5,1.7,7.3,3.2c0.2,0.1,0.4-0.2,0.2-0.3
	c-2.8-2.7-6.5-3.6-10-4.4c-3-1.7-6.4-2.6-9.7-2.7c0-0.4-0.1-0.8-0.3-1.2c-0.1-0.3-0.6-0.3-0.7,0.1c-0.1,0.4-0.1,0.9-0.1,1.3
	c0,0.2,0,0.4-0.1,0.6c0,0.1,0,0.2-0.1,0.2c0-0.1,0,0.1,0,0.1c0,0,0,0.1,0,0.1c-0.1-0.1-0.1-0.2-0.2-0.3c-0.2-0.2-0.4-0.3-0.6-0.3
	c-0.3,0-0.6,0.3-0.6,0.7c0,0.7,0.4,1.1,0.9,1.3c0,0.1,0,0.1,0,0.2c0,0.5-0.1,0.9-0.3,1.2c-0.1,0.2-0.2,0.2-0.4,0.3
	c-0.1,0.1-0.3,0.2-0.5,0.2c0,0,0,0-0.1,0c0,0-0.1,0-0.1,0s-0.1,0-0.1,0c0.1,0-0.1,0-0.1,0c0,0-0.1,0-0.1-0.1l-0.1-0.1
	c0,0-0.1-0.1-0.1-0.1c0-0.1-0.1-0.1-0.1-0.1c-0.3-0.2-0.7-0.1-0.9,0.3c-0.2,0.3,0,0.8,0.2,1c0.1,0.1,0.3,0.2,0.4,0.2
	c0,0.1,0.1,0.2,0.2,0.3c5.1,3.2,11,5.5,16.8,5.5c0.3,0,0.4-0.7,0.1-0.7C74,70.1,68.9,68.7,64,66.1c0.2-0.1,0.3-0.1,0.5-0.2
	c0.9-0.6,1.3-1.8,1.1-3c0.5-0.2,0.8-0.8,1-1.4c4.5,0.2,8.9,1.9,12.6,4.9c1.9,1.5,3.5,3.3,4.9,5.4c0.7,1,1.4,2.2,2,3.3
	c0.5,1.1,0.9,2.3,1.5,3.3c-2.1,0.4-4.2,0.8-6.4,0.8c-2.6-0.1-5.3-0.6-7.8-1.6c-4.6-1.7-8.8-4.9-12.3-8.9c-0.5-0.5-1.2,0.3-0.7,0.9
	l0,0.1c-0.2,0.3-0.3,0.7,0,1.1c2.9,4,5.2,8.6,6.7,13.5c0.7,2.3,1.2,4.7,1.6,7.1c0.3,2.6,0.2,5.2,0.6,7.7c0.1,0.5,0.7,0.5,0.8,0
	c0.4-2.2,0.2-4.8,0-7.1c1.2,1.7,3,2.8,4.7,3.7c2,1,4.2,1.6,6.4,1.2c1-0.2,1.9-0.5,2.8-1.1c0.7-0.4,1.7-1.1,2-2
	c0.2-1-0.2-2.4-0.4-3.3c-0.3-1.2-0.7-2.4-1.2-3.6c-0.9-2.3-2.1-4.6-3.8-6.3C83.5,80.8,86.6,80.3,89.2,78.7z M83.1,87.4
	c0.5,1.3,0.9,2.6,1.3,3.9c0.1,0.6,0.4,1.3,0.4,2c0,0.8-0.5,1.1-1,1.5c-2.1,1.4-4.7,1.4-7,0.5c-2.2-0.8-4.8-2.2-6.1-4.5
	c-0.2-0.4-0.7-0.4-0.9-0.2c-0.3-2.4-0.8-4.8-1.6-7.1c-1.2-3.9-2.9-7.6-5-10.9c0.1,0.1,0.2,0.2,0.3,0.2c0,0.1,0,0.3,0.1,0.4
	c2.3,3.2,4.7,6.2,7.3,9.1c2.5,2.8,5.1,5.6,8,7.8c0.3,0.2,0.7-0.3,0.4-0.6c-2.5-2.8-5.2-5.4-7.7-8.3c-1.7-1.9-3.3-3.9-4.8-5.8
	c2.1,1.5,4.3,2.8,6.6,3.7c1.8,0.7,3.9,1.3,6,1.6c0,0.1,0,0.1,0,0.1C80.7,82.8,82.1,84.9,83.1,87.4z"/>
<path class="st0" d="M85.1,54.4c-5.7,1.8-11.6,4.2-17.5,2.6c-0.6-0.1-0.9,1.3-0.2,1.5c6,1.6,12.1-0.4,17.9-3.2
	C85.6,55.1,85.4,54.4,85.1,54.4z"/>
<path class="st0" d="M24.3,16.7c-0.7-1.5-2.3-2.4-3.7-2.7c-1.3-0.3-3.1-0.5-3.6,1.2c-0.3,0.8-0.3,1.6-0.4,2.4c0,1.1,0,2.1,0,3.2
	c0.2,1.9,0.6,3.8,1.3,5.6c0.2,0.4,0.7,0.1,0.6-0.4c-1.2-3-1.6-6.6-1.2-9.9c0-0.3,0.1-0.8,0.3-1.1c0.2-0.3,0.7-0.3,1-0.3
	c0.6,0,1.2,0.1,1.9,0.3c0.6,0.2,1.2,0.5,1.8,0.9c0.6,0.4,1,0.8,1.6,1.2C24.1,17.2,24.3,17,24.3,16.7z"/>
<path class="st0" d="M80.4,18.2c-0.9-0.7-2.2-0.9-3.2-0.9c-1.1,0.1-2.3,0.5-3.2,1.3c-0.5,0.4,0,1.4,0.5,1c0.8-0.6,1.8-1,2.7-1.1
	c0.9-0.1,1.9,0,2.7,0.6c0.9,0.6,0.7,2,0.7,3.2c0,1.3-0.5,2.5-0.6,3.8c0,0.4,0.3,0.7,0.5,0.4c0.9-1.1,1.1-2.8,1.2-4.3
	C81.6,20.7,81.4,19,80.4,18.2z"/>
<path class="st0" d="M90,62.8c-0.4-0.7-1.3,0-0.9,0.6c0.9,1.5,1.3,3.4,1.3,5.2c0,0.4,0,0.9-0.2,1.2c-0.3,0.3-0.7,0.4-1,0.5
	c-0.8,0.3-1.7,0.5-2.5,0.8c-0.3,0.1-0.2,0.6,0,0.6c1,0.1,1.9-0.1,2.9-0.5c0.4-0.1,0.8-0.3,1.2-0.6c0.3-0.4,0.4-0.9,0.5-1.4
	C91.5,66.9,91,64.6,90,62.8z"/>
<path class="st0" d="M69.3,148.5c-0.4,1.7-0.8,3.4-1.2,5.1c-0.4,1.7-0.9,3.3-1.1,5c0,0.1,0.2,0.2,0.2,0.1c0.6-1.5,1-3.2,1.4-4.9
	c0.4-1.7,0.8-3.4,1.3-5.1C70,148.2,69.4,148,69.3,148.5z"/>
<path class="st0" d="M34.7,165.9c-0.1-0.5-0.8-0.5-0.7,0c0.2,2,0.3,4.1,0.3,6.1c0,2-0.2,4.1-0.2,6.1c0,0.2,0.4,0.4,0.5,0.1
	c0.4-1.9,0.4-4,0.4-6C35,170.1,34.9,168,34.7,165.9z"/>
</svg>
