<?xml version="1.0" encoding="UTF-8"?>
<svg id="Layer_2" data-name="Layer 2" xmlns="http://www.w3.org/2000/svg" viewBox="0 0 160 160">
  <defs>
    <style>
      .cls-1 {
        fill: none;
      }

      .cls-1, .cls-2, .cls-3, .cls-4 {
        stroke-miterlimit: 10;
      }

      .cls-1, .cls-2, .cls-4 {
        stroke: #40793e;
      }

      .cls-1, .cls-4 {
        stroke-width: 6px;
      }

      .cls-2 {
        stroke-linecap: round;
      }

      .cls-2, .cls-4, .cls-5 {
        fill: #40793e;
      }

      .cls-3 {
        fill: #1b2615;
        stroke: #1b2615;
      }

      .cls-5, .cls-6 {
        stroke-width: 0px;
      }

      .cls-6 {
        fill: #bcb2d6;
      }
    </style>
  </defs>
  <g id="Layer_1-2" data-name="Layer 1">
    <g>
      <rect class="cls-6" width="160" height="160" rx="12" ry="12"/>
      <g>
        <circle class="cls-3" cx="78.97" cy="79.41" r="52.55"/>
        <path class="cls-1" d="m101.35,55.9h-50.44c-2.99,0-5.42,2.43-5.42,5.42v34.93c0,2.99,2.43,5.42,5.42,5.42h34.55c0-1.24,0-2.48,0-3.72-12.41.01-24.82.03-37.23.04.03-13.18.05-26.36.08-39.54,18.6-.1,37.2-.2,55.8-.29.05,7.8.11,15.6.16,23.41l2.27.08c.08,0,.15-.03.23-.03v-20.28c0-2.99-2.43-5.42-5.42-5.42Z"/>
        <line class="cls-1" x1="92.39" y1="99.86" x2="115.39" y2="99.86"/>
        <line class="cls-1" x1="103.53" y1="88.36" x2="103.53" y2="111.36"/>
        <circle class="cls-4" cx="90.31" cy="70.83" r="2.03"/>
        <polygon class="cls-2" points="65.07 79.41 54.01 98.57 76.13 98.57 65.07 79.41"/>
        <path class="cls-5" d="m84.55,96.08l-4.85,3.01c-2.59-4.53-5.19-9.07-7.78-13.6,1.08-1.83,2.17-3.66,3.25-5.49,3.12,5.36,6.25,10.72,9.37,16.08Z"/>
      </g>
    </g>
  </g>
</svg>