<?xml version="1.0" encoding="UTF-8"?>
<svg id="Layer_2" data-name="Layer 2" xmlns="http://www.w3.org/2000/svg" viewBox="0 0 77.49 76.81">
  <defs>
    <style>
      .cls-1 {
        fill: #40793e;
      }

      .cls-1, .cls-2 {
        stroke-width: 0px;
      }

      .cls-2 {
        fill: #d2d3d4;
      }
    </style>
  </defs>
  <g id="Layer_1-2" data-name="Layer 1">
    <path class="cls-2" d="m53.16,7.6h-28.1c-9.39,0-17.01,7.62-17.01,17.01v28.1c0,9.39,7.62,17.01,17.01,17.01h28.1c9.39,0,17.01-7.62,17.01-17.01v-28.1c0-9.39-7.62-17.01-17.01-17.01Z"/>
    <path class="cls-1" d="m38.75,28.88c-1.9,0-3.76.56-5.34,1.61-1.58,1.05-2.81,2.53-3.54,4.27-.73,1.74-.92,3.66-.55,5.5.37,1.85,1.29,3.54,2.63,4.88,1.34,1.33,3.06,2.24,4.92,2.61,1.86.37,3.8.18,5.55-.54,1.76-.72,3.26-1.94,4.31-3.51,1.06-1.57,1.62-3.41,1.62-5.29,0-1.25-.25-2.49-.73-3.64-.48-1.16-1.19-2.21-2.08-3.09s-1.95-1.59-3.12-2.06c-1.17-.48-2.42-.73-3.68-.73Zm38.47-9.41c-.02-2.97-.57-5.9-1.63-8.68-.78-2.03-1.98-3.87-3.53-5.41-1.55-1.54-3.41-2.73-5.46-3.5-2.8-1.05-5.76-1.59-8.76-1.61C52.85,0,51.38,0,38.75,0s-14.1,0-19.1.27c-2.99.02-5.96.57-8.76,1.61-2.05.77-3.91,1.96-5.46,3.5-1.55,1.54-2.75,3.38-3.53,5.41-1.06,2.78-1.61,5.71-1.63,8.68C0,24.43,0,25.89,0,38.41s0,13.98.27,18.93c.04,2.98.59,5.92,1.63,8.72.77,2.02,1.98,3.85,3.53,5.38,1.54,1.55,3.41,2.74,5.46,3.5,2.8,1.05,5.76,1.59,8.76,1.61,5,.27,6.47.27,19.1.27s14.1,0,19.1-.27c2.99-.02,5.96-.57,8.76-1.61,2.06-.76,3.92-1.95,5.46-3.5,1.55-1.52,2.75-3.36,3.53-5.38,1.06-2.79,1.61-5.74,1.63-8.72.27-4.95.27-6.41.27-18.93s0-13.98-.27-18.93Zm-9.84,30.72c-.12,2.37-.63,4.7-1.51,6.91-.75,1.84-1.87,3.52-3.29,4.92-1.42,1.41-3.11,2.51-4.96,3.26-2.25.82-4.62,1.27-7.01,1.34h-23.71c-2.4-.07-4.76-.52-7.01-1.34-1.92-.71-3.66-1.84-5.08-3.3-1.4-1.38-2.49-3.04-3.18-4.88-.83-2.23-1.28-4.58-1.32-6.95v-23.5c.04-2.37.49-4.72,1.32-6.95.71-1.9,1.85-3.62,3.33-5.03,1.4-1.38,3.07-2.46,4.92-3.15,2.25-.82,4.62-1.27,7.01-1.34h23.71c2.4.07,4.76.52,7.01,1.34,1.92.71,3.66,1.84,5.08,3.3,1.4,1.38,2.49,3.04,3.18,4.88.83,2.23,1.29,4.58,1.36,6.95v11.75c0,7.91.27,8.72.15,11.75v.04Zm-6.2-28.57c-.46-1.24-1.19-2.37-2.13-3.3-.94-.93-2.08-1.66-3.33-2.11-1.72-.59-3.53-.88-5.35-.84h-23.25c-1.83.02-3.64.36-5.35,1-1.23.44-2.36,1.13-3.3,2.03-.94.9-1.68,1.99-2.16,3.19-.56,1.71-.84,3.5-.81,5.3v23.04c.04,1.81.38,3.6,1.01,5.3.46,1.24,1.19,2.37,2.13,3.3.94.93,2.08,1.66,3.33,2.11,1.65.6,3.39.94,5.15,1h23.25c1.83-.02,3.64-.36,5.35-1,1.25-.46,2.39-1.18,3.33-2.11.94-.93,1.67-2.06,2.13-3.3.65-1.69.99-3.49,1.01-5.3v-23.04c0-1.81-.34-3.61-1.01-5.3v.04Zm-22.43,31.45c-1.94,0-3.86-.38-5.66-1.12-1.79-.74-3.42-1.82-4.79-3.18-1.37-1.36-2.46-2.98-3.2-4.76-.74-1.78-1.12-3.69-1.11-5.61,0-2.9.87-5.74,2.5-8.15,1.63-2.41,3.94-4.29,6.65-5.4,2.71-1.11,5.68-1.4,8.56-.83,2.87.57,5.51,1.97,7.58,4.03,2.07,2.06,3.47,4.67,4.04,7.52s.27,5.8-.86,8.48c-1.13,2.68-3.03,4.97-5.47,6.58-2.44,1.61-5.3,2.46-8.23,2.45Zm15.5-26.46c-.86-.09-1.65-.49-2.23-1.13-.58-.63-.89-1.46-.89-2.31s.32-1.68.89-2.31c.58-.63,1.37-1.04,2.23-1.13.86.09,1.65.49,2.23,1.13.58.63.89,1.46.89,2.31s-.32,1.68-.89,2.31c-.58.63-1.37,1.04-2.23,1.13Z"/>
  </g>
</svg>