<?xml version="1.0" encoding="UTF-8"?>
<svg id="Layer_2" data-name="Layer 2" xmlns="http://www.w3.org/2000/svg" viewBox="0 0 449.57 102.42">
  <defs>
    <style>
      .cls-1 {
        fill: #41783d;
        stroke-width: 0px;
      }
    </style>
  </defs>
  <g id="Layer_1-2" data-name="Layer 1">
    <g>
      <path class="cls-1" d="m65.46.47c2.6,5.08,13.2,27.11,6.67,54.85-7.03,29.91-28.76,44.36-33,47.07-8.2.01-16.41.02-24.61.03,2.16-12.72,4.01-32.31.21-55.6C11.47,26.86,5.21,11.12,0,.47h26.49c4.37,6.33,10.69,17.19,14.03,32.15,4.46,19.96,1.23,36.55-.91,44.67,3.29-6.18,8.85-18.59,9.38-35.26.64-20.35-6.6-35.38-10.02-41.56h26.49Z"/>
      <path class="cls-1" d="m95.78.39c3.98,5.08,17.74,23.89,17.69,51.9-.04,26.45-12.37,44.49-16.36,49.88-15.93,0-31.87-.01-47.8-.02,3.67-2.32,27.17-17.76,32.68-49.3,4.77-27.31-7.19-48.04-10-52.63,7.93.06,15.86.12,23.78.17Z"/>
      <path class="cls-1" d="m133.86.47c4.17,5.45,13.03,18.55,15.56,37.93,2.75,21.08-3.58,37.35-6.4,43.62,3.65-.08,7.31-.16,10.96-.23-1.62,6.88-3.24,13.76-4.85,20.64h-40.4c3.29-5.82,22.93-41.76,8.94-78.29-3.81-9.95-9.22-17.61-14.28-23.25,10.15-.14,20.31-.27,30.46-.41Z"/>
      <path class="cls-1" d="m140.59.8c7.77-.26,20.27-.56,33.43-.33,1.05.02,4.43-.11,8.92.18,4.35.28,7.19.74,8.6.99,4.89.87,7.63,1.9,10.11,3.39,0,0,.32.19.67.42,5.47,3.52,9.66,9.48,10.05,10.05,7.13,10.42,11.01,71.82-4.45,82.23-3.52,2.37-7.52,3.65-7.52,3.65-2.98.7-7.48,1.04-13.49,1.04h-31.69c1.66-5.23,3.87-13.24,5.21-23.24,1.91-14.2,4.79-34.16-3.92-54.8-2.38-5.65-6.97-14.53-15.92-23.58Zm39.75,17.11v67.07c3.62,0,5.85-.77,6.68-2.3.84-1.53,1.25-5.7,1.25-12.5V30.57c0-4.62-.14-7.58-.42-8.88-.28-1.3-.92-2.26-1.91-2.86-1-.61-2.86-.91-5.61-.91Z"/>
      <path class="cls-1" d="m331.43.61c-3.82,3.88-19.43,20.62-21.16,47.71-1.93,30.19,14.85,50.45,17.9,54.01-10.82-.07-21.64-.15-32.45-.22l-.03-68.46-8.74,68.46h-15.57l-9.22-66.89-.03,66.89c-11.23.09-22.46.19-33.68.28,3.8-4.46,18.24-22.43,18.69-49.96.48-29.03-14.91-48.18-18.49-52.42,14.68.23,29.35.47,44.03.7.96,6.1,1.96,13.28,2.98,21.56l3.57,25.79,5.77-47.35c15.48-.03,30.96-.06,46.44-.09Z"/>
      <path class="cls-1" d="m371.89.84c1.96,3.52,4.54,8.56,7.1,14.83,5.39,13.23,12.16,29.54,10.37,48.48-.63,6.65-3.08,21.85-15.84,38.1h-12.94l-1.35-18.23h-8.99l-1.51,18.23h-14.69c-6-8.31-13.46-21.71-14.94-39.1-1.61-18.94,4.58-34.72,9.11-46.46,2.6-6.74,5.32-12.12,7.36-15.85h36.31Zm-15.83,65.2c-1.27-11.49-2.55-25.68-3.83-42.59-2.56,19.42-4.17,33.61-4.82,42.59h8.65Z"/>
      <path class="cls-1" d="m376.06,1.01c16.1-.05,27.51-.14,34.07-.31.86-.02,4.77-.13,9.96.16,4.64.26,6.96.39,9.23,1.01,6.62,1.78,10.74,6.86,12.65,9.2,7.99,9.84,7.73,22.02,7.55,25.39v35.51c-.12,2.83-.7,8.13-3.72,13.79-.94,1.76-3.13,5.45-7.09,8.82-6.33,5.4-13.09,6.51-17.56,7.25-2.93.48-7.3.9-12.66.27-9.27-.06-18.55-.12-27.82-.18,4.28-5.91,14.34-21.5,15.33-43.88,1.39-31.45-16.19-52.7-19.93-57.03Zm40.4,17.04v66.71c3.62,0,5.85-.76,6.68-2.28.84-1.53,1.25-5.67,1.25-12.43V30.64c0-4.59-.14-7.54-.42-8.83-.28-1.29-.92-2.24-1.91-2.85-1-.61-2.86-.91-5.61-.91Z"/>
    </g>
  </g>
</svg>