<?xml version="1.0" encoding="UTF-8"?>
<svg id="Layer_2" data-name="Layer 2" xmlns="http://www.w3.org/2000/svg" viewBox="0 0 235.21 223.9">
  <defs>
    <style>
      .cls-1 {
        fill: none;
        stroke: #f68a1f;
        stroke-miterlimit: 10;
      }
    </style>
  </defs>
  <g id="Layer_1-2" data-name="Layer 1">
    <g>
      <path class="cls-1" d="M11.56,58.38c2.46-4.87,2.86-3.17,8.76-12.15,4.42-6.72,5.52-9.69,9.89-13.84,1.6-1.52,1.12-.81,5.93-4.8,7.47-6.2,7.64-7.11,11.02-9.32,2.16-1.42,1.27-.5,11.02-5.08,6.74-3.16,8.26-4.11,12.43-5.65,1.56-.58,3.79-1.24,8.19-2.54,8.74-2.59,13.16-3.89,15.82-4.24,3.81-.49,6.96-.24,13.28.28,1.59.13,6.08.53,17.51,2.54,8.78,1.55,13.17,2.32,17.23,3.39,3.25.86,3.01.93,18.36,6.21,10.94,3.77,13.15,4.45,17.23,6.5,3.33,1.67,6.91,3.48,11.02,6.78,4.35,3.5,6.86,6.76,11.86,13.28,4.63,6.02,7.68,10.87,8.47,12.15,2.39,3.83,4.64,8.16,9.04,16.66,3.78,7.3,5.71,11.05,7.91,15.82,3.41,7.41,5.12,11.11,6.21,15.25,2.07,7.82,2.03,14.21,1.98,17.79-.09,6.2-.93,10.54-2.26,17.23-1.22,6.15-3.08,15.25-7.63,26.55-2.21,5.49-4.6,11.44-9.32,18.64-2.66,4.06-7.29,11.01-15.53,17.79-6.43,5.3-12.2,8.14-16.38,10.17-9.43,4.57-17.23,6.4-18.92,6.78-5.59,1.26-5.79.68-16.95,2.54-4.08.68-4.13.77-14.97,2.82-11.49,2.18-17.29,3.27-19.77,3.39-5.8.29-10.27-.37-19.21-1.69-8.11-1.2-12.91-1.91-19.21-4.24-5.18-1.92-8.86-3.99-13.28-6.5-6.95-3.93-10.42-5.9-14.12-9.32-2.47-2.28-5.98-7.36-12.99-17.51-3.84-5.56-4.46-6.65-6.78-9.6-4.35-5.55-5.7-6.21-9.32-10.73-.93-1.16-5.09-6.44-9.04-14.12-1.85-3.6-4.6-9.03-6.5-16.66-.67-2.7-2.29-9.94-1.98-19.49.13-4.01.46-4.1,3.39-21.75,1.62-9.76,1.79-11.4,2.82-16.38,1.74-8.4,2.65-12.69,4.8-16.95Z"/>
      <path class="cls-1" d="M85.28,34.38c3.16-1.8,2.53-4.55,6.21-9.32,2.05-2.65,3.41-4.42,5.65-4.8,2.78-.48,3.7,1.74,8.76,2.82,2.38.51,4.87,1.05,7.34,0,2.89-1.22,2.76-3.33,6.21-6.21.79-.66,3.48-2.79,7.06-3.67,2.26-.56,4.57-.54,12.71,1.69,4.2,1.15,7.06,2.1,11.02,3.39,13.08,4.27,12.26,3.86,14.69,4.8,5.35,2.06,9.62,3.74,14.69,7.06,2.26,1.48,5.87,3.88,9.6,7.91,3.9,4.21,5.88,7.97,8.47,12.99,3.05,5.9,4.8,10.79,8.19,20.34,2.43,6.85,3.65,10.28,4.8,14.69,1.16,4.43,2.78,10.77,3.39,19.21.48,6.65.1,11.58-.28,16.66-.55,7.28-.93,12.32-2.82,18.92-2.04,7.13-4.73,12.2-6.21,14.97-1.51,2.81-4.59,8.15-9.6,14.12-4.67,5.55-7.34,8.74-12.15,11.3-2.13,1.13-5.47,1.98-12.15,3.67-5.38,1.36-10.24,2.58-16.95,3.67-5.56.9-9.61,1.27-14.4,1.69-8.68.78-13.01,1.16-18.08.85-5.55-.35-9.69-1.21-14.69-2.26-4.89-1.02-7.39-1.56-9.89-2.82-3.83-1.94-3.88-3.18-9.32-6.5-3.19-1.94-5.93-3.2-8.19-4.24-3.41-1.56-3.68-1.46-8.19-3.39-5.88-2.52-8.47-4.01-10.17-5.08-3.03-1.9-6.6-4.2-6.21-6.21.25-1.3,1.94-1.4,2.54-3.39.32-1.06.35-2.74-.56-3.67-1.24-1.27-3.15-.11-6.21-.56-3.1-.46-5.23-2.24-5.93-2.82-2.48-2.08-3.35-4.87-5.08-10.45-1.12-3.6-1.65-6.45-1.98-8.19-.23-1.25-.78-4.41-1.13-8.76-.46-5.82-.79-9.92,0-14.97,1.05-6.7,2.78-6.9,2.82-12.43.03-4-.87-4.52-.56-8.76.21-2.96.74-4,1.98-9.6,1.56-7.06.89-6.22,1.69-8.76,1.58-4.98,3.22-5.32,7.91-13.84,2.42-4.39,2.24-4.77,4.24-7.91,2.73-4.29,4.32-6.72,7.34-8.47,3.17-1.84,6.43-2.06,9.32-2.26,3.39-.23,4.85.28,9.04-.28,2.7-.36,4.05-.54,5.08-1.13Z"/>
      <path class="cls-1" d="M91.49,107.25c-.17-4.73,2.22-8.18,5.37-12.71,1.37-1.97,1.51-1.82,8.19-9.32,5.25-5.89,5.27-6.1,7.34-8.19,2.57-2.59,5.15-5.17,9.04-7.91,2.7-1.9,5.21-3.67,9.04-5.08,4.97-1.83,9.12-1.94,11.3-1.98,4.43-.08,7.71-.14,11.3,1.69,4.65,2.37,6.88,6.39,8.19,8.76,1.59,2.86,2.3,6.37,3.67,13.28,1.59,8.02,2.38,12.1,1.98,15.82-.59,5.47-2.49,9.46-3.39,11.3-2.5,5.13-5.56,8.32-7.63,10.45-3.02,3.1-5.66,5.82-10.17,7.63-3.73,1.5-6.91,1.64-8.47,1.69-6.87.25-12.18-2.19-14.12-3.11-4.81-2.27-5.14-3.87-9.6-5.08-3.41-.92-3.88-.17-7.34-1.13-1.91-.53-6.08-1.74-9.6-5.37-1.06-1.09-4.88-5.02-5.08-10.73Z"/>
      <path class="cls-1" d="M144.63,131.38c.2,2.34.32,8.94-2.4,11.2-.54.44-1.44,1.04-8.04,1.86-4.52.57-6.78.85-8.28.7-5.29-.54-9.18-3.11-10.26-3.85-2.74-1.85-2.87-2.83-6.18-4.78-2.63-1.55-2.92-1.15-5.34-2.61-1.43-.86-4.32-2.64-6.68-5.95-1.53-2.15-2.23-4.09-3.05-6.39-1.36-3.79-.75-4.04-2.03-7.12-.55-1.32-.57-1.06-3.34-6.39-1.6-3.09-1.84-3.65-2.03-4.5-.29-1.3-.39-2.9.29-6.1,1.13-5.27,2.3-5.13,2.9-8.71.83-4.96-1.16-6.73.58-9.44.36-.57,1.85-1.5,4.79-3.34,2.37-1.48,4.32-2.61,8.13-4.79,2.51-1.44,3.14-1.79,4.21-2.18,2.33-.85,4.33-1.06,5.37-1.16,1.82-.18,6.9,1.17,8.15,1.29"/>
      <path class="cls-1" d="M36.59,124.79c2.27.57,6.77,1.41,10.78,1.2,1.12-.06,4.43-.29,8.53-1.6,3.83-1.22,6.56-2.92,11.86-6.27,4.26-2.69,7.4-5.01,10-6.93,3.28-2.44,7.45-5.62,9.36-7.18"/>
      <path class="cls-1" d="M36.41,107.81c2.84.22,9.57.42,15.21.14,6.6-.33,6.21-.94,13.88-1.37,5.08-.28,8.43-.19,13.71-1.37,1.9-.42,6.89-1.71,7.91-2.03"/>
      <path class="cls-1" d="M37.77,102.34c1.6.34,6.63,1.43,9.73,1.67,4.09.31,5.12-.07,10.28,0,6.04.08,6.68.63,11.14.51,3.88-.1,15.8-1.13,17.85-1.54"/>
      <path class="cls-1" d="M40.17,79.11c1.72.74,6.92,3.8,10.24,5.03,6.26,2.32,7.02,2.14,12.34,4.11,2.65.98,8.4,3.22,13.2,5.31,2.53,1.1,4.78,2.16,7.88,2.23.85.02,3.87-.38,3.91-.17.07.37-5.12,1.7-7.85,2.23-3.83.74-6.81.59-10.97.34-3.2-.19-5.78-.34-9.25-1.03-4.9-.97-8.45-2.4-10.97-3.43-2.38-.97-6.74-3.58-10.09-5.52"/>
      <path class="cls-1" d="M46.08,61.28c1.17,1.37,4.31,4.74,6.37,6.84,2.53,2.59,4.53,4.37,7.15,6.69,3.95,3.5,5.92,5.25,7.45,6.23,1.44.92,4.74,3.01,9.43,4.26,3.27.88,4.98.75,9.73,2.13,1.71.5,3.1.98,4,1.31"/>
      <path class="cls-1" d="M49.18,56.33c1.58,2.28,4.87,5.97,7.37,8.59,2.22,2.32,2.71,2.48,6.39,6.08,3.63,3.56,3.87,4.12,6.84,6.84,4.1,3.76,5.65,4.55,6.84,5.02,1.25.49,2.61.78,5.32,1.37,2.39.51,6.86,1.4,8.25,1.61"/>
      <path class="cls-1" d="M52.07,50.95c1.62,1.67,5.16,4.97,7.52,7.75,1.82,2.13,2.01,2.5,3.34,3.95,2.65,2.9,3.22,2.95,6.69,6.39,3.21,3.18,3.47,3.88,5.47,5.17,1.67,1.08,3.12,2.01,5.17,2.13,2.03.12,2.54-.68,4.87-.3,0,0,1.41.99,4.53,1.84l-1.04-.93"/>
      <path class="cls-1" d="M56.09,44.05c.61,1.38,2.71,5.01,4.41,7.2.72.92,1.5,1.81,6.54,6.23,3.82,3.36,5.74,5.04,7.15,6.08,3.13,2.31,3.83,2.38,5.78,4.26,2.11,2.04,2.3,2.93,4.26,4.87,1.36,1.34,4.59,4.81,7.26,6.18"/>
      <path class="cls-1" d="M67.04,36.22c.27,1.47.84,4.54,1.57,6.75,1.66,5.04,3.83,8.45,4.32,9.22,2.13,3.3,4.23,5.39,5.9,7.06,2.96,2.95,4.58,4.57,7.34,6.05,2.02,1.09,3.38,1.41,5.33,3.02,1.62,1.34,4.48,6.01,5.12,6.99"/>
      <path class="cls-1" d="M75.03,35.76c1.56-.26,6.06,1.34,8.27,2.6,1.67.96,2.81,3,5.04,7.06,1.07,1.94,2.19,3.98,3.46,6.91,1.35,3.13,1.44,3.96,2.59,5.18,1.67,1.78,3.11,1.76,5.18,3.02,1.68,1.03,4.85,5.55,6.54,9.27"/>
      <path class="cls-1" d="M90.46,26.49c2.17,6.06,5.08,11.97,6.22,14.32.46.95,1.75,3.56,3.46,6.77,1.35,2.54,1.34,2.39,2.02,3.74,2.55,5.08,1.89,5.45,3.46,7.49,1.46,1.91,2.44,2.11,4.03,4.61.7,1.1,1.16,4.04,1.44,4.71"/>
      <path class="cls-1" d="M94.91,21.24c.61,1.64,3.19,7.01,4.37,10.06,4.44,11.48,4.57,10.91,5.76,14.69,2.13,6.77,1.68,8.57,4.18,14.11,1.17,2.59,3.24,6.42,4.06,7.72"/>
      <path class="cls-1" d="M111.77,23.3c.47,2.61,1.24,9.11,1.77,13.34.64,5.15.96,7.73,1.01,10.8.02,1.36-.01,2.19-.72,14.98-.01.2-.08,5.2-.1,5.4"/>
      <path class="cls-1" d="M113.24,23.08c1.01,3.59,3.07,9.63,3.61,14.28.28,2.41.38,4.44.58,8.5.22,4.58.39,8.1.14,12.67-.14,2.74-1.07,8.11-1.25,9.6"/>
      <path class="cls-1" d="M122.75,14.66c1.71,5.38,3.7,12.64,3.46,15.64-.27,3.45-.96,4.4-1.15,8.93-.13,3.11.07,5.44.43,9.65.43,5.02.99,7.85,1.15,8.64.4,1.96,1.71,6.07,2.04,7.24"/>
      <path class="cls-1" d="M140.04,15.11c.74,3.38,1.17,8.48,1.29,10.58.24,4,.37,6.35-.58,9.22-.93,2.81-1.68,2.41-3.17,5.9-.45,1.05-2,4.79-2.16,9.5,0,.13,0,.05,0,6.48,0,.19,0,5.67,0,5.86"/>
      <path class="cls-1" d="M146.91,17.19c.24,4.25.13,11.37-.11,14.26-.17,2.04-.41,4.73-1.15,8.21-.66,3.11-1.66,6.5-2.16,8.21-.63,2.13-1.29,4.22-1.44,7.2-.05,1.03-.31,6.42-.28,6.99"/>
      <path class="cls-1" d="M156.6,20.34c.69,4.09.16,10.09-.43,11.83-1.05,3.07-2.92,5.43-4.9,7.92-1.82,2.29-3.04,3.36-4.61,6.05-.91,1.56-4.09,6.3-4.46,7.25"/>
      <path class="cls-1" d="M167.01,23.88c-.97,3.43-3.13,6.97-4.22,8.5-2.14,3.01-3.41,3.19-4.59,5.89-1.27,2.88-.35,3.89-1.72,6.75-1.1,2.28-2.33,2.96-3.88,4.74-1.64,1.88-3.98,7.21-5,12.2"/>
      <path class="cls-1" d="M174.96,27.4c-2.05,2.08-7.03,7.03-9.58,11.58-1.63,2.91-2.29,4.82-3.16,6.75-1.72,3.8-7.66,11-13.99,16.52"/>
      <path class="cls-1" d="M154.1,64.33c2.04-.16,8.28-2.37,10.99-4.39,1.94-1.44,2.58-2.78,5.17-6.03,0,0,2.45-3.08,6.17-6.89,2.24-2.29,8.05-5.85,12.79-8.98"/>
      <path class="cls-1" d="M194.54,45.22c-4.26,1.83-10.2,4.24-12.37,5.68-2.17,1.44-3.37,2.44-6.75,4.74-2.69,1.82-8.82,3.38-10.34,4.31"/>
      <path class="cls-1" d="M160.37,70.96c3.69.22,9.9.28,11.75-.25,2.63-.75,3.48-1.5,10.48-4.74,2.92-1.35,4.41-2.04,5.6-2.44,4.2-1.43,11.7-2,14.13-1.95"/>
      <path class="cls-1" d="M163.49,78.9c3.87.53,9.26,1.6,11.5,1.43,3.34-.26,5.49-.45,7.9-1.72,2.13-1.13,1.85-1.72,4.88-3.88,1.86-1.33,4.25-3.03,7.61-3.88,1.46-.37,7-.99,10.14-.51"/>
      <path class="cls-1" d="M164.44,83.34c2.51,1.5,10.01,4.49,15.86,3.16,3.3-.75,6.66-2.76,7.32-3.16,2.88-1.72,2.72-2.29,5.6-3.88,4.12-2.26,7.27-2.65,8.04-2.73,1.61-.17,5.38-.7,6.3-.6"/>
      <path class="cls-1" d="M208.97,82.05c-2.95.22-8.31.46-11.3.72-2.17.18-6.89-.27-9.03-.07"/>
      <path class="cls-1" d="M166.38,93.47c2.36,1.02,8.31,2.77,12.92,3.08,5.64.39,9.94-.81,11.48-1.29.22-.07,0,0,5.02-2.01,5.77-2.31,8.72-3.44,11.77-2.73.88.21,4.27,1.98,4.71,2.19"/>
      <path class="cls-1" d="M166.68,103.24c3.96.7,9.62,1.5,12.19,1.64,2.04.11,4.95.2,8.47,0,3.62-.21,5.47-.33,7.47-1.15,1.81-.74,2.19-1.32,4.31-2.01,2.14-.69,3.88-.8,5.17-.86,1.72-.09,6.46.46,9.51,1.21"/>
      <path class="cls-1" d="M164.44,110.89c4.08.23,10.03,1.09,12.27,1.02,4.76-.14,5.39-.47,8.76-.29,3.9.21,4.48.73,7.75.57.93-.04,2.68-.27,6.17-.72,4.09-.53,4.66-.66,5.89-.57,1.58.12,6.71.91,9,2.21"/>
      <path class="cls-1" d="M213.53,121.48c-4.35-.21-10.53,1.47-12.7.62-2.89-1.12-3.45-1.89-6.6-2.87-3.05-.95-5.57-1.19-8.18-1.44-2.12-.2-3.95-.23-7.61-.29-4.69-.08-5.91.06-8.47-.29-2.28-.31-5.26-3.97-6.45-4.33"/>
      <path class="cls-1" d="M162.17,115.39c.87,1.69,7.19,7.43,10.24,9.01.67.35,2.01.96,7.03,1.44,6.42.61,7.28-.09,11.48.57,3.45.54,3.83,1.17,8.33,2.3,4.54,1.14,11.38,1.19,13.82,1.36"/>
      <path class="cls-1" d="M157.19,121.99c.16,1.9.79,10.15,3.73,13.04,1.44,1.41,2.97,2.15,4.16,2.73,2.64,1.28,4.25,1.35,7.61,2.15,1.67.4,4.84,1.16,8.18,2.58,5.11,2.18,5.31,3.66,9.04,4.45,1.03.22,1.89.29,6.75.14,3.63-.11,9.74-.89,12.59-1.06"/>
      <path class="cls-1" d="M151.31,127.69c.43,1.31,1.11,5.14,2.15,7.19.8,1.57,1.5,2.65,5.74,8.33,3.98,5.32,4.63,6.06,6.03,6.6,2.07.81,2.5-.09,5.89.57.97.19,2,.47,7.47,3.01,6.07,2.82,6.03,3.04,7.47,3.3,2.43.44,3.14-.08,7.61,0,2.56.05,9.29-.26,10.67-.09"/>
      <path class="cls-1" d="M148.79,129.45c.56,2.55,2.15,9.06,4.38,13.04,1.97,3.52,4.01,5.81,6.03,8.04,3.61,4,6.82,6.48,10.34,9.19,3.84,2.95,6.59,5.06,10.77,7.18,4.51,2.28,11.08,3.38,13.88,4.05"/>
      <path class="cls-1" d="M143.41,141.02c1.38,1.78,5.57,5.05,8.33,8.5,3.28,4.1,4.32,5.32,6.46,8.18,4.18,5.59,5.56,8.14,6.17,9.33,1.31,2.53,2.09,4.59,2.58,5.89,1.51,3.99,2.76,9.59,3.27,12.16"/>
      <path class="cls-1" d="M142.23,142.58c1.31,1.79,3.88,5.48,5.8,9.08,1.11,2.07,1.16,2.42,2.27,4.54,2.57,4.9,3.6,5.54,6.06,9.84,2.41,4.23,3.79,7.79,4.54,9.75,1.25,3.26,2.66,8.58,3.23,10.79"/>
      <path class="cls-1" d="M141.27,143.42c.85,4.54,1.94,9.45,2.5,12.02.85,3.9,1.3,5.71,1.89,9.18.43,2.56.82,4.89,1.04,8.04.17,2.5.34,4.99,0,8.23-.33,3.15-2.02,6.98-2.62,8.82"/>
      <path class="cls-1" d="M135.76,144.23c.59,1.93,1.81,6.37,2.52,9.79.61,2.95.65,3.86,1.51,8.71,1.2,6.73,1.3,5.94,1.61,8.52.59,4.92.03,6.11.66,10.88.37,2.81.94,6.13,1.34,7.59"/>
      <path class="cls-1" d="M131.2,145.18c2.2,6.08,1.88,10.73,1.03,13-.25.67-.83,1.98-1.42,4.07-.23.8-.64,2.4-1.14,5.87-.25,1.76-.58,4.11-.76,7.29-.05.95-.09,1.89-.09,9.94,0,1.5,0,4.94,0,5.79"/>
      <path class="cls-1" d="M123.35,144.71c.25,1.81.3,6.3.17,9.5-.04.92-.12,2.23-.76,6.72-1.1,7.74-1.37,7.49-1.51,10.22-.25,4.7.42,8.14.66,9.27.83,3.9,2.12,6.47,2.56,7.29.4.76,1.75,3.09,2.02,3.52"/>
      <path class="cls-1" d="M116.41,141.92c1.03,5.02.01,10.33-.56,12.95-.38,1.76-1.12,4.21-2.08,7.38-1.2,3.97-1.52,4.6-1.8,6.44-.24,1.54-.19,3.43-.09,7.19.11,4.58.34,6.04,0,8.9-.19,1.59-.82,4.12-1.02,4.94"/>
      <path class="cls-1" d="M111.75,138.06c-.4,3.76-2.21,7.58-3.19,9.43-1.69,3.2-2.89,3.48-4.54,6.91-1.05,2.18-1.49,4.13-2.37,8.04-.56,2.5-1.08,4.82-1.32,7.95-.21,2.77-.02,3.68,0,8.71.01,2.92-.05,6.75-.1,8.26"/>
      <path class="cls-1" d="M103.53,133.53c-.63,2.11-3.06,6.97-5.18,9.98-1.26,1.79-1.73,1.98-5.02,5.77-1.32,1.52-2.84,3.41-5.87,7.19-3.68,4.59-4.36,5.54-5.02,7.19-.62,1.53-.96,3.01-1.42,5.02-.54,2.35-.86,5.49-1.04,6.92"/>
      <path class="cls-1" d="M96.8,126.96c-.31,1.31-1.96,4.79-2.91,6.8-.71,1.5-1.7,3.61-3.6,5.58-2.23,2.33-3.08,1.74-6.15,4.35-2.28,1.94-3.66,3.83-4.73,5.3-2.04,2.8-3.17,5.2-3.88,6.72-.34.73-1.34,2.93-2.27,5.96-.66,2.15-1.69,6.82-2.11,10.24"/>
      <path class="cls-1" d="M94.92,122.97c-2.61,2.22-6.87,5.25-8.12,6.63-3.14,3.48-3.85,5.1-6.62,6.91-.9.59-2.46,1.21-5.58,2.46-2.72,1.09-5.48,2.18-9.27,3.31-3.06.91-4.68,1.39-7.1,1.8-3.84.64-5.53.39-9.65,1.23-1.92.39-5.29,1.68-6.27,1.98"/>
      <path class="cls-1" d="M90.23,110.34c-.94,4.05-4.03,8.68-5.04,10.84-1.25,2.68-2,4.26-3.6,5.96-.91.97-1.91,1.8-6.72,4.54-3.04,1.74-5.51,3.05-7.1,3.88-4.48,2.35-5.96,2.99-9.84,5.11-1.65.9-3.84,3.47-4.72,3.98"/>
    </g>
  </g>
</svg>