<?xml version="1.0" encoding="UTF-8"?>
<svg id="Layer_2" data-name="Layer 2" xmlns="http://www.w3.org/2000/svg" viewBox="0 0 209.81 185.24">
  <defs>
    <style>
      .cls-1 {
        fill: none;
        stroke: #f68a1f;
        stroke-miterlimit: 10;
      }
    </style>
  </defs>
  <g id="Layer_2-2" data-name="Layer 2">
    <g>
      <path class="cls-1" d="M1.48,33.07c-2.6-6.83.73-13.26,1.36-14.46,2.47-4.76,6.28-7.14,8.58-8.58,4.53-2.84,5.78-1.84,16.26-5.87,5.46-2.1,5.77-2.62,8.58-3.16,4.27-.83,7.82-.46,12.2,0,4.28.45,6.73.7,9.94,1.81,5.51,1.9,6.27,3.9,10.84,4.97,3.14.73,5,.32,9.04,0,11.25-.89,11.33,1.2,21.68.45,8.22-.6,8.88-1.97,16.26-1.81,2.54.06,5.15.34,10.39.9,8,.86,12,1.3,13.55,1.81,2.84.94,3.96,1.9,16.26,12.2,8.56,7.17,9.12,7.63,10.39,8.58,5.47,4.13,6.45,4.21,14.91,9.94.71.48,5.75,4.24,15.81,11.75,4.34,3.23,7.65,5.77,9.94,10.39.98,1.97,2.01,4.06,1.81,6.78-.36,4.92-4.5,8.17-9.04,11.75-2.48,1.95-5.24,4.09-9.49,5.42-2.22.7-4.73,1.14-11.75.9-9.28-.31-13.93-.47-17.62-1.81-3.11-1.13-1.9-1.29-15.36-9.94-6.88-4.42-7.41-4.52-10.39-6.78-5.87-4.44-6.23-5.91-9.49-7.23-4.49-1.82-6.83-.26-14,0-3.54.13-12.14.43-20.33-3.16-7.91-3.48-8.23-7.44-16.26-9.49-2.18-.56-4.92-.67-10.39-.9-2.01-.08-5.94-.22-17.17,0-6.22.12-13.95.34-21.23-.45-.83-.09-1.8-.21-2.97-.41-1.24-.21-6.61-1.11-11.03-3.21-3.28-1.56-8.96-4.25-11.29-10.39Z"/>
      <path class="cls-1" d="M23.8,46.66c1.77,2.36,9.19,15.17,10.32,16.54,3.19,3.84,4.79,5.76,7.11,7.7,2.22,1.86,2.6,1.72,5.04,3.85,2.58,2.27,3.88,3.4,4.74,5.04,1.71,3.24,0,4.51,1.19,9.48.42,1.75,1.46,3.83,3.56,8,1.55,3.08,1.84,3.37,4.15,7.7,2.56,4.79,2.43,4.87,5.04,9.78,2.67,5.04,2.93,5.19,4.44,8.3,1.45,2.97,2.54,5.22,3.56,8.3.32.98,1.42,4.43,2.07,9.48.22,1.68.38,3.47.3,14.82-.05,6.93-.13,9.11.89,12.45.71,2.32,1.37,4.5,3.26,6.52,2.38,2.55,4.05,2,10.37,5.04,4.93,2.37,4.97,3.21,8.3,4.15,2.39.68,5.52,1.56,8.89.3,2.99-1.12,4.68-3.37,5.93-5.04,1.84-2.46,2.59-4.71,3.26-6.82,1.85-5.78,1.55-10.6,1.48-11.56-.17-2.3-.52-3.28-2.96-11.26-2.19-7.15-3.29-10.73-3.56-11.85-1.91-7.91-2.06-13.64-2.07-15.7-.04-5.09-.06-7.63,1.19-10.67,1.43-3.46,3.64-5.52,8-9.48,4.55-4.13,4.82-3.48,10.96-8.59,5.32-4.43,6.64-6.19,10.96-8.89,2.75-1.71,9.51-4.11,11.16-4.81"/>
      <path class="cls-1" d="M33.61,47.55c1.56,2.91,3.67,8.26,4.8,9.67,2.86,3.58,3.93,3.71,5.25,6.46.83,1.74.95,2.83,2.42,5.86.64,1.31,1.22,5.8,1.62,6.48"/>
      <path class="cls-1" d="M43.5,47.55c1.73,1.97,4.91,8.68,7.03,12.9,1,2.01,1.26,2.91,3.03,7.67,3.69,9.93,3.83,9.35,5.66,14.74,2.06,6.07,3.64,11.51,3.64,11.51,1.02,3.52,1.7,6.14,3.64,9.29,1.35,2.2,2.8,3.81,3.84,4.85"/>
      <path class="cls-1" d="M51.7,47.55c3.05,3.32,5.97,8.64,7.11,10.88,1.59,3.13,2.38,5.78,3.43,9.29.97,3.22,1.59,6.03,2.22,8.89.65,2.94.76,3.76,1.41,6.67.7,3.1,1.36,5.61,1.82,7.27"/>
      <path class="cls-1" d="M65.18,47.52c3.63,4.72,8.08,11.76,8.98,14.74.99,3.27.95,4.93,2.42,10.5,1.26,4.79,1.69,5.06,2.83,9.09,1.49,5.28,3.21,13.44,3.03,23.02-.05,2.79-.25,5.05-.4,6.46"/>
      <path class="cls-1" d="M78,49.19c1.29,2.98,2.71,8.1,3.02,9.85.91,5,.45,9.18,0,13.33-.25,2.31-1.38,8.24-1.62,9.49"/>
      <path class="cls-1" d="M88.56,56.21c-.27,5.23-1.13,12.8-1.07,15.95.09,4.34.28,5.56.4,10.7.13,5.35.06,9.36,0,12.32-.15,7.69-.24,11.63-1.01,16.36-.52,3.18-1.15,5.76-1.62,7.47"/>
      <path class="cls-1" d="M96.39,59.53c.76,6.19.64,13.98.59,17.47-.1,6.19-.66,6.64-.81,14.14-.14,7,.31,8.8-.2,13.94-.43,4.36-1.23,7.86-1.82,10.1"/>
      <path class="cls-1" d="M74.16,95.39c.62,3.52,1.17,7.23,1.62,11.11.24,2.14.44,4.22.61,6.26"/>
      <path class="cls-1" d="M110.71,61.12c-.37,2.49-1,9.86-2.02,14.48-.99,4.44-1.48,5.75-2.83,11.51-1.44,6.16-2.17,9.24-2.42,11.51-.57,5.06-.18,7.59-1.21,13.94-.3,1.82-.6,3.3-.81,4.24"/>
      <path class="cls-1" d="M132.48,65.76c-1.05,1.02-6.56,6.16-8.23,8.22-2.92,3.6-3.37,5.12-6.46,9.9-1.75,2.7-1.19,1.57-8.28,11.31-3.47,4.76-5.93,6.26-6.3,6.07-.8-.41,3.93-8.32,4.68-10.11,3.35-8.05,6.81-13.99,8.48-16.76,1.67-2.76,4.97-9.77,8.03-13.88"/>
      <path class="cls-1" d="M102.23,112.56c2.78-4.01,9.33-15.52,11.31-17.37,4.35-4.07,5.71-3.94,10.1-8.28,3.63-3.6,3.93-4.9,7.27-7.67,2.95-2.45,8.89-6,10.81-6.9"/>
    </g>
  </g>
</svg>