<?xml version="1.0" encoding="UTF-8"?>
<svg id="Layer_2" data-name="Layer 2" xmlns="http://www.w3.org/2000/svg" viewBox="0 0 165.89 200.5">
  <defs>
    <style>
      .cls-1 {
        stroke: #f68a1f;
      }

      .cls-1, .cls-2 {
        fill: none;
        stroke-miterlimit: 10;
      }

      .cls-2 {
        stroke: #f68920;
      }
    </style>
  </defs>
  <g id="Layer_2-2" data-name="Layer 2">
    <g>
      <path class="cls-1" d="M28.85,25c2.84-3.38,7.3-7.99,13.7-12.17,5.57-3.65,10.26-5.43,14.71-7.1,9.31-3.49,15.68-5.87,23.84-5.07,5.55.54,9.29,2.31,16.23,5.58,9.13,4.31,15.51,8.95,19.78,12.17,3.49,2.63,7.49,5.67,12.09,10.46,1.96,2.04,2.3,2.6,9.91,12.14,8.2,10.29,9.08,11.23,11.39,14.61,2.21,3.22,4.49,6.58,6.94,11.39,1.56,3.08,3.93,7.8,5.7,14.37.91,3.36,2.5,10.34,2.23,19.32-.19,6.35-.37,10.5-2.97,15.11-1.17,2.07-3.33,5.78-7.93,7.93-4.93,2.31-9.59,1.37-11.15.99"/>
      <path class="cls-1" d="M28.85,25c-2.55,3.1-9.15,10.15-10.86,12.29-2.76,3.44-3.4,4.29-4.21,5.7-2.07,3.6-3.06,7.11-3.22,7.68-.99,3.56-.56,4.35-1.73,6.19-1.24,1.94-2.06,1.57-4.21,3.96-.9,1-2.85,3.21-3.72,6.44-.53,1.99-.43,3.53-.25,6.19.24,3.57.88,4.27.99,7.68.05,1.43-.07,1.25-.25,4.95-.25,5.08-.37,7.62,0,9.16.74,3.06,2.5,6.14,2.97,6.94.39.66.9,1.45,1.49,2.72.45.97.91,2.13,1.49,4.21,1.34,4.82.8,5.42,1.73,6.19,1.2.99,2.21.06,5.7.74,2.22.43,3.6.7,4.71,1.73,2.12,1.98.69,4.38,2.72,8.17.28.52,1.45,2.61,3.72,4.21,2.53,1.79,3.81,1.12,8.92,2.97,3.08,1.11,4.62,1.67,5.7,2.97,1.75,2.11.91,3.72,2.72,5.7,1.52,1.66,3.53,2.08,5.45,2.48,3.51.73,6.43.04,8.67-.5,2.17-.52,4.19-1.3,5.94-1.98,1.24-.48,4.47-3.39,5.19-3.71"/>
      <path class="cls-1" d="M68.25,102.28c-.86-1.13-6.88-7.01-7.92-9.01-2.08-4.02-2.78-7.42-2.97-8.42-.55-2.88-.97-5.11-.25-7.93.62-2.4,1.77-4.07,2.72-5.45.96-1.38,2.25-3.25,4.46-4.71.85-.56,2.22-1.32,6.94-2.23,2.23-.43,5.6-.98,10.16-1.24.77-.04,3.91-.03,10.16,0,4.42.02,6.67.05,8.67.99,1.11.52,2.14,1.34,4.21,2.97,1.63,1.29,3.47,2.74,5.45,4.95,1.26,1.4,2.7,3.02,3.96,5.45,1.22,2.35,2.83,5.46,2.23,9.16-.51,3.14-2.37,5.16-4.46,7.43-2.71,2.95-9.56,6.29-11.63,7.29"/>
      <path class="cls-1" d="M70.74,139.59c1.23,3.6,1.99,9.42,2.23,11.64.3,2.8.48,4.57,0,6.94-.53,2.59-1.58,4.51-1.24,4.71.39.22,1.53-2.43,4.46-3.72,1.14-.5,1.23-.22,3.47-.74,3.6-.84,3.95-1.72,6.69-2.23.97-.18,3.02-.54,5.45,0,2.07.46,3.56,1.39,5.7,2.72.94.59,2.43,1.58,4.71,2.72,1.69.85,2.12.92,2.48.74.84-.42.63-1.92.74-6.19,0-.17.07-2.5.25-4.95.17-2.3.3-4.03.74-6.19.39-1.89,2.06-5.89,2.43-6.93"/>
      <path class="cls-1" d="M144.24,124.92c-1.04.99-3.48,4.23-4.39,4.75-2.23,1.29-3.36,1.21-4.21,2.48-.85,1.26-.15,1.96-.99,2.97-1.24,1.48-3.87,1.31-4.95,1.24-2.4-.16-3.08-1.03-3.96-.5-1.34.81-.28,3.12-1.73,4.46-.93.85-2.26.74-4.71.5-1.59-.16-6.8-2.02-9.41-2.97"/>
      <path class="cls-1" d="M72.1,161.2c-2.16,3.79-4.98,9.7-5.07,11.58-.12,2.23.25,4.05.99,7.68.88,4.32,1.32,6.48,2.48,8.67.6,1.13,2.63,4.85,6.94,7.43,2.68,1.61,4.95,2,9.16,2.72,3.1.53,5.94,1.02,9.66.5,2.52-.36,5.25-.75,7.93-2.72,3.13-2.32,4.34-5.44,5.2-7.68.33-.85,1.75-4.7,1.49-9.91-.11-2.06-.4-2.81-2.72-12.63-.43-1.82-3.25-3.54-3.47-4.46"/>
      <path class="cls-1" d="M111.85,130.91c.98.04,5.68.89,7.44,1.25,2.6.52,3.39,1.09,4.95.99.82-.05,1.57-.26,4.46-1.98,3.99-2.37,4.23-2.95,6.94-4.46,3.16-1.76,3.45-1.3,5.45-2.72,1.73-1.23,2.72-2.47,4.71-4.95,2.32-2.9,3.86-4.86,4.95-7.93.13-.38.66-1.89.99-3.96.46-2.89.24-5.08,0-7.43-.43-4.15-1.37-7.27-1.73-8.42-.98-3.09-1.33-2.91-2.97-7.18-2.1-5.47-1.61-5.94-3.22-9.16-1.59-3.19-3.4-5.37-4.71-6.94-2.98-3.56-5.79-5.71-6.44-6.19-2.73-2.05-5.34-3.4-6.44-3.96-4.25-2.17-5.45-2-6.69-3.72-1.65-2.28-.52-3.98-2.23-5.45-.33-.28-1.05-.81-5.94-.99-2.74-.1-3.71.02-7.18,0-3.4-.02-5.1-.03-5.94-.25-3.55-.92-4.04-2.79-6.94-2.97-1.9-.12-3.35.58-4.71,1.24-2.82,1.36-3.39,2.83-6.69,5.7-2.3,2-3.77,3.28-5.94,4.21-2.45,1.05-4.88,1.04-9.66.99-4.58-.05-8.38-.43-10.9-.74-5.61-.69-5.78-1.13-10.16-1.49-2.52-.2-5.53-.43-9.41,0-3.45.38-5.72.64-8.42,1.98-4.09,2.04-6.3,5.16-7.18,6.44-2.58,3.74-3.21,7.28-3.72,10.16-1.02,5.74-.27,10.66,0,12.38.28,1.78.56,2.67.99,5.7.46,3.18.69,4.77.74,6.94.12,4.34-.6,5.04.25,6.69.93,1.8,1.97,1.31,4.21,3.72,2.02,2.17,3.03,4.57,3.72,6.19,1.11,2.64.76,3.01,1.73,4.46.7,1.04,1.45,1.7,4.46,3.72,3.46,2.32,5.19,3.49,6.69,4.21,3.44,1.67,3.74,1.07,7.18,2.72,3.98,1.91,3.66,2.76,6.44,3.72,2.77.96,5.04.79,8.92.5,3.75-.28,5.64-.45,6.44-1.73,1.1-1.77-.14-4.61-.99-5.94-1.11-1.75-2-1.63-3.47-3.96-1.13-1.79-1.42-3.16-1.49-3.47-.3-1.49-.15-2.65,0-3.72.47-3.32,1.86-5.72,2.48-6.69.76-1.2,1.05-1.32,3.72-4.21,4.9-5.31,5.25-6.32,7.18-6.94.85-.27.78-.08,5.7,0,4.83.07,4.88-.12,7.68,0,4.59.19,6.88.28,8.92,1.24,2.07.97,3.45,2.46,6.19,5.45,1.89,2.06,3.36,3.65,4.71,6.19,1.22,2.3,1.69,4.14,2.48,7.18.76,2.94.42,2.63,1.49,8.17.91,4.72,1.47,6.65.74,9.41-.3,1.15-.66,2.42-1.73,2.97-2.25,1.15-5.73-1.83-6.19-2.23-1.6-1.38-2.57-2.94-3.96-5.2-1.32-2.14-1.61-3.08-2.97-4.21-.74-.61-2.25-1.86-3.72-1.49-.57.15-.98.5-2.72,3.22-1.91,2.98-2.05,3.54-2.97,4.46-1.06,1.06-2.08,1.51-3.72,2.23-4.21,1.86-5.28.83-8.42,2.48-2.54,1.33-2.98,2.6-4.46,2.48-1.79-.15-4.92-4.61-5.78-6.42"/>
      <path class="cls-1" d="M105.68,98.56c1.29.8,4.47,3.51,6.32,5.27,1.74,1.66,2.77,3.05,4.25,5.04,2.47,3.32,3.7,4.97,4.57,7.4.35.99.37,1.3,1.26,5.98.52,2.75,1.87,9.42,2.17,10.89"/>
      <path class="cls-1" d="M109.53,96.07c2.89,1.73,6.58,4.32,8.29,5.56,3.64,2.63,4.6,3.72,5.04,4.25,1.34,1.61,2.04,3.05,3.31,5.67,1.34,2.77,1.19,3.07,2.68,5.98.84,1.65,1.67,3.07,2.99,4.57.61.69,4.61,3.61,5.01,3.97"/>
      <path class="cls-1" d="M113.44,92.19c2.32.5,5.61,1.84,6.59,2.51.86.59,1.89,1.65,3.94,3.78,1.83,1.9,3.04,3.31,3.31,3.62.96,1.13.94,1.17,2.2,2.68,2.78,3.32,3.39,3.72,3.78,3.94.83.47,1.87.63,3.94.94,1.09.17,2.16.28,6.14.47,1.44.07,6.82.22,7.65.25"/>
      <path class="cls-1" d="M116.2,88.48c3.78,1.34,8.04,3.19,10.13,4.34,1.64.9,2.81,1.54,4.25,2.68,2.27,1.78,2.45,2.57,4.41,4.09,2.22,1.72,4.31,2.5,5.67,2.99,2.99,1.09,9.45,1.37,11.35,1.42"/>
      <path class="cls-1" d="M131.02,95.84c1.81.56,8.44,1.59,11.21,1.69,1.98.07,3.19-.14,3.94-.31.99-.23,4.25-1.98,4.81-2.22"/>
      <path class="cls-1" d="M116.2,83.63c2.67-.54,7.38-.64,8.71-.43,2.41.38,4.21,1.22,5.98,2.05,1.95.91,1.95,1.14,4.72,2.52,1.05.52,2.56,1.27,4.57,2.05,1.34.52,7.84,1.64,10.04,2.21"/>
      <path class="cls-1" d="M112.73,75.77c1.88-1.76,5.96-3.02,6.75-2.98.87.05,1.2.37,4.36,2.28,2.77,1.68,2.63,1.51,4.15,2.49,2.13,1.37,2.09,1.51,3.94,2.7,2.94,1.89,2.83,1.43,4.98,2.91,2.28,1.56,2.95,2.44,4.77,2.91,1.1.28,5.45-.09,6.08-.15"/>
      <path class="cls-1" d="M109.88,72.22c2.9-1.77,6.83-3.87,8.49-4.03.77-.07,3.06.18,7.63.68,3.39.37,4.73.56,6.44.93,1.71.37,7.6.28,8.57.6"/>
      <path class="cls-1" d="M103.02,66.16c2.96-.03,8.86-.96,10.51-.94,2.88.03,5.77-.25,8.65,0,1.84.16,3.5.41,5.43-.42,1.09-.47,3.62-3.17,4.12-3.66"/>
      <path class="cls-1" d="M93.9,63.27c2.05-1.18,6.06-4.51,7.26-5.01,1.97-.81,2.51-.86,5.43-2.03,3.66-1.47,4.35-2.02,4.75-2.37.5-.44,1.82-1.74,2.54-2.46.39-.39,3.22-2.49,3.44-2.71"/>
      <path class="cls-1" d="M83.55,63.27c1.95-1.74,4.08-6.04,4.53-7.2.25-.66.43-1.32,1.05-5.13.28-1.73.5-5.35.66-6.39"/>
      <path class="cls-1" d="M78.35,63.27c.14-1.22.31-5.1.53-6.41.16-1,.84-4.52,1.03-5.45"/>
      <path class="cls-1" d="M71.24,64.54c.38-.6,1.51-3.35,1.69-4.8.11-.89-.44-2.69-.54-3.25"/>
      <path class="cls-2" d="M46.82,54.81c1.24.39,4.41,2.56,6.51,3.38,3.9,1.52,4.87,2.25,5.26,2.55.93.73,4.6,3.6,5.71,6.02"/>
      <path class="cls-2" d="M25.42,56.36c1.49,0,5.44.67,8.08.93,4.63.45,6.95.68,9.02,1.8.56.3,2.63,2.51,6.76,6.91,1.51,1.61,2.66,2.85,4.06,4.66,1.11,1.44,3.48,4.43,4.06,5.33"/>
      <path class="cls-2" d="M14.94,70.71c1.14-.24,4.94-.71,6.79-1.75,2.37-1.33,2.31-2.11,4.47-3.38,3.11-1.83,6.26-2,7.74-2.07,1.65-.08,2.84.09,4.47.33,2.09.3,7.45.88,10.85,2.17"/>
      <path class="cls-2" d="M14,80.82c1.61.08,5.83.4,7.84-.94,2.24-1.49,2.17-3.13,4.58-5.34,2.53-2.32,5.37-3.05,6.65-3.38,2.83-.73,4.91-.48,8.94,0,3.43.41,5.95.74,8.73,2.4,1.57.94,5.29,4.2,5.99,4.94"/>
      <path class="cls-2" d="M14.52,85.34c1.68.92,6.2,2.27,8.74,1.51,2.42-.72,2.85-2.48,5.89-4.8,1.33-1.01,4.51-3.17,8.62-3.82,2.9-.45,5.38.1,10.36,1.2,2.69.59,7.06.97,8.61,1.47"/>
      <path class="cls-2" d="M16.25,97.98c2.97-.83,7.44-1.37,8.75-2.29,1.29-.91,1.37-1.2,5.02-4.47,2.03-1.81,3.11-2.78,4.69-4.04,1.89-1.5,3.42-2.54,4.8-3.49,1.43-.98,5.12-3.23,7.31-4.54"/>
      <path class="cls-2" d="M16.59,103.32c3.01-.8,7.47-1.14,9.18-1.31,2.83-.27,3.85-.09,5.89-.76,2.93-.97,4.69-2.63,5.02-2.94,1.44-1.39,1.09-1.78,2.94-4.36,2.44-3.41,4.92-5.35,5.78-6,1.18-.88,2.14-1.44,3.05-1.96,2.67-1.53,6.57-2.82,8.28-3.4"/>
      <path class="cls-2" d="M26.16,119.03c1.42-.03,8.14-.44,10.41-2.18,1.99-1.53,2.87-3.47,3.71-5.34.92-2.04.63-2.3,1.75-5.67.76-2.28,1.44-4.36,2.84-6.76,1.22-2.1,2.4-3.47,3.93-5.24,2.29-2.65,3.8-3.81,4.25-4.14,1.07-.8,4.16-2.23,4.86-2.61"/>
      <path class="cls-2" d="M38.77,127.61c1.52-.43,6.65-1.92,8.37-3.89,2.08-2.37,1.44-4.03,3.6-9.16,1.59-3.77,2.05-3.14,4.04-7.74,1-2.33,1.4-3.7,2.73-5.56,1.28-1.8,4.44-3.89,5.47-4.66"/>
      <path class="cls-2" d="M49.49,132.78c.66-.52,3.69-2.9,4.42-4.15.95-1.64.5-2.06,1.53-3.93.56-1.02,1.25-1.88,2.62-3.6.4-.51,2.05-2.04,2.29-2.32"/>
    </g>
  </g>
</svg>