<?xml version="1.0" encoding="UTF-8"?>
<svg id="Layer_2" data-name="Layer 2" xmlns="http://www.w3.org/2000/svg" viewBox="0 0 77.21 76.39">
  <defs>
    <style>
      .cls-1 {
        fill: #40793e;
      }

      .cls-1, .cls-2 {
        stroke-width: 0px;
      }

      .cls-2 {
        fill: #d2d3d4;
      }
    </style>
  </defs>
  <g id="Layer_1-2" data-name="Layer 1">
    <path class="cls-1" d="m56.07,0H21.14C9.47,0,0,9.36,0,20.92v34.56c0,11.55,9.47,20.92,21.14,20.92h34.93c11.68,0,21.14-9.36,21.14-20.92V20.92c0-11.55-9.47-20.92-21.14-20.92Z"/>
    <path class="cls-2" d="m35.43,39.68c-1.03-.03-2.06.03-3.08.17-1.48.33-2.78,1.2-3.63,2.44-.85,1.24-1.19,2.76-.96,4.24.22,1.5,1.01,2.86,2.21,3.8,1.2.94,2.71,1.4,4.24,1.28,1.5-.1,2.91-.76,3.94-1.85,1.03-1.09,1.61-2.52,1.62-4.01v-28.18h7.14c.45,6.01,4.01,9.06,9.85,9.87v6.92c-3.49-.04-6.89-1.14-9.74-3.14v14.12c.09,2.75-.7,5.46-2.28,7.74-1.57,2.27-3.84,3.99-6.47,4.89-2.39.97-5.03,1.18-7.55.6-2.52-.58-4.79-1.92-6.5-3.83-1.84-1.76-3.08-4.04-3.57-6.52-.49-2.48-.19-5.06.85-7.37,1.06-2.67,2.97-4.91,5.45-6.38,2.48-1.47,5.38-2.1,8.26-1.77l.26.06-.05,6.92Z"/>
  </g>
</svg>