<?xml version="1.0" encoding="UTF-8"?>
<svg id="Layer_2" data-name="Layer 2" xmlns="http://www.w3.org/2000/svg" viewBox="0 0 91.97 102.62">
  <defs>
    <style>
      .cls-1 {
        fill: #1b2615;
        stroke: #bcb2d6;
        stroke-miterlimit: 10;
        stroke-width: 3px;
      }
    </style>
  </defs>
  <g id="Layer_1-2" data-name="Layer 1">
    <g>
      <path class="cls-1" d="m74.42,18.24c0,2.85-6.5,5.15-14.5,5.15s-14.47-2.3-14.47-5.15c0-1.78,2.55-3.37,6.4-4.28-.05-.28-.07-.57-.07-.85,0-3.11,2.82-5.61,6.3-5.61s6.33,2.5,6.33,5.61h0c.28-.46.86-1.26,1.93-1.91.64-.39,1.37-.83,2.27-.83,2.33,0,4.22,2.35,4.22,5.22,0,.09,0,.2-.02.28,1.03.72,1.62,1.52,1.62,2.37Z"/>
      <path class="cls-1" d="m36.38,32.32c0,3.13-7.8,5.67-17.43,5.67S1.5,35.45,1.5,32.32c0-1.41,1.6-2.72,4.25-3.72.18-1.8,1.62-3.26,3.44-3.48,1.01-2.13,3.18-3.61,5.72-3.61.99,0,1.91.22,2.74.63,1.34-3.11,4.87-5.33,9.03-5.33,5.3,0,9.6,3.61,9.6,8.07,0,1.8-.7,3.48-1.91,4.8,1.27.78,1.99,1.67,1.99,2.63Z"/>
      <path class="cls-1" d="m35.02,15.56c-1.49.35-2.44,1.37-2.97,1.99-5.85,6.77-7.73,11.93-7.73,11.93-1.78,4.89-2.21,9.44-2.16,12.99,0,2.46.01,6.14.03,10.6.04,9.79.1,16.31.17,24.65.04,5.56.1,13.49.16,23.18,0,0,26.48.1,26.48.1.06-11.53.09-20.98.1-27.52.03-17.55,0-37.17,0-37.17,0,0-.16-1.98-.18-2.15-.24-2.68-2.56-6.52-2.56-6.52-5.62-9.3-6.41-11.52-9.14-12.06-.29-.06-1.16-.25-2.2,0Z"/>
      <path class="cls-1" d="m5.25,78.56h0s-.09-5.1-.15-9.64c-.11-7.83-.13-11.79,2.06-13.88.11-.11.66-.62,1.51-1.1,1.63-.92,2.98-.95,7.76-.95,2.78,0,5.77,0,5.77,0h0s.33,47.98.33,47.98h0s-4.34.04-8.8.02c-4.17-.02-8.28-.08-8.28-.08h0s-.19-22.35-.19-22.35Z"/>
      <path class="cls-1" d="m49.26,75.85h0s-.07-5.73-.13-10.83c-.09-8.8-.11-13.24,1.7-15.59.09-.12.54-.69,1.24-1.24,1.34-1.04,2.46-1.07,6.4-1.07,2.3,0,4.76,0,4.76,0h0s.27,53.89.27,53.89h0s-3.58.05-7.26.03c-3.44-.02-6.84-.1-6.84-.09h0s-.15-25.1-.15-25.1Z"/>
      <path class="cls-1" d="m76.92,18.82h0s-4.56-.47-6.61.88c-1.32.87-2.53,3.11-1.62,9.36,0,0-2.53,2.48-3.25,3.28-2.11,2.36-2.19,5.55-2.18,12.49,0,2.37.01,5.9.03,10.19.04,9.41.1,15.68.17,23.7.04,5.35.1,12.97.16,22.29,0,0,26.73.09,26.73.09.06-11.09.09-20.17.1-26.47.03-16.88,0-35.74,0-35.74,0,0-.16-1.9-.18-2.07-.1-1.11-.42-4.39-2.58-6.27-.93-.81-2.59-1.7-2.59-1.7.5-6.45-.75-8.81-2.25-9.6,0,0-.65-.34-5.93-.44h0s.06-4.81.09-8.17c.06-6.18.04-10.64.04-10.64s.01,4.46-.04,10.64c-.03,3.42-.09,8.17-.09,8.17Z"/>
      <g>
        <rect class="cls-1" x="69.05" y="35.37" width="5.29" height="5.24"/>
        <rect class="cls-1" x="79.48" y="35.33" width="5.29" height="5.24"/>
        <rect class="cls-1" x="69.05" y="45.99" width="5.29" height="5.24"/>
        <rect class="cls-1" x="79.48" y="45.99" width="5.29" height="5.24"/>
        <rect class="cls-1" x="69.05" y="56.65" width="5.29" height="5.24"/>
        <rect class="cls-1" x="79.48" y="56.65" width="5.29" height="5.24"/>
      </g>
      <g>
        <rect class="cls-1" x="69.13" y="67.23" width="5.29" height="5.24"/>
        <rect class="cls-1" x="79.56" y="67.2" width="5.29" height="5.24"/>
        <rect class="cls-1" x="69.13" y="77.86" width="5.29" height="5.24"/>
        <rect class="cls-1" x="79.56" y="77.86" width="5.29" height="5.24"/>
        <rect class="cls-1" x="69.13" y="88.52" width="5.29" height="5.24"/>
        <rect class="cls-1" x="79.56" y="88.52" width="5.29" height="5.24"/>
      </g>
      <rect class="cls-1" x="11.14" y="64.57" width="5.29" height="5.24"/>
      <rect class="cls-1" x="11.14" y="75.23" width="5.29" height="5.24"/>
      <rect class="cls-1" x="11.14" y="85.89" width="5.29" height="5.24"/>
      <rect class="cls-1" x="26.67" y="48.61" width="18.13" height="6.01"/>
      <rect class="cls-1" x="26.57" y="36.5" width="18.13" height="6.01"/>
      <rect class="cls-1" x="26.67" y="60.73" width="18.13" height="6.01"/>
      <rect class="cls-1" x="26.67" y="72.85" width="18.13" height="6.01"/>
      <rect class="cls-1" x="26.57" y="85.51" width="18.13" height="6.01"/>
      <line class="cls-1" x1="54.59" y1="54.66" x2="54.59" y2="100.99"/>
      <line class="cls-1" x1="58.67" y1="54.66" x2="58.67" y2="100.99"/>
    </g>
  </g>
</svg>