<svg width="137" height="189" viewBox="0 0 137 189" fill="none" xmlns="http://www.w3.org/2000/svg">
<path d="M25.8515 90.5058C30.6863 95.1826 34.9703 100.639 38.2751 106.875C39.9275 109.992 41.3351 113.181 42.5591 116.582C43.8443 120.267 44.5787 124.094 45.8639 127.778C47.0879 131.392 49.1075 134.439 51.0047 137.628C51.9839 139.258 52.8407 140.887 53.4527 142.73C54.0647 144.572 54.4931 146.415 54.7379 148.399C55.2887 152.509 55.1051 156.619 55.0439 160.728C54.9827 162.925 54.9215 165.122 54.8603 167.248C54.7991 169.232 54.7991 171.287 54.6155 173.271C54.4319 175.042 54.1259 176.885 53.1467 178.373C52.4123 179.577 51.2495 180.357 50.1479 180.924C47.8223 182.128 45.1295 182.695 42.9875 184.396C42.4979 184.821 42.0083 185.246 41.5799 185.813C41.3351 186.096 41.3963 186.805 41.8247 186.876C44.2115 187.23 46.4759 186.38 48.8015 185.813C49.9643 185.53 51.2495 185.317 52.4123 185.6C53.5751 185.884 54.5543 186.592 55.6559 187.159C56.7575 187.726 57.8591 188.01 59.0219 187.868C60.3071 187.655 61.4699 187.159 62.7551 187.018C65.1419 186.805 67.4675 187.443 69.7931 187.868C72.3023 188.293 74.8727 188.506 77.3207 187.301C77.8103 187.088 77.5655 186.096 77.0759 186.167C73.8935 186.38 71.0171 184.467 69.0587 181.703C66.7943 178.514 65.9375 174.334 65.7539 170.295C65.5091 165.759 66.0599 161.224 66.2435 156.689C66.3047 154.351 66.3047 152.013 66.0599 149.745C65.8151 147.548 65.3255 145.352 65.2031 143.084C65.0807 140.817 65.3255 138.691 66.2435 136.707C67.1003 134.935 68.2631 133.305 69.3647 131.747C71.6903 128.487 74.1383 125.157 77.0759 122.606C78.4835 121.33 79.9523 120.267 81.3599 118.992C82.7063 117.787 83.9915 116.512 85.2767 115.165C86.5619 113.819 87.6635 112.26 88.8875 110.843C89.9891 109.638 91.3967 108.929 92.5595 107.867C93.7835 106.804 94.5791 105.245 95.6807 103.898C96.8435 102.481 98.0675 101.135 99.4139 99.9302C102.107 97.521 105.167 95.5369 108.227 93.7654C108.961 93.3402 109.757 92.915 110.491 92.4899C111.103 92.1356 110.552 91.1435 109.94 91.427C103.575 94.8991 97.4555 99.009 93.1103 105.528C92.1923 106.945 90.7235 107.725 89.4995 108.717C88.0919 109.851 87.0515 111.339 85.8275 112.756C83.2571 115.732 80.4419 118.354 77.4431 120.763C74.3219 123.243 71.7515 126.503 69.3035 129.833C66.9779 133.022 64.4075 136.282 64.0403 140.604C63.8567 142.872 64.2239 145.139 64.5911 147.407C64.9583 149.816 65.2031 152.225 65.1419 154.705C65.1419 159.382 64.4687 164.13 64.5911 168.806C64.6523 172.987 65.2643 177.381 67.2227 180.924C68.8751 183.971 71.5679 186.522 74.6891 187.159C75.4235 187.301 76.2191 187.372 77.0147 187.301C76.9535 186.947 76.8311 186.522 76.7699 186.167C74.6279 187.23 72.3023 187.018 70.0991 186.592C67.8347 186.167 65.5703 185.6 63.3059 185.671C62.1431 185.742 61.0415 186.026 59.9399 186.309C58.6547 186.663 57.5531 186.663 56.3291 186.026C55.2887 185.53 54.3707 184.821 53.2691 184.467C52.1675 184.112 51.0659 184.041 49.9643 184.254C47.3939 184.608 44.8235 186.026 42.1919 185.6C42.2531 185.955 42.3755 186.309 42.4367 186.663C44.2115 184.325 46.9655 183.687 49.4135 182.624C50.6375 182.128 51.8003 181.49 52.7795 180.498C53.8811 179.436 54.6767 178.018 55.1051 176.459C55.5947 174.759 55.7171 172.846 55.7783 171.074C55.8395 168.877 55.9007 166.61 55.9619 164.413C56.0843 160.091 56.2679 155.839 56.0843 151.517C55.9007 147.478 55.2887 143.509 53.6363 139.966C52.0451 136.494 49.7195 133.589 48.0671 130.188C46.3535 126.574 45.6803 122.464 44.4563 118.637C43.3547 115.165 42.0083 111.764 40.4171 108.575C37.2347 102.198 33.1343 96.2455 28.1771 91.6395C27.5651 91.0727 26.9531 90.5058 26.2799 90.0098C25.9739 89.6555 25.6067 90.2223 25.8515 90.5058Z" fill="white"/>
<path d="M108.961 89.7263C106.023 90.5767 103.392 92.4899 100.883 94.474C98.1898 96.5998 95.6194 98.9382 92.9878 101.135C93.2326 101.206 93.4161 101.347 93.6609 101.418C92.9265 99.2925 94.2117 97.025 94.9461 95.1117C95.7417 93.0568 96.4149 91.0018 97.0881 88.9469C98.4345 84.6952 99.5361 80.3728 100.087 75.9086C100.393 73.4284 100.515 70.8775 100.515 68.3974C100.515 67.6888 99.5361 67.6888 99.5361 68.3974C99.7197 77.6092 97.2105 86.5376 94.0281 94.8991C93.2325 96.9541 92.0085 99.3633 92.8041 101.702C92.9265 101.985 93.2325 102.269 93.4773 101.985C96.0477 99.7885 98.6182 97.4501 101.25 95.3243C103.759 93.3402 106.391 91.6396 109.206 90.2932C109.512 90.1515 109.267 89.5846 108.961 89.7263Z" fill="white"/>
<path d="M97.8225 67.4053C98.0061 71.09 97.7001 74.7039 96.7821 78.2469C96.2925 80.0185 95.7417 81.7191 95.0073 83.4198C94.2729 85.0495 93.4162 86.6085 92.6818 88.2383C91.8862 89.868 91.3353 91.5687 90.9069 93.3402C90.4785 95.1117 90.1725 96.9541 89.6829 98.7256C88.8261 101.702 87.4797 104.536 85.8885 107.087C84.2362 109.638 82.2777 111.976 80.1969 114.031C79.0953 115.094 77.9937 116.157 76.8309 117.078C75.7293 118 74.5666 119.063 73.3426 119.842C72.6082 120.267 72.8529 119.063 72.9753 118.567C73.1589 117.574 73.2813 116.582 73.2813 115.59C73.3425 113.748 73.2201 111.835 72.8529 110.063C72.1185 106.379 70.3438 103.119 69.4258 99.5759C67.4062 91.5687 67.7733 83.0655 68.8749 74.8456C68.9973 74.137 68.0182 73.7827 67.8958 74.5622C66.9166 82.1443 66.427 90.0098 67.8958 97.5918C68.263 99.4342 68.7526 101.277 69.3646 103.048C70.0378 104.961 70.8333 106.733 71.3841 108.717C71.9349 110.63 72.2409 112.614 72.2409 114.598C72.2409 115.59 72.1797 116.653 72.0573 117.645C71.9349 118.425 71.7514 119.204 71.8738 119.984C71.935 120.551 72.3022 121.117 72.7918 121.188C73.5262 121.33 74.1381 120.692 74.6889 120.267C75.9129 119.346 77.0758 118.354 78.2386 117.291C80.5642 115.236 82.7674 112.969 84.7258 110.418C86.623 107.937 88.2753 105.174 89.4993 102.198C90.1113 100.568 90.6621 98.9382 91.0293 97.2375C91.4577 95.3243 91.825 93.4111 92.3758 91.5687C92.9878 89.7263 93.8445 88.0965 94.7013 86.3959C95.4969 84.7661 96.2313 82.9946 96.8433 81.2231C98.0061 77.7509 98.7405 73.9245 98.6181 70.098C98.6181 69.1768 98.4957 68.3265 98.3733 67.4053C98.3733 66.9093 97.7614 66.9801 97.8225 67.4053Z" fill="white"/>
<path d="M66.3658 74.4205C64.591 82.5694 64.591 91.2853 65.815 99.5759C66.121 101.631 66.5494 103.686 66.9778 105.741C67.4674 107.796 68.0794 109.851 68.5078 111.976C68.9362 114.031 69.2422 116.157 69.1198 118.283C68.9974 120.125 68.4466 121.897 67.7122 123.527C66.0598 126.999 63.4894 129.833 61.7758 133.305C62.0818 133.376 62.3878 133.376 62.6326 133.447C60.8578 125.723 59.0218 117.787 59.2666 109.709C59.389 105.67 60.0622 101.702 60.307 97.6627C60.5518 93.7654 60.4906 89.8681 60.1846 86.0416C59.8174 81.6483 59.1442 77.2549 58.1038 73.0033C57.9202 72.2947 57.0022 72.5781 57.1858 73.2867C59.0218 80.8688 59.8174 88.8052 59.4502 96.6707C59.2666 100.71 58.5934 104.678 58.4098 108.646C58.2262 112.543 58.5322 116.512 59.083 120.338C59.7562 124.802 60.7354 129.266 61.7758 133.66C61.8982 134.085 62.449 134.227 62.6326 133.801C64.1626 130.684 66.3658 128.133 68.0182 125.086C68.8138 123.598 69.487 122.039 69.8542 120.409C70.2826 118.425 70.2826 116.441 69.9766 114.457C69.4258 110.205 68.0182 106.166 67.2226 101.914C66.427 97.7336 65.9986 93.4111 65.9374 89.1595C65.8762 84.2701 66.3046 79.3807 67.039 74.5622C67.1002 74.1371 66.4882 73.9245 66.3658 74.4205Z" fill="white"/>
<path d="M55.5945 73.9953C56.3901 77.9635 56.0229 82.2151 55.9005 86.2542C55.7781 90.5058 55.6557 94.8283 55.5333 99.0799C55.4721 101.56 55.4109 103.969 55.2885 106.449C55.5945 106.379 55.9617 106.379 56.2677 106.308C54.6765 101.843 52.9629 97.3793 51.4329 92.9151C49.9641 88.6634 48.6789 84.2701 48.6789 79.5933C48.6789 78.8847 47.6997 78.8847 47.6997 79.5933C47.6997 84.2701 48.9237 88.7343 50.4537 92.9859C52.0449 97.5918 53.7585 102.056 55.4109 106.591C55.5945 107.158 56.3901 107.158 56.3901 106.449C56.5125 102.056 56.6349 97.7336 56.7573 93.3402C56.8797 89.0886 57.1245 84.837 57.0633 80.5854C57.0633 79.4516 57.0021 78.3178 56.8797 77.1841C56.7573 76.0503 56.5125 74.9874 56.1453 73.8536C55.9617 73.4993 55.5333 73.5702 55.5945 73.9953Z" fill="white"/>
<path d="M45.8025 79.0264C45.7413 83.1363 46.2921 87.2462 47.0877 91.2853C47.8833 95.3243 48.9849 99.3633 50.3313 103.19C51.0045 105.103 51.8001 107.016 52.4733 108.929C53.1465 110.914 53.6361 112.898 53.8809 115.023C54.4317 119.063 54.3705 123.172 54.8601 127.211C55.3497 131.392 56.0841 135.573 58.1649 139.187C58.4097 138.974 58.7157 138.833 58.9605 138.62C57.0021 135.573 55.1661 132.526 53.5749 129.196C51.9837 125.865 50.8209 122.322 50.0253 118.708C48.3117 111.48 47.6997 103.969 45.8025 96.7415C44.7009 92.7025 43.2321 88.8051 41.2125 85.1913C40.8453 84.5535 40.0497 85.1204 40.3557 85.7581C42.1305 89.0177 43.5381 92.4899 44.5785 96.1746C45.5577 99.7176 46.2309 103.402 46.8429 107.087C48.0669 114.457 49.1685 121.826 52.1673 128.558C53.8197 132.313 55.9005 135.786 58.1037 139.187C58.4709 139.754 59.2665 139.258 58.8993 138.62C54.9825 132.03 55.7169 123.598 54.9213 116.016C54.6765 114.031 54.3705 112.118 53.8197 110.205C53.2689 108.221 52.4733 106.379 51.8001 104.536C50.3925 100.781 49.1685 96.8832 48.3117 92.8442C47.3325 88.3091 46.7817 83.6323 46.2921 79.0264C46.2309 78.6721 45.8025 78.6721 45.8025 79.0264Z" fill="white"/>
<path d="M30.258 89.5846C32.5836 92.0647 34.7868 94.6157 36.7452 97.521C38.7036 100.426 40.4172 103.544 42.0696 106.733C42.9876 108.504 43.9056 110.347 44.8236 112.118C45.1296 112.685 45.7416 112.26 45.6804 111.693C45.4356 109.567 44.64 107.654 44.028 105.67C43.4772 103.969 43.0488 102.127 42.6204 100.355C41.8248 96.8832 41.1516 93.2693 39.8664 89.9389C39.132 88.0965 38.214 86.3959 37.0512 84.9078C36.6228 84.3409 35.9496 85.1913 36.378 85.6873C40.5396 91.0727 40.8456 98.8673 42.8652 105.386C43.5384 107.583 44.334 109.709 44.7624 111.976C45.0684 111.835 45.3132 111.693 45.6192 111.551C42.3756 105.103 39.132 98.513 34.6032 93.1276C33.3792 91.6396 32.0328 90.2932 30.564 89.0886C30.3192 88.9469 30.0132 89.372 30.258 89.5846Z" fill="white"/>
<path d="M58.7772 140.675C60.7356 142.801 60.4908 146.202 60.0012 148.966C59.7564 150.595 59.4504 152.154 59.3892 153.855C59.3892 155.414 59.5728 156.973 59.8788 158.461C60.4908 161.65 61.47 164.697 61.7148 167.956C61.8372 169.586 61.5924 171.287 61.5924 172.916C61.5924 174.334 61.8984 175.751 62.3268 177.026C63.3672 180.002 65.3256 182.483 67.4064 184.608C67.7736 184.963 68.3244 184.396 67.9572 183.971C66.06 181.987 64.224 179.861 63.0612 177.239C62.4492 175.822 62.082 174.263 62.082 172.704C62.082 171.074 62.2656 169.444 62.1432 167.744C61.8984 164.555 61.0416 161.579 60.4908 158.461C60.246 156.831 60.0624 155.201 60.1236 153.501C60.1848 151.8 60.552 150.17 60.7968 148.54C61.2252 145.635 61.2252 142.163 58.9608 140.321C58.7772 140.179 58.5936 140.533 58.7772 140.675Z" fill="white"/>
<path d="M61.4698 183.333C60.6742 182.837 60.307 181.916 60.0622 180.924C59.9398 180.286 59.8786 179.648 59.8174 179.01C59.7562 178.444 59.695 177.806 59.5114 177.31C59.3278 176.885 58.8382 176.743 58.471 177.026C58.0426 177.31 57.9814 177.877 57.9814 178.373C58.0426 179.506 57.7978 180.428 57.3082 181.42C56.7574 182.483 55.9618 183.404 55.2274 184.325C54.9826 184.679 55.3498 185.104 55.6558 184.821C56.941 183.545 58.2262 181.774 58.5934 179.861C58.6546 179.365 58.7158 178.869 58.6546 178.373C58.6546 178.231 58.5934 177.877 58.777 177.806C58.8382 177.806 58.8382 177.806 58.8382 177.877C58.8994 178.018 58.8994 178.16 58.9606 178.302C59.2054 179.436 59.1442 180.569 59.4502 181.632C59.7562 182.624 60.307 183.545 61.225 183.758C61.531 183.829 61.6534 183.475 61.4698 183.333Z" fill="white"/>
<path d="M57.6756 173.838C56.9412 171.924 57.186 169.799 57.492 167.814C57.798 165.83 58.104 163.988 57.9816 161.933C57.8592 159.736 57.3696 157.54 57.3084 155.343C57.2472 153.146 57.3696 150.95 57.2472 148.753C57.0636 144.856 55.9008 141.171 54.2484 137.84C53.4528 136.14 52.4736 134.581 51.4944 133.022C51.0048 132.243 50.5152 131.534 50.0256 130.825C49.4748 129.975 48.8628 129.196 48.4956 128.203C47.6388 126.078 47.7612 123.527 47.3328 121.33C46.9044 118.992 46.2924 116.724 45.4356 114.598C45.1908 114.102 44.5788 114.527 44.7624 115.023C45.4968 117.008 46.1088 119.062 46.5372 121.188C46.9656 123.172 47.088 125.227 47.6388 127.141C48.1896 129.054 49.3524 130.471 50.3928 132.03C51.372 133.589 52.3512 135.148 53.208 136.848C54.9828 140.321 56.268 144.005 56.5128 148.044C56.6352 150.241 56.5128 152.438 56.574 154.634C56.6352 156.902 57.0024 159.028 57.2472 161.224C57.492 163.634 57.1248 165.83 56.8188 168.169C56.574 170.153 56.4516 172.208 57.3084 174.05C57.4308 174.334 57.7368 174.121 57.6756 173.838Z" fill="white"/>
<path d="M59.8785 135.431C59.6337 134.581 59.3277 133.66 59.0217 132.809C58.8381 132.384 58.7157 131.959 58.4709 131.605C58.2873 131.18 58.1037 130.754 57.7977 130.4C57.7365 130.258 57.5529 130.258 57.4305 130.4C57.3081 130.471 57.3081 130.684 57.3693 130.825C57.5529 131.251 57.7365 131.605 57.9201 132.03C58.1037 132.384 58.2873 132.809 58.4709 133.164C58.8381 133.943 59.2053 134.723 59.5113 135.573C59.6337 135.715 59.9397 135.644 59.8785 135.431Z" fill="white"/>
<path d="M56.9409 127.424C56.8797 124.731 56.5737 122.039 56.4513 119.346C56.3289 116.795 56.4513 114.315 57.2469 111.906C57.3693 111.551 56.8185 111.268 56.6349 111.622C55.7169 113.961 55.5945 116.512 55.7169 118.992C55.9005 121.826 56.4513 124.59 56.5737 127.424C56.6349 127.637 56.9409 127.707 56.9409 127.424Z" fill="white"/>
<path d="M63.9792 134.156C64.6524 133.376 65.2032 132.384 65.8152 131.534C66.366 130.684 66.978 129.762 67.5288 128.841C68.6304 127.141 69.8544 125.511 70.4052 123.456C70.956 121.543 71.0172 119.417 71.0172 117.433C71.0172 115.661 71.0172 113.677 70.0992 112.189C69.9768 111.976 69.6708 112.189 69.7932 112.402C70.65 114.031 70.5888 115.945 70.5888 117.787C70.5888 119.771 70.4665 121.897 69.7321 123.739C69.0589 125.511 67.896 127.07 66.8556 128.7C65.754 130.4 64.53 132.03 63.6732 133.872C63.612 134.085 63.8568 134.298 63.9792 134.156Z" fill="white"/>
<path d="M17.222 87.7422C16.2428 88.2383 15.998 89.5846 16.3652 90.6475C16.7936 91.8522 17.7116 91.923 18.446 90.931C18.3236 90.8601 18.2012 90.7892 18.0176 90.7184C18.0788 92.0647 17.5892 93.978 18.9356 94.6866C20.0372 95.2534 20.5268 93.5528 21.1388 92.9151C21.0164 92.9151 20.894 92.8442 20.7104 92.8442C21.0776 93.8362 21.0776 95.3952 22.3016 95.466C23.648 95.6078 24.1988 93.978 24.1376 92.6316C24.0152 92.7025 23.8928 92.8442 23.7704 92.9151C24.4436 93.1276 25.178 92.9859 25.484 92.2065C25.79 91.427 25.5452 90.5058 25.178 89.7972C25.0556 89.9389 24.9944 90.1515 24.872 90.2932C26.1572 90.5767 26.402 88.38 26.2184 87.3171C26.096 87.4588 25.9124 87.6005 25.79 87.6714C26.2796 88.0257 26.7692 88.6634 27.3812 88.8052C28.0544 88.9469 28.3604 88.3091 28.544 87.6714C28.3604 87.7423 28.238 87.7423 28.0544 87.8131C28.4828 88.38 28.7888 89.3012 29.4008 89.5846C30.1352 89.9389 30.5636 89.3012 31.0532 88.8052C30.8696 88.8052 30.7472 88.7343 30.5636 88.7343C30.992 89.4429 31.604 89.7263 32.216 89.1595C32.5832 88.876 32.828 88.38 32.9504 87.9548C33.134 87.4588 33.2564 86.8919 33.5624 86.4668C34.052 85.9707 34.4804 85.6164 34.4192 84.7661C34.2968 83.7741 33.746 83.4198 33.0116 82.9946C32.9504 83.2072 32.8892 83.4198 32.8892 83.6323C34.664 83.7741 33.9908 80.9397 33.44 79.9476C33.3788 80.0893 33.2564 80.3019 33.1952 80.4436C34.8476 80.231 34.4804 78.0344 33.6848 76.9715C33.6236 77.1841 33.6236 77.3258 33.5624 77.5384C34.4804 77.2549 35.3984 77.1132 35.7656 75.9794C36.194 74.7039 35.6432 73.5702 34.7864 72.7907C34.5416 72.5781 34.1744 73.0742 34.4192 73.2867C35.0924 73.9245 35.6432 74.9165 35.1536 75.9086C34.7864 76.6172 34.052 76.688 33.44 76.8298C33.1952 76.9006 33.1952 77.1841 33.3176 77.3966C33.746 77.9635 34.358 79.5933 33.2564 79.735C33.0728 79.735 32.8892 80.0185 33.0116 80.2311C33.3176 80.7979 34.052 82.9946 32.9504 82.8529C32.6444 82.8529 32.522 83.3489 32.828 83.4906C33.3176 83.7741 33.8072 83.9867 33.9296 84.6244C34.052 85.2621 33.6236 85.4747 33.2564 85.829C32.8892 86.1833 32.7668 86.7502 32.5832 87.2462C32.3996 87.884 31.7264 89.3012 31.1756 88.3091C31.0532 88.0965 30.8696 88.0965 30.686 88.2383C30.2576 88.6634 29.8904 89.3012 29.3396 88.5926C29.0336 88.1674 28.7888 87.6714 28.4828 87.2462C28.3604 87.0336 28.0544 87.1754 27.9932 87.3879C27.8708 87.6714 27.7484 88.0257 27.5036 88.0257C27.32 88.0257 27.1364 87.8131 27.014 87.7422C26.708 87.4588 26.402 87.1754 26.096 86.9628C25.8512 86.8211 25.6064 87.0336 25.6676 87.3171C25.79 87.8131 25.7288 89.5846 25.0556 89.5138C24.8108 89.4429 24.566 89.7263 24.7496 90.0098C25.3004 90.931 25.3616 92.6316 23.954 92.2065C23.7704 92.1356 23.5868 92.2773 23.5868 92.4899C23.648 92.9859 23.5868 93.5528 23.342 94.0488C23.0972 94.5448 22.4852 94.8991 21.9956 94.6157C21.4448 94.2614 21.3836 93.0568 21.1388 92.419C21.0776 92.2065 20.8328 92.2773 20.7104 92.3482C20.282 92.7733 19.67 94.4031 18.9968 93.978C18.0176 93.3402 18.5072 91.5687 18.3848 90.5767C18.3848 90.3641 18.14 90.1515 17.9564 90.3641C17.7728 90.6475 17.4668 91.0018 17.0996 90.8601C16.8548 90.7184 16.6712 90.3641 16.61 90.0098C16.4264 89.2303 16.5488 88.3091 17.222 87.884C17.5892 88.0257 17.4668 87.6714 17.222 87.7422Z" fill="white"/>
<path d="M33.4401 84.0575C33.7461 85.6164 35.9493 86.6793 36.3165 84.5535C36.1329 84.5535 36.0105 84.5535 35.8269 84.5535C36.1941 86.2542 38.0301 86.1125 38.4585 84.4827C38.3361 84.5535 38.2137 84.6244 38.0913 84.6952C38.7033 84.9787 39.4377 85.333 40.1721 85.1913C40.9677 85.0496 41.1513 84.2701 41.0901 83.4198C40.9065 83.4906 40.7229 83.5615 40.6005 83.5615C41.0289 84.2701 41.6409 84.3409 42.1305 83.7032C42.8037 82.8529 42.8037 81.8608 42.4977 80.8688C42.3753 81.0105 42.3141 81.1522 42.1917 81.294C42.9261 81.2231 43.5381 80.6562 43.5381 79.735C43.5381 78.6012 42.8037 78.247 42.1917 77.5383C42.1305 77.7509 42.0693 77.9635 42.0081 78.1052C42.9873 78.0344 43.9053 76.8297 43.7829 75.696C43.5993 75.7668 43.4769 75.8377 43.2933 75.9086C43.9053 76.688 45.5577 79.8059 46.2309 77.4675C46.0473 77.4675 45.8637 77.3966 45.6189 77.3966C45.6189 78.1052 45.7413 78.9556 46.2921 79.239C46.9041 79.5933 47.5161 79.0973 48.0057 78.6013C47.8221 78.5304 47.6385 78.4595 47.4549 78.4595C47.6385 79.239 47.7609 80.231 48.6177 80.3728C49.5969 80.5145 49.8417 79.3807 50.5149 78.8847C50.3313 78.8138 50.2089 78.743 50.0253 78.6721C50.8209 81.79 54.7377 77.7509 52.7181 75.9794C52.6569 76.192 52.5957 76.4754 52.5345 76.688C53.3301 76.6172 54.0033 76.1211 54.0645 75.1291C54.1257 74.2788 53.6973 73.2867 53.0853 72.7198C53.0241 72.9324 52.9629 73.145 52.8405 73.3576C53.5137 73.3576 53.9421 73.0033 54.0033 72.2947C53.8197 72.2947 53.5749 72.3655 53.3913 72.3655C53.6361 73.2159 54.0645 73.9245 54.9213 73.9953C55.6557 74.0662 56.3289 73.4993 56.2677 72.649C56.0841 72.7198 55.9005 72.8616 55.7169 72.9324C56.6349 73.9245 57.4305 73.2159 58.1037 72.2947C57.9201 72.2947 57.7977 72.2947 57.6141 72.2947C59.0829 73.7119 60.5517 71.2318 59.8785 69.602C59.6949 69.1768 59.1441 69.5311 59.3277 69.9563C59.6337 70.8066 58.8993 72.5781 58.0425 71.7278C57.9201 71.5861 57.6753 71.5861 57.5529 71.7278C57.3693 71.9404 57.2469 72.2238 57.0021 72.4364C56.6961 72.7907 56.3901 72.7907 56.0841 72.4364C55.9005 72.2238 55.4721 72.3655 55.5333 72.7198C55.5945 73.2867 55.1049 73.4284 54.6765 73.2867C54.2481 73.145 54.0645 72.7198 53.8809 72.2238C53.7585 71.7987 53.2689 71.8695 53.2689 72.2947C53.2689 72.649 52.9629 72.649 52.7181 72.649C52.4733 72.649 52.2897 73.0741 52.4733 73.2867C53.2077 73.9953 53.7585 75.9086 52.3509 75.9086C51.9837 75.9086 51.9225 76.4046 52.1673 76.6172C53.2077 77.5383 50.7597 80.3019 50.4537 78.4595C50.3925 78.247 50.1477 78.1052 49.9641 78.247C49.4745 78.6013 49.2909 79.3099 48.8013 79.5933C48.0669 80.0185 47.9445 78.8138 47.8221 78.247C47.7609 77.9635 47.4549 77.8927 47.2713 78.1052C47.0265 78.3887 46.5981 78.8138 46.2309 78.6013C45.8637 78.3887 45.8637 77.7509 45.8637 77.3966C45.8637 76.9715 45.3741 76.9715 45.2517 77.3258C45.0069 78.1761 44.4561 77.2549 44.1501 76.9006C43.8441 76.4754 43.5993 75.9086 43.2321 75.5543C42.9873 75.2708 42.6813 75.5543 42.7425 75.9086C42.8649 76.688 42.1917 77.5383 41.5797 77.5383C41.3349 77.5383 41.2125 77.8927 41.3961 78.1052C41.7021 78.4595 42.1917 78.743 42.4365 79.1681C42.8037 79.8767 42.4365 80.6562 41.7633 80.7271C41.5797 80.7271 41.3961 80.9396 41.4573 81.1522C41.5797 81.6482 41.7633 82.2151 41.6409 82.7112C41.5185 83.2072 40.9677 83.9866 40.6005 83.3489C40.4781 83.0655 40.0497 83.2072 40.1109 83.4906C40.1721 84.2701 39.9885 84.6952 39.3153 84.6244C38.8257 84.5535 38.3361 84.3409 37.8465 84.1284C37.7241 84.0575 37.5405 84.1992 37.4793 84.3409C37.2345 85.333 36.1329 85.4747 35.8881 84.4118C35.8269 84.1284 35.4597 84.1284 35.3985 84.4118C35.1537 85.9707 33.6849 84.9078 33.3789 83.9158C33.7461 83.7032 33.3789 83.7741 33.4401 84.0575Z" fill="white"/>
<path d="M59.5724 59.6815C57.6752 59.965 57.3692 64.1458 59.6336 63.9332C59.5724 63.7206 59.5112 63.5789 59.45 63.3663C58.8992 64.004 58.2872 64.9961 58.6544 65.9173C59.0216 66.8384 60.0008 66.9093 60.7352 66.9093C60.674 66.6967 60.5516 66.555 60.4904 66.3424C60.1232 67.1927 59.6336 68.2557 60.0008 69.2477C60.368 70.1689 61.0412 70.098 61.7756 70.3106C61.7144 70.1689 61.6532 70.0272 61.5308 69.8854C61.2248 70.7358 60.98 71.9404 61.5308 72.7199C62.2652 73.7828 63.0608 72.9324 63.9788 72.8616C63.8564 72.7199 63.734 72.5781 63.6728 72.5073C63.734 73.145 63.8564 74.0662 64.4072 74.4205C64.958 74.7748 65.6924 74.3496 66.2432 74.1371C66.1208 73.9953 65.9984 73.9245 65.8148 73.7828C65.876 74.4914 66.0596 75.3417 66.6716 75.5543C67.3448 75.7668 67.8956 75.2 68.324 74.6331C68.2016 74.6331 68.018 74.6331 67.8956 74.6331C68.324 75.2708 68.63 76.0503 69.4256 76.1212C70.2824 76.1212 70.7108 75.4125 71.2616 74.7748C71.078 74.7748 70.9556 74.7039 70.772 74.7039C71.996 76.9715 74.0156 75.1291 74.75 73.3576C74.6276 73.4285 74.444 73.4285 74.3216 73.4993C75.668 74.5622 79.0952 73.2867 78.2996 70.9483C78.1772 71.0901 78.0548 71.2318 77.9324 71.3735C78.6668 71.5861 79.5236 71.8695 80.1356 71.1609C80.3192 70.8775 80.3804 70.594 80.3804 70.2397C80.3804 69.8146 80.3192 69.6729 80.6864 69.3894C81.2372 68.9643 81.6044 68.6808 81.6044 67.8305C81.6044 67.051 81.0536 66.4841 80.6864 65.9173C80.564 66.1298 80.4416 66.2716 80.3192 66.4841C81.6044 67.547 83.1344 66.2716 83.1344 64.5709C82.9508 64.6418 82.8284 64.7835 82.6448 64.8543C83.93 65.7047 85.7048 64.4292 84.7256 62.7285C84.542 62.8703 84.4196 63.012 84.236 63.1537C85.154 64.0749 86.3168 63.5789 86.99 62.5868C86.8064 62.5868 86.6228 62.516 86.5004 62.516C86.7452 63.012 86.9288 63.508 87.3572 63.8623C87.908 64.3583 88.52 64.1458 89.132 64.4292C89.0708 64.2875 89.0096 64.1458 88.8872 63.9332C88.3976 65.563 88.8872 68.5391 90.9068 67.4762C90.7232 67.4053 90.6008 67.3345 90.4172 67.2636C90.6008 67.8305 90.9068 68.1848 91.4576 68.1139C91.886 68.0431 91.886 67.2636 91.4576 67.3345C91.274 67.4053 91.1516 67.3345 91.0292 67.051C90.968 66.8384 90.7844 66.6967 90.5396 66.8384C89.1932 67.547 89.2544 64.9961 89.4992 64.1457C89.5604 63.9332 89.438 63.7206 89.2544 63.6497C88.7648 63.4371 88.1528 63.6497 87.7244 63.2246C87.4184 62.9411 87.2348 62.4451 87.0512 62.0908C86.9288 61.8074 86.6228 61.8782 86.5004 62.0908C86.072 62.7285 85.3376 63.2246 84.7256 62.6577C84.4808 62.3742 83.9912 62.7285 84.236 63.0828C84.848 64.1457 83.7464 64.6418 83.012 64.2166C82.8284 64.0749 82.5224 64.2166 82.5224 64.5C82.5224 65.563 81.5432 66.6259 80.6864 65.8464C80.4416 65.6338 79.952 65.9173 80.1968 66.2716C80.5028 66.6967 80.9924 67.1927 80.9924 67.7596C80.9924 68.4682 80.5028 68.5391 80.1356 68.8934C79.8296 69.1768 79.8296 69.5311 79.8296 69.9563C79.8296 70.3815 79.7684 70.594 79.34 70.7358C78.9116 70.8775 78.5444 70.6649 78.116 70.5232C77.8712 70.4523 77.6264 70.7358 77.7488 70.9483C78.3608 72.649 75.668 73.4993 74.6888 72.7199C74.5664 72.649 74.3216 72.649 74.2604 72.8616C73.7708 74.0662 72.2408 75.9794 71.3228 74.2079C71.2004 73.9953 70.9556 73.9953 70.8332 74.1371C70.466 74.5622 70.0988 75.3417 69.4868 75.2708C68.936 75.2 68.6912 74.4205 68.3852 73.9953C68.2628 73.8536 68.018 73.8536 67.9568 73.9953C67.7732 74.2788 67.406 74.7748 67.0388 74.7039C66.6104 74.6331 66.5492 73.9953 66.5492 73.641C66.5492 73.3576 66.3044 73.2159 66.0596 73.3576C65.7536 73.4993 65.2028 73.8536 64.8356 73.7119C64.4684 73.5702 64.4684 72.7907 64.4072 72.3656C64.4072 72.153 64.2848 72.0112 64.1012 72.0112C63.5504 72.0821 62.6936 72.7199 62.2652 72.2238C61.7144 71.6569 62.0816 70.594 62.3264 69.9563C62.3876 69.7437 62.2652 69.5311 62.0816 69.5311C61.6532 69.3894 61.0412 69.5311 60.7964 68.9643C60.4292 68.2556 60.9188 67.2636 61.1636 66.6259C61.286 66.4133 61.1636 66.059 60.9188 66.059C60.4292 66.1298 59.6336 66.1298 59.3276 65.563C59.0828 64.9252 59.6336 64.1458 59.9396 63.7206C60.062 63.508 60.0008 63.1537 59.756 63.1537C58.0424 63.3663 58.4708 60.3193 59.756 59.965C59.8172 60.0358 59.8172 59.6815 59.5724 59.6815Z" fill="white"/>
<path d="M94.4566 57.4849C93.8446 57.6266 93.355 58.2643 93.4774 58.9729C93.5998 59.8233 94.3342 59.8233 94.8238 60.1776C94.8238 60.0358 94.7626 59.8233 94.7626 59.6815C93.7834 61.0279 93.7222 63.6497 95.6806 63.6497C95.6194 63.508 95.497 63.2954 95.4358 63.1537C95.0686 63.9332 94.8238 64.9961 95.3134 65.7755C95.8642 66.555 96.721 66.2716 97.333 65.7755C97.1494 65.7047 97.027 65.6338 96.8434 65.5629C97.0882 66.2715 97.027 67.1927 97.7614 67.547C98.4346 67.9013 99.2302 67.4053 99.6586 66.8384C99.475 66.7676 99.2914 66.6967 99.1078 66.555C99.1078 67.3345 99.4138 68.0431 100.148 67.8305C100.76 67.6888 101.372 67.1219 101.801 66.6259C101.617 66.555 101.433 66.4841 101.25 66.4841C101.495 67.7596 102.229 68.5391 103.331 67.9013C104.249 67.3345 104.922 66.3424 105.595 65.4212C105.473 65.4212 105.411 65.4921 105.289 65.4921C106.085 65.8464 106.697 66.059 107.431 65.4212C108.165 64.7835 108.655 63.9332 108.655 62.8703C108.533 62.9411 108.349 63.0828 108.227 63.1537C110.063 64.3583 111.164 61.3822 110.919 59.6107C110.797 59.7524 110.613 59.8941 110.491 60.0358C111.409 60.5319 112.082 60.0358 112.633 59.1855C112.939 58.6895 113.184 58.3352 113.612 58.0518C114.163 57.6975 114.775 57.414 115.387 57.0597C115.265 56.9888 115.081 56.9888 114.959 56.918C115.265 57.414 115.387 58.0518 115.815 58.4061C116.427 58.8312 116.917 58.3352 117.529 58.4061C117.407 58.2643 117.284 58.1226 117.223 58.0518C117.284 58.9021 117.345 59.8941 117.896 60.461C118.447 61.0987 119.304 60.957 119.977 60.6027C119.793 60.461 119.61 60.3901 119.487 60.2484C119.61 61.5239 119.977 62.516 121.262 62.3742C122.18 62.2325 123.71 61.8782 124.016 60.6736C124.139 60.1776 123.527 59.965 123.343 60.461C123.159 61.1696 121.997 61.3822 121.446 61.5239C121.14 61.5948 120.711 61.7365 120.467 61.4531C120.161 61.1696 120.161 60.6027 120.161 60.2484C120.161 60.0358 119.916 59.7524 119.732 59.8941C119.243 60.1067 118.692 60.3193 118.263 59.7524C117.957 59.2564 117.896 58.5478 117.896 57.9809C117.896 57.7683 117.774 57.6266 117.59 57.6266C117.162 57.5557 116.611 58.0517 116.244 57.7683C115.877 57.5557 115.815 56.918 115.571 56.5637C115.448 56.422 115.265 56.3511 115.142 56.422C114.347 56.918 113.306 57.2014 112.694 58.0518C112.205 58.6895 111.837 59.965 110.919 59.5398C110.675 59.3981 110.43 59.6107 110.491 59.965C110.675 60.957 109.879 63.7206 108.716 62.7285C108.533 62.5868 108.288 62.7994 108.288 63.012C108.227 63.7914 107.859 64.4292 107.309 64.9252C106.758 65.4921 106.268 65.2795 105.717 64.9252C105.595 64.8543 105.411 64.8544 105.35 64.9961C104.799 65.6338 104.371 66.3424 103.759 66.9093C103.514 67.1219 103.147 67.547 102.78 67.547C102.29 67.547 102.168 66.8384 102.045 66.4133C101.984 66.1298 101.678 66.059 101.495 66.2715C101.25 66.6259 100.944 66.9093 100.577 67.1219C100.148 67.4053 99.9034 67.4762 99.9034 66.7676C99.9034 66.4133 99.5362 66.2716 99.3526 66.4841C98.9854 66.9093 98.3122 67.4053 97.8838 66.7676C97.7002 66.4133 97.7002 65.9172 97.5778 65.5629C97.5166 65.3504 97.2718 65.2087 97.0882 65.3504C96.721 65.6338 96.109 66.059 95.803 65.4212C95.5582 64.8543 95.803 64.1457 95.9866 63.7206C96.109 63.508 95.9866 63.2246 95.7418 63.2246C94.273 63.3663 94.579 61.3113 95.191 60.3901C95.3134 60.2484 95.3134 60.0358 95.1298 59.8941C94.885 59.7524 94.579 59.6815 94.3342 59.6107C93.5998 59.3272 93.9058 58.3352 94.5178 58.1226C94.7014 57.7683 94.6402 57.414 94.4566 57.4849Z" fill="white"/>
<path d="M106.88 65.1378C105.717 65.7755 105.595 68.8934 107.309 68.1139C107.186 67.9722 107.125 67.8305 107.003 67.6179C106.574 68.5391 105.84 69.5311 106.391 70.594C106.819 71.4444 107.615 71.0901 108.288 71.1609C108.165 71.0192 108.104 70.8775 107.982 70.7357C107.737 71.5152 107.553 72.5073 108.288 73.0033C108.9 73.4284 109.757 73.2867 110.43 73.0741C110.307 72.9324 110.185 72.7907 110.063 72.649C109.818 73.4993 110.001 74.4913 110.675 74.9874C111.47 75.6251 112.143 74.9165 112.817 74.3496C112.694 74.2788 112.511 74.2079 112.388 74.137C112.572 74.8457 112.878 75.696 113.551 75.9086C114.224 76.1211 114.836 75.5543 115.203 74.9165C115.081 74.9874 114.897 74.9874 114.775 75.0582C115.081 75.2708 115.387 75.6251 115.693 75.696C116.06 75.7668 116.427 75.5543 116.733 75.3417C117.345 74.9165 118.141 74.2079 118.263 73.3576C118.325 72.8616 117.713 72.7198 117.651 73.145C117.59 73.7827 117.039 74.2788 116.611 74.6331C116.427 74.7748 116.121 75.0582 115.877 75.0582C115.632 75.0582 115.326 74.6331 115.142 74.4913C115.02 74.4205 114.836 74.3496 114.714 74.4913C114.469 74.8457 114.102 75.3417 113.673 75.2C113.245 75.0582 113.061 74.4205 113 73.9245C112.939 73.7119 112.694 73.5702 112.572 73.7119C112.205 73.9953 111.715 74.6331 111.225 74.4205C110.613 74.2079 110.491 73.3576 110.675 72.7198C110.736 72.4364 110.491 72.2238 110.307 72.2947C109.818 72.4364 109.267 72.5781 108.839 72.3655C108.227 72.0821 108.471 71.3026 108.655 70.8066C108.716 70.594 108.533 70.3814 108.349 70.3814C107.921 70.3814 107.247 70.7357 106.941 70.1689C106.513 69.3894 107.247 68.5391 107.553 67.8305C107.676 67.6179 107.492 67.2636 107.247 67.3344C106.085 67.9013 106.758 65.7755 107.186 65.2795C107.186 65.2795 107.003 65.0669 106.88 65.1378Z" fill="white"/>
<path d="M109.634 84.3409C109.084 84.9078 108.472 85.5456 108.288 86.3959C108.104 87.4588 108.9 87.8131 109.696 87.9548C109.634 87.7422 109.573 87.5297 109.512 87.3171C108.472 88.0257 108.227 91.0727 110.002 90.4349C109.879 90.3641 109.757 90.2932 109.573 90.1515C109.757 90.8601 109.818 91.6396 110.185 92.2065C110.614 92.9151 111.287 92.7733 111.899 92.419C111.715 92.2773 111.532 92.2065 111.409 92.0647C111.409 92.9859 111.164 93.978 111.838 94.6866C112.327 95.1826 112.694 94.6157 113.184 94.4031C113.49 94.2614 113.674 94.474 113.918 94.6866C114.163 94.8991 114.408 95.0409 114.653 95.1117C115.387 95.1826 116.183 94.6157 116.55 93.9071C116.366 93.9071 116.244 93.978 116.06 93.978C116.428 94.4031 116.917 94.6866 117.468 94.3323C118.019 94.0488 118.325 93.4111 118.753 92.9859C118.998 92.7733 119.243 92.8442 119.488 92.7025C119.794 92.6316 120.038 92.3482 120.222 91.9939C120.65 91.427 120.834 90.7184 120.222 90.2224C119.916 90.0098 119.61 90.5058 119.855 90.7892C120.161 91.0727 119.732 91.5687 119.549 91.7813C119.365 91.9939 119.243 91.9939 119.059 91.9939C118.753 92.0647 118.447 92.2065 118.202 92.419C117.713 92.9151 117.101 94.1905 116.489 93.3402C116.366 93.1276 116.122 93.2694 115.999 93.4111C115.632 93.978 114.898 94.5448 114.347 93.978C114.041 93.6945 113.796 93.4111 113.429 93.4111C113.245 93.4111 113.062 93.4819 112.878 93.5528C112.756 93.6237 112.572 93.8362 112.388 93.9071C111.838 93.978 112.082 92.3482 112.082 91.923C112.082 91.6396 111.776 91.427 111.593 91.5687C111.103 91.923 110.797 91.8522 110.552 91.2144C110.369 90.7892 110.308 90.2932 110.246 89.7972C110.185 89.5846 110.002 89.4429 109.818 89.5138C108.9 89.8681 109.39 88.0965 109.818 87.7422C110.063 87.5297 109.94 87.1045 109.634 87.1045C109.39 87.1045 108.9 87.0336 108.778 86.7502C108.655 86.5376 108.778 86.1833 108.9 85.9707C109.084 85.4747 109.451 84.9078 109.757 84.4827C110.002 84.4118 109.818 84.1992 109.634 84.3409Z" fill="white"/>
<path d="M72.1795 80.4436C71.3227 80.3019 71.9347 81.9317 72.1795 82.3568C72.7303 83.4197 73.4647 82.8529 73.9543 82.0734C73.8319 82.1442 73.7095 82.1442 73.5259 82.2151C74.3215 82.782 75.1171 83.278 76.0351 82.6403C76.7083 82.2151 77.3203 81.3648 77.2591 80.4436C77.1367 80.5853 77.0755 80.6562 76.9531 80.7979C78.2383 80.8688 79.1563 79.0973 78.5443 77.7509C78.4831 77.8926 78.4219 78.1052 78.3607 78.2469C79.3399 77.9635 80.0743 76.7589 80.0131 75.6251C79.8907 75.7668 79.8295 75.8377 79.7071 75.9794C80.3803 75.9794 81.0535 75.9794 81.7267 75.696C82.3999 75.4125 82.9507 74.8456 83.4403 74.3496C83.2567 74.3496 83.0731 74.2787 82.9507 74.2787C83.3179 74.9874 83.7463 75.696 84.4195 76.0503C85.0927 76.4046 85.8271 76.3337 86.5003 76.2628C86.3779 76.1211 86.2555 75.9794 86.1331 75.8377C86.1943 77.2549 86.7451 80.1602 88.4587 78.6012C88.2751 78.5304 88.0303 78.3886 87.8467 78.3178C87.7855 79.5224 88.0915 80.8688 89.0707 81.4356C89.5603 81.7191 90.1111 81.7191 90.6619 81.5774C91.2739 81.3648 91.8247 80.8688 92.4367 80.8688C92.8651 80.7979 92.8651 80.1602 92.4367 80.0893C91.4575 80.0184 90.7231 81.0813 89.7439 80.8688C88.7035 80.6562 88.4587 79.3807 88.5199 78.3178C88.5199 77.9635 88.1527 77.8218 87.9079 78.0344C86.9899 78.8847 86.8675 76.4754 86.8063 75.8377C86.8063 75.6251 86.6839 75.4125 86.4391 75.4125C85.8883 75.4834 85.2151 75.6251 84.6643 75.3417C84.1135 75.0582 83.7463 74.4205 83.4403 73.8536C83.3179 73.641 83.0731 73.641 82.9507 73.7827C82.4611 74.2788 81.9715 74.7748 81.4207 74.9874C80.8699 75.2708 80.2579 75.2708 79.7071 75.2708C79.5235 75.2708 79.4011 75.4125 79.4011 75.6251C79.4623 76.4754 78.9115 77.3966 78.1771 77.6092C77.9935 77.68 77.9323 77.8926 77.9935 78.1052C78.3607 79.0264 77.7487 80.1602 76.8919 80.0893C76.7083 80.0893 76.5859 80.231 76.5859 80.4436C76.5859 81.0813 76.0963 81.7191 75.6679 82.0734C74.9335 82.5694 74.3827 82.0025 73.7707 81.6482C73.6483 81.5774 73.4647 81.5774 73.3423 81.79C73.2199 82.0025 73.0363 82.4986 72.7303 82.4277C72.5467 82.3568 72.4243 82.0734 72.3631 81.9317C72.2407 81.7191 72.1795 81.5065 72.1183 81.2231C72.1183 81.1522 71.9347 80.8688 71.9347 80.9396C71.9347 80.9396 71.8123 80.9396 71.9959 80.9396C72.3019 80.7979 72.3631 80.5145 72.1795 80.4436Z" fill="white"/>
<path d="M5.77785 77.1841C4.06425 77.5384 4.18664 81.4357 6.20624 80.5145C6.08384 80.3728 5.96144 80.231 5.90024 80.1602C5.65544 81.294 4.73745 82.3569 5.65545 83.4198C6.38985 84.341 7.30784 83.5615 8.04224 82.9946C7.91984 82.9237 7.73625 82.782 7.61385 82.7112C7.67505 83.9158 7.55264 85.5456 8.65424 86.1833C9.93944 86.8919 10.6738 85.2621 11.347 84.3409C11.1634 84.3409 11.041 84.2701 10.8574 84.2701C11.347 85.0496 12.1426 85.6164 12.9382 84.9787C13.6726 84.3409 13.9787 83.2072 13.9787 82.1443C13.8563 82.286 13.7338 82.3569 13.6114 82.4986C15.1414 83.278 15.9982 80.1602 15.019 79.0973C14.8966 79.3099 14.8354 79.5224 14.713 79.6642C16.9774 80.231 16.7938 77.1132 16.1818 75.4834C16.1206 75.696 15.9982 75.8377 15.937 76.0503C17.2222 76.1211 19.2419 75.2708 18.5687 73.3576C18.3851 73.4993 18.2626 73.641 18.079 73.7828C18.5074 74.0662 18.997 74.4205 19.5478 74.2788C20.0986 74.2079 20.527 73.7119 20.8942 73.2867C20.7106 73.2159 20.527 73.145 20.3434 73.145C20.6494 74.0662 20.7106 75.1291 21.139 75.9086C21.6286 76.7589 22.4854 76.688 23.2198 76.3337C23.0974 76.2629 22.9138 76.2629 22.7914 76.192C23.1586 77.184 23.7706 78.1761 24.811 77.7509C25.9738 77.3258 26.9531 76.1211 27.1367 74.7039C26.8918 74.7039 26.7082 74.6331 26.4634 74.6331C26.5858 75.6251 27.1979 76.1211 28.0546 75.6251C29.0338 74.9874 29.1562 73.7827 28.9727 72.649C28.7891 72.7907 28.6054 72.8616 28.4218 73.0033C29.095 73.7119 29.8294 73.3576 30.2578 72.5073C30.6862 71.6569 30.8698 70.5232 30.319 69.7437C30.0742 69.3894 29.5846 69.8854 29.7682 70.2397C30.1966 70.8775 29.5846 73.3576 28.8502 72.5073C28.6054 72.2238 28.2382 72.5073 28.2994 72.8616C28.4218 73.5702 28.4218 74.2788 27.9322 74.7748C27.6262 75.1291 27.1366 75.3417 27.0754 74.6331C27.0142 74.2788 26.4634 74.0662 26.4022 74.5622C26.2798 75.6251 25.6066 76.5463 24.7498 76.9715C23.893 77.3966 23.587 76.6172 23.281 75.8377C23.2198 75.6251 22.975 75.6251 22.8526 75.696C22.1182 76.0503 21.6898 75.8377 21.445 75.0582C21.2002 74.4205 21.139 73.641 20.9554 73.0033C20.8942 72.7198 20.5883 72.649 20.4047 72.8616C20.1599 73.145 19.8539 73.5702 19.4867 73.641C19.0583 73.7828 18.691 73.4993 18.385 73.2159C18.1402 73.0741 17.8342 73.3576 17.8954 73.641C18.3238 75.0582 16.7938 75.4834 15.8758 75.4125C15.6922 75.4125 15.5086 75.6251 15.5698 75.8377C15.937 76.8297 16.4266 79.4516 14.7742 79.0264C14.4682 78.9556 14.2234 79.3807 14.4682 79.5933C15.019 80.1602 14.6518 82.286 13.7338 81.8608C13.5502 81.7191 13.2442 81.8608 13.2442 82.1443C13.2442 83.3489 12.3262 85.5456 11.2858 83.9158C11.1634 83.7741 10.9186 83.6323 10.7962 83.8449C10.3678 84.4827 9.63345 86.1125 8.71545 85.5456C7.98105 85.0496 8.10344 83.5615 8.04224 82.7112C8.04224 82.4986 7.79745 82.2151 7.61385 82.4277C7.12425 82.8529 6.20625 83.7741 5.77785 82.7112C5.47185 81.9317 6.14505 81.0814 6.26745 80.3728C6.32865 80.0893 6.08384 79.9476 5.90024 80.0185C4.55384 80.6562 4.79865 78.0344 5.77785 77.6801C6.08385 77.4675 6.02265 77.1132 5.77785 77.1841Z" fill="white"/>
<path d="M27.9934 48.3439C27.4426 47.9187 26.8918 47.0684 26.953 46.2889C27.0142 45.3677 27.9322 45.3677 28.5442 45.4386C28.789 45.5095 28.8502 45.0843 28.7278 44.8717C28.177 44.0214 27.9322 43.0294 28.6054 42.179C29.1562 41.4704 30.013 41.2578 30.7474 41.3996C30.8698 41.3996 31.0534 41.2578 31.0534 41.0453C30.9922 40.1241 31.6042 39.4863 32.3998 39.3446C33.1342 39.2738 33.5015 39.9115 33.8686 40.5492C33.9299 40.691 34.1134 40.7618 34.2358 40.691C34.909 40.4075 35.7046 39.9115 36.3166 40.4784C37.1734 41.3287 37.2958 42.6751 37.051 43.8797C36.9898 44.1631 37.2346 44.4466 37.4794 44.3757C38.0914 44.1631 38.8258 44.0923 39.3154 44.73C39.805 45.2969 39.499 46.1472 39.499 46.8558C39.499 47.1393 39.805 47.281 39.9886 47.2101C40.4782 46.9267 41.0902 46.6432 41.641 46.7849C42.3142 46.9267 42.4978 47.6353 42.4978 48.3439C42.4978 48.6273 42.8038 48.8399 42.9874 48.6982C43.3546 48.4147 43.7218 47.9896 44.1502 47.8479C44.6398 47.6353 45.1294 47.777 45.619 47.9187C45.8026 47.9896 45.9862 47.777 46.0474 47.5644C46.1086 46.785 45.7414 43.8797 46.9654 44.234C47.2102 44.3048 47.455 44.0214 47.3326 43.8088C47.0878 42.9585 46.7206 41.9665 46.9042 41.0453C47.0878 39.9824 48.067 39.8406 48.9238 39.9115C49.1686 39.9115 49.291 39.6281 49.2298 39.4155C48.9238 38.0691 49.5358 36.3685 50.9434 37.1479C51.0658 37.2188 51.3106 37.2188 51.433 37.0062C51.6778 36.3685 51.739 35.4473 52.351 35.093C53.0242 34.6678 53.4526 35.589 53.9422 35.9433C54.1258 36.085 54.3094 36.0142 54.4318 35.8016C54.9214 34.8095 55.7782 36.085 55.9007 36.7228C56.023 37.2188 56.7574 37.0062 56.5738 36.5102C56.2678 35.093 54.6154 33.6758 53.8198 35.3764C54.0034 35.3056 54.1258 35.3056 54.3094 35.2347C53.575 34.6678 53.1466 33.8175 52.1674 34.3135C51.3106 34.7387 51.1882 35.8016 50.8822 36.7228C51.0046 36.6519 51.127 36.5102 51.3106 36.4393C50.515 36.085 49.6582 36.085 49.0462 36.8645C48.4954 37.644 48.4342 38.7069 48.679 39.6281C48.8014 39.4863 48.9238 39.2738 48.985 39.132C47.9446 39.0612 46.7818 39.3446 46.4146 40.6201C46.0474 41.7539 46.4146 43.1002 46.843 44.0923C46.9654 43.8797 47.0878 43.738 47.2102 43.5254C45.2518 43.1711 45.5578 46.1472 45.4966 47.5644C45.619 47.4227 45.6803 47.3518 45.8026 47.2101C44.5786 47.0684 43.7218 47.2101 42.7426 48.0604C42.9262 48.2022 43.0486 48.273 43.2322 48.4147C43.2934 47.4227 42.9874 46.4307 42.1306 46.1472C41.335 45.8638 40.4782 46.1472 39.7438 46.5724C39.9274 46.7141 40.0498 46.785 40.2334 46.9267C40.2334 45.8638 40.4782 44.9426 39.7438 44.1631C39.0706 43.4545 38.1526 43.4545 37.357 43.738C37.4794 43.8797 37.663 44.0923 37.7854 44.234C38.0914 42.7459 37.9078 41.1161 36.8674 40.1241C36.0106 39.2738 35.0927 39.6281 34.1747 40.1241C34.297 40.1949 34.4194 40.2658 34.5418 40.2658C33.991 39.3446 33.3791 38.5652 32.3387 38.7777C31.3595 38.9903 30.5026 39.9115 30.625 41.1161C30.7474 40.9744 30.8086 40.9035 30.931 40.7618C29.8906 40.6201 28.7278 41.0453 28.1158 42.0373C27.4426 43.1711 27.7486 44.3757 28.483 45.3677C28.5442 45.1552 28.6055 45.0134 28.6667 44.8009C27.8099 44.6591 26.6471 44.8717 26.5247 46.0763C26.4023 47.2101 27.1366 48.1313 27.9322 48.6982C27.9934 48.9108 28.177 48.4856 27.9934 48.3439Z" fill="white"/>
<path d="M67.5286 32.9672C67.2838 32.6129 67.1614 32.046 67.039 31.6208C66.9166 31.1248 66.8554 30.5579 67.4062 30.8414C67.5898 30.9122 67.8346 30.8414 67.8346 30.5579C67.8958 29.991 67.8958 29.1407 68.3242 28.6447C68.7526 28.1487 69.5482 28.503 70.0378 28.7864C70.2214 28.9281 70.4662 28.7864 70.4662 28.503C70.5886 26.448 73.0366 25.3143 73.5874 27.7235C73.6486 28.007 73.9546 28.0778 74.1382 27.8652C74.5666 27.3692 75.1174 26.8023 75.7906 26.944C76.525 27.0858 76.7086 28.0069 76.831 28.7156C76.831 28.999 77.0146 29.1407 77.2594 29.0699C78.055 28.9281 78.9118 29.0699 79.4626 29.7785C80.1358 30.6996 79.7074 31.9043 79.8299 33.038C79.8299 33.2506 79.9522 33.3923 80.1358 33.3923C80.7479 33.4632 81.727 33.5341 81.727 34.4552C81.727 35.2347 81.2986 36.085 81.0539 36.7936C80.9314 37.0771 81.115 37.4314 81.421 37.3605C81.9718 37.2188 82.8898 36.8645 83.257 37.5022C83.6242 38.14 82.8898 38.9195 82.645 39.4863C82.5226 39.6989 82.645 39.9823 82.8286 40.0532C83.3182 40.1949 84.481 39.9115 84.2974 40.8327C84.175 41.5413 83.563 41.9664 83.4406 42.6751C83.4406 42.8876 83.5018 43.1711 83.7466 43.1711C84.2974 43.1002 84.9706 42.9585 85.5214 43.1711C86.2558 43.4545 86.0722 44.234 85.8274 44.9426C85.705 45.2969 86.0722 45.5095 86.317 45.3677C87.1738 44.8717 87.541 45.8638 87.4186 46.7849C87.3574 47.0684 87.6634 47.4227 87.9082 47.2101C88.3978 46.7849 89.377 45.4386 89.989 46.0055C90.295 46.2889 90.7234 45.8638 90.4786 45.4386C89.9278 44.73 90.7235 43.3128 91.4579 43.3128C91.6415 43.3128 91.825 43.1002 91.825 42.8876C91.825 42.2499 91.825 41.5413 91.9474 40.9035C92.131 40.1241 92.5594 39.9115 93.2326 40.1241C93.4774 40.1949 93.7222 39.9115 93.661 39.6281C93.5386 38.9194 93.355 37.7148 93.661 37.0771C93.967 36.4393 95.3134 36.8645 95.803 37.0062C95.9866 37.0771 96.2314 36.8645 96.2314 36.6519C96.2314 35.8725 96.2926 34.8804 96.9046 34.3844C97.333 34.0301 98.0062 33.8884 98.251 34.5261C98.3734 34.8096 98.7406 34.7387 98.863 34.5261C99.1078 34.0301 99.4138 33.2506 99.9034 33.1798C100.454 33.038 101.005 33.6758 101.372 34.1009C101.495 34.2427 101.739 34.2427 101.862 34.1009C102.29 33.4632 102.902 32.6837 103.698 32.542C104.493 32.4003 104.922 33.038 105.473 33.6758C105.779 34.0301 106.146 34.0301 106.574 33.8884C107.186 33.6049 107.615 32.9672 108.288 33.5341C108.777 33.8884 108.777 34.6678 109.083 35.1638C109.389 35.7307 109.94 35.8725 110.491 35.589C111.103 35.3056 111.715 34.8804 112.327 35.2347C113 35.589 112.817 36.5102 112.572 37.1479C112.449 37.4314 112.755 37.7148 113 37.644C113.551 37.5022 114.102 36.8645 114.653 37.0062C115.326 37.2188 115.081 38.14 114.959 38.7777C114.897 38.9903 115.02 39.2029 115.203 39.2738C115.387 39.3446 115.632 39.3446 115.877 39.3446C116.06 39.3446 116.305 39.2029 116.489 39.2738C117.162 39.5572 116.427 40.9035 115.999 41.0453C115.571 41.187 115.754 42.0373 116.183 41.8956C117.039 41.5413 117.59 40.2658 117.284 39.2029C116.917 38.14 116.06 38.7777 115.387 38.4943C115.448 38.636 115.571 38.8486 115.632 38.9903C115.815 38.14 115.999 37.0771 115.265 36.5102C114.347 35.7307 113.612 36.7228 112.755 36.9354C112.878 37.1479 113 37.3605 113.123 37.5022C113.673 36.085 113.306 34.4552 111.837 34.3135C111.47 34.2427 111.103 34.3135 110.736 34.4552C110.369 34.597 109.879 35.1639 109.573 34.6678C109.389 34.3844 109.389 33.9592 109.267 33.6758C109.145 33.3215 108.9 33.038 108.594 32.8255C107.921 32.4003 107.431 32.4003 106.819 32.8255C106.574 32.9672 106.207 33.2506 105.962 33.1089C105.717 32.9672 105.473 32.4712 105.228 32.2586C103.82 30.9831 102.168 32.1877 101.372 33.6758C101.556 33.6758 101.739 33.6049 101.862 33.6049C101.311 33.1089 100.638 32.3294 99.8422 32.4712C99.0466 32.6129 98.6182 33.4632 98.251 34.1718C98.4346 34.1718 98.6182 34.1718 98.863 34.1718C98.4958 33.2506 97.5166 33.1798 96.7822 33.6049C95.803 34.1718 95.5582 35.5182 95.5582 36.6519C95.6806 36.5102 95.8642 36.3685 95.9866 36.2976C95.191 36.085 93.7834 35.6599 93.1714 36.5811C92.6206 37.4314 92.8042 38.9903 93.049 39.9824C93.1714 39.8406 93.355 39.6281 93.4774 39.4863C92.6818 39.2738 91.8862 39.4155 91.519 40.3367C91.1518 41.187 91.213 42.179 91.213 43.0294C91.3354 42.8876 91.4578 42.7459 91.5802 42.6042C90.2338 42.6042 89.1934 44.8717 90.1726 46.0763C90.3562 45.8638 90.4786 45.722 90.6622 45.5095C89.6218 44.5883 88.5815 45.9346 87.7859 46.5724C87.9694 46.7141 88.0918 46.8558 88.2754 46.9975C88.5202 45.4386 87.6635 44.0214 86.2558 44.8009C86.4395 44.9426 86.5618 45.0843 86.7454 45.226C86.9902 44.3757 87.1738 43.3128 86.3782 42.7459C85.705 42.2499 84.7258 42.3916 83.9914 42.4625C84.1138 42.6042 84.175 42.7459 84.2974 42.9585C84.4198 42.0373 85.399 41.3996 85.093 40.3367C84.787 39.2738 83.8691 39.628 83.1959 39.3446C83.257 39.5572 83.3182 39.7698 83.3794 39.9115C83.7466 38.9903 84.6034 37.9983 83.9302 37.0062C83.3182 36.085 82.2166 36.3685 81.421 36.5811C81.5434 36.7936 81.6658 36.9354 81.7882 37.1479C82.0942 36.2268 82.7062 35.093 82.5226 34.0301C82.339 32.8963 81.1762 32.6837 80.3194 32.6129C80.4418 32.7546 80.503 32.8255 80.6254 32.9672C80.5642 32.1877 80.7478 31.4791 80.6866 30.6996C80.6254 30.0619 80.3806 29.495 80.0134 29.0699C79.279 28.2195 78.2386 28.0778 77.2594 28.2904C77.3818 28.4321 77.5654 28.5738 77.6878 28.6447C77.5654 27.5818 77.2594 26.448 76.2802 26.0937C75.3622 25.8103 74.5054 26.448 73.8934 27.2275C74.077 27.2984 74.2606 27.3692 74.4442 27.3692C74.1382 26.0937 73.2202 25.1725 71.9962 25.5268C70.8334 25.8103 70.099 27.0149 70.099 28.3612C70.2214 28.2904 70.405 28.1487 70.5274 28.0778C69.8542 27.6527 68.9362 27.2983 68.263 27.8652C67.651 28.4321 67.5286 29.495 67.5286 30.3453C67.651 30.2745 67.8346 30.1328 67.957 30.0619C67.2838 29.7076 66.6106 29.9202 66.6718 30.9122C66.6718 31.6917 66.9778 32.6129 67.4674 33.1089C67.4062 33.4632 67.651 33.1798 67.5286 32.9672Z" fill="white"/>
<path d="M19.3027 101.985C18.3847 101.489 17.2219 105.032 19.4863 104.394C19.3639 104.324 19.2415 104.182 19.1803 104.111C19.1191 104.89 19.1191 105.812 19.4863 106.449C19.9147 107.229 20.6491 107.016 21.2611 106.662C21.1387 106.591 20.9551 106.449 20.8327 106.379C20.8939 107.512 20.7715 108.717 21.7507 109.426C22.4851 109.922 23.2195 109.638 23.7091 108.859C23.5255 108.859 23.3419 108.859 23.1583 108.859C23.5867 109.78 24.1987 110.701 25.2391 110.205C25.5451 110.063 25.7899 109.78 26.0347 109.567C26.1571 109.496 26.3407 109.355 26.4019 109.213C26.4631 109.071 26.3407 109.142 26.3407 109.142C26.5243 109.496 26.8303 109.78 27.0751 109.992C28.7275 110.984 30.8083 108.363 30.1963 106.449C30.0739 106.591 29.9515 106.733 29.8291 106.875C31.6651 107.512 31.8487 104.111 30.7471 103.119C30.6859 103.332 30.6247 103.544 30.6247 103.757C31.4815 103.402 31.7263 102.552 31.5427 101.631C31.5427 101.773 31.4815 101.843 31.4815 101.985C31.9099 101.631 32.2159 101.206 32.4607 100.639C32.3383 100.71 32.2159 100.781 32.0935 100.781C32.6443 100.993 33.1951 100.922 33.6235 100.355C33.5011 100.355 33.3175 100.355 33.1951 100.355C33.7459 100.993 34.4191 100.781 34.6639 99.9302C34.7863 99.5051 34.1743 99.2925 34.0519 99.7177C33.9295 100.001 33.8071 100.072 33.6235 99.7885C33.5011 99.6468 33.3175 99.6468 33.1951 99.7885C32.9503 100.143 32.6443 100.143 32.2771 100.001C32.1547 99.9302 31.9711 100.072 31.9099 100.143C31.6651 100.568 31.4203 100.993 31.0531 101.347C30.9919 101.418 30.9307 101.56 30.9919 101.702C31.1143 102.269 31.0531 102.694 30.5635 102.906C30.3799 102.977 30.1963 103.332 30.4411 103.544C30.9919 104.04 31.2367 106.662 30.1963 106.166C30.0127 106.095 29.6455 106.237 29.7679 106.52C30.2575 108.15 28.0543 110.701 26.9527 108.788C26.6467 108.292 26.3407 108.363 25.9123 108.717C25.5451 109 25.1167 109.638 24.6271 109.567C24.1987 109.496 23.9539 108.788 23.7703 108.433C23.6479 108.221 23.3419 108.221 23.2195 108.433C22.8523 109 22.3015 109 21.8731 108.504C21.3835 107.937 21.5671 107.016 21.5059 106.308C21.5059 106.095 21.2611 105.883 21.0775 106.024C20.5267 106.379 20.0983 106.449 19.9147 105.67C19.7923 105.174 19.7923 104.607 19.8535 104.04C19.8535 103.828 19.6699 103.686 19.5475 103.757C18.2623 104.111 19.0579 102.269 19.4251 102.339C19.4251 102.339 19.4251 102.056 19.3027 101.985Z" fill="white"/>
<path d="M22.1793 43.4545C22.0569 42.179 21.7509 40.5492 20.3433 40.8327C18.9969 41.0453 18.7521 42.8876 18.1401 43.9505C18.2625 43.9505 18.4461 43.9505 18.5685 43.9505C18.1401 43.2419 17.4057 42.3208 16.5489 42.8168C15.7533 43.3128 15.8145 44.6591 16.0593 45.5095C16.1817 45.3678 16.3041 45.2969 16.4265 45.1552C15.8145 44.5883 14.8353 44.0214 14.0397 44.3048C13.1217 44.6591 13.4277 45.9346 13.6725 46.6432C13.7337 46.5015 13.7949 46.4307 13.8561 46.2889C13.2441 46.5015 12.5709 46.5724 12.3873 47.4227C12.1425 48.4147 12.5709 49.2651 13.2441 49.8319C13.2441 49.6902 13.1829 49.5485 13.1829 49.4068C12.2649 50.4697 13.1829 51.6035 13.7337 52.5246C13.7949 52.3829 13.8561 52.2412 13.9173 52.0286C12.8769 52.3121 12.5097 53.375 12.7545 54.5087C12.8769 54.367 12.9993 54.2253 13.1217 54.0836C12.2649 53.871 11.2857 53.5875 10.4901 54.0836C10.1841 54.2962 10.0005 54.5796 9.75571 54.863C9.44971 55.2173 9.0825 55.3591 8.6541 55.4299C7.9197 55.6425 7.3077 56.0677 7.1241 56.9888C6.9405 57.91 7.49131 58.6186 8.16451 59.0438C8.10331 58.9021 8.1033 58.7604 8.0421 58.5478C7.5525 59.3272 7.06291 60.3193 7.49131 61.2405C7.85851 61.9491 8.5929 62.2325 9.2661 61.9491C9.1437 61.8074 9.02131 61.6656 8.89891 61.5239C8.40931 63.9332 11.1633 64.004 12.1425 62.5868C12.0201 62.5868 11.8977 62.5868 11.7141 62.5868C12.1425 63.0828 12.7545 63.4371 13.3665 63.2246C14.0397 63.012 14.4681 62.3742 14.7129 61.7365C14.5293 61.7365 14.3457 61.7365 14.2233 61.7365C14.8965 63.0828 15.8757 61.453 16.3653 60.8153C16.4877 60.6736 16.6101 60.3193 16.7937 60.2484C16.6101 60.3193 16.9161 60.3902 17.0385 60.3902C17.1609 60.3902 17.2833 60.3901 17.4057 60.3193C18.0789 59.965 18.8133 58.8312 18.8745 57.9809C18.7521 58.0518 18.6297 58.1226 18.5073 58.1935C19.3029 58.3352 19.9149 58.2643 20.4657 57.5557C20.2821 57.414 20.1597 57.3432 19.9761 57.2014C19.7925 58.0518 19.8537 58.9729 20.5269 59.3981C21.1389 59.8233 21.9957 59.7524 22.6689 59.6107C22.5465 59.469 22.4241 59.3981 22.3017 59.2564C22.4241 60.3901 22.1793 61.5948 23.1585 62.3034C23.8929 62.8703 24.5049 62.0908 25.1169 61.5948C24.9945 61.5239 24.8109 61.4531 24.6885 61.3822C24.9333 62.1617 25.3617 63.012 26.1573 63.0828C26.9529 63.1537 27.5037 62.4451 27.8709 61.7365C28.0545 61.3113 27.5037 60.957 27.3201 61.3822C27.1365 61.8074 26.7693 62.4451 26.2797 62.4451C25.7289 62.4451 25.4229 61.8073 25.3005 61.3113C25.2393 61.0987 25.0557 60.957 24.8721 61.0988C24.5049 61.3822 23.9541 62.1617 23.4645 61.7365C22.8525 61.1696 23.0361 60.1776 22.9749 59.3981C22.9749 59.1855 22.7913 59.0438 22.6077 59.0438C22.1181 59.1855 21.5673 59.1855 21.1389 59.0438C20.5269 58.7604 20.4657 58.1935 20.5881 57.4849C20.6493 57.1306 20.2821 56.918 20.0985 57.1306C19.6701 57.6266 19.2417 57.6975 18.6909 57.5557C18.5685 57.5557 18.3849 57.6266 18.3237 57.7683C18.2625 58.2643 18.0177 58.6186 17.7729 58.9729C17.5281 59.3272 17.3445 59.6107 16.9161 59.6107C16.6101 59.6107 16.4877 59.6815 16.2429 59.965C15.9981 60.3193 15.8145 60.6736 15.5697 61.0279C15.3861 61.2405 15.0189 61.8782 14.8353 61.4531C14.7129 61.2405 14.4069 61.2405 14.3457 61.4531C13.8561 62.516 13.1217 63.0828 12.2649 62.1617C12.1425 62.0199 11.9589 62.0199 11.8365 62.1617C11.2245 63.012 9.2049 63.4371 9.5721 61.7365C9.6333 61.5239 9.44971 61.2405 9.20491 61.3113C8.71531 61.5239 8.16451 61.3113 7.98091 60.6027C7.85851 59.965 8.28691 59.3272 8.59291 58.9021C8.71531 58.7604 8.59291 58.5478 8.47051 58.4061C8.16451 58.1935 7.8585 57.9809 7.7361 57.5557C7.6137 57.1306 7.85851 56.5637 8.16451 56.2802C8.59291 55.9259 9.20491 55.9968 9.63331 55.7134C10.1229 55.4299 10.3065 54.9339 10.7349 54.5796C11.3469 54.0836 12.3873 54.4379 13.0605 54.5796C13.2441 54.6505 13.4889 54.4379 13.4277 54.1544C13.2441 53.3041 13.4277 52.5955 14.2233 52.4538C14.4069 52.3829 14.4681 52.1703 14.4069 51.9578C13.9785 51.32 13.0605 50.328 13.7337 49.5485C13.8561 49.4068 13.7949 49.1942 13.6725 49.1233C13.1217 48.6982 12.8157 47.8479 13.1217 47.1393C13.3053 46.7141 13.7949 46.7141 14.1621 46.5724C14.2845 46.5015 14.4069 46.3598 14.3457 46.2181C14.1621 45.6512 13.7949 44.5883 14.6517 44.5174C15.2637 44.5174 15.8757 44.9426 16.3653 45.3677C16.5489 45.5095 16.7937 45.226 16.7325 45.0134C16.6101 44.4466 16.4265 43.4545 16.9161 43.1002C17.4669 42.6751 18.0177 43.4545 18.2625 43.8797C18.3849 44.0923 18.6297 44.0923 18.6909 43.8797C19.1805 43.0294 19.2417 41.6121 20.0985 41.1161C21.3837 40.4075 21.6897 42.1082 21.8733 43.1711C21.8121 43.738 22.1793 43.738 22.1793 43.4545Z" fill="white"/>
<path d="M64.7131 43.1711C62.9995 43.8088 64.4071 47.0684 66.0595 45.7929C65.9371 45.722 65.8147 45.6512 65.6923 45.5803C65.8147 46.2889 65.4475 46.9267 65.5699 47.6353C65.6923 48.4147 66.6103 48.3439 67.0999 48.273C66.9775 48.1313 66.9163 47.9896 66.7939 47.8479C66.6103 48.769 66.5491 49.9028 67.1611 50.6823C67.7731 51.4617 68.6911 51.4617 69.4867 51.1783C69.6703 51.1074 69.8539 50.9657 70.0375 50.9657C70.2823 50.9657 70.4659 51.1783 70.6495 51.32C70.8943 51.6035 71.1391 51.6743 71.5063 51.6035C72.4855 51.32 72.9751 50.0445 73.2199 48.9816C73.0975 49.0525 72.9751 49.1233 72.8527 49.2651C73.9543 49.5485 74.2603 48.2022 74.4439 47.281C74.5663 46.6432 74.9335 46.2889 75.3619 45.7929C75.7903 45.226 76.0963 44.73 76.1575 43.9505C76.0351 44.0923 75.8515 44.1631 75.7291 44.3048C76.5247 44.6591 77.1367 44.0214 77.8099 43.5962C77.6875 43.5254 77.5039 43.5254 77.3815 43.4545C77.8099 44.5883 78.3607 46.7141 79.8295 45.722C79.6459 45.5803 79.5235 45.4386 79.3399 45.2969C79.2175 46.2889 78.9727 47.3518 79.1563 48.3439C79.3399 49.5485 80.1967 49.8319 81.1147 49.4776C80.9923 49.3359 80.8087 49.2651 80.6863 49.1233C80.6863 49.7611 80.4415 50.328 80.3803 51.0366C80.3191 51.6034 80.5027 52.2412 80.8087 52.7372C81.4819 53.5875 82.4611 53.1624 83.1955 52.6664C83.0119 52.5955 82.8895 52.5246 82.7059 52.4538C82.8895 53.3041 82.8895 54.2253 83.6851 54.5796C84.1135 54.7922 84.4807 54.6505 84.9091 54.367C85.0315 54.2962 85.1539 54.2253 85.2151 54.1544C85.3987 54.0836 85.2763 54.0127 85.3987 54.0836C85.4599 54.1544 85.5823 54.367 85.7047 54.4379C86.4391 55.0047 86.9287 55.4299 87.8467 55.1465C88.7035 54.863 89.0095 54.2253 88.8871 53.2332C88.8259 52.7372 88.2139 52.7372 88.2139 53.2332C88.2139 53.5875 88.2751 54.0127 88.0303 54.2253C87.7855 54.4379 87.1735 54.5796 86.8675 54.4379C86.6227 54.367 86.4391 54.0836 86.1943 53.9418C86.1943 53.9418 85.8883 53.8001 85.9495 53.8001C85.8883 53.7293 85.8883 53.5875 85.8271 53.5167C85.3987 53.0207 84.7867 53.5875 84.4195 53.8001C83.4403 54.2962 83.4403 53.0207 83.3179 52.3121C83.2567 52.0286 83.0119 51.9578 82.8283 52.0995C82.1551 52.5246 81.3595 52.9498 81.0535 51.816C80.8699 50.9657 81.3595 50.1154 81.3595 49.3359C81.3595 49.1233 81.1759 48.9108 80.9311 48.9816C80.6251 49.1233 80.1967 49.2651 79.9519 48.9816C79.7683 48.769 79.7071 48.273 79.7071 47.9896C79.7071 47.2101 79.8295 46.5015 79.8907 45.722C79.9519 45.4386 79.7071 45.1552 79.4011 45.2969C78.4219 45.9346 78.1771 44.0214 77.8711 43.3128C77.8099 43.1002 77.5651 43.1002 77.4427 43.1711C76.9531 43.4545 76.4635 44.0214 75.8515 43.8088C75.6067 43.738 75.4843 43.9505 75.4231 44.1631C75.3007 45.3677 74.2603 45.7929 73.8319 46.7849C73.6483 47.281 73.5871 48.9816 72.9139 48.769C72.7303 48.6982 72.5467 48.8399 72.5467 49.0525C72.4243 49.4776 72.3019 49.9737 72.0571 50.328C71.8735 50.6114 71.4451 51.32 71.0779 51.1074C70.8943 50.9657 70.7719 50.7531 70.5271 50.6114C70.2823 50.4697 70.0375 50.3988 69.7315 50.4697C69.0583 50.6823 68.3239 51.1783 67.6507 50.5405C67.0999 49.9737 67.1611 48.9816 67.2835 48.2022C67.3447 47.9896 67.2223 47.777 66.9775 47.777C66.7939 47.777 66.1819 47.9187 65.9983 47.7061C65.9371 47.5644 65.9983 47.3518 65.9983 47.2101C66.0595 46.6432 66.1819 46.1472 66.0595 45.5803C65.9983 45.3677 65.8147 45.2969 65.6923 45.3677C64.6519 46.2181 63.6115 44.3048 64.7131 43.5962C64.9579 43.4545 64.8967 43.1002 64.7131 43.1711Z" fill="white"/>
<path d="M14.4682 104.182C13.6114 105.103 11.5306 106.662 12.5098 108.292C13.2442 109.496 14.713 108.433 15.6922 108.575C15.5698 108.363 15.4474 108.079 15.325 107.867C14.5294 109.355 13.1218 111.339 14.6518 112.898C16.0594 114.315 17.5894 112.614 18.8746 111.764C18.691 111.551 18.4462 111.41 18.2626 111.197C17.773 112.685 17.2834 114.953 18.2014 116.441C19.2418 118.212 21.2002 116.582 22.1794 115.661C21.9346 115.52 21.6286 115.378 21.3838 115.307C21.2614 116.653 21.5062 118.496 22.5466 119.346C23.0974 119.771 23.8318 119.842 24.4438 119.559C25.0558 119.275 25.4842 118.708 26.0962 118.354C25.8514 118.212 25.6066 118.141 25.423 118C25.7902 119.346 26.7694 120.409 28.0546 120.055C29.2786 119.771 29.8906 118.354 29.8294 117.008C29.5234 117.149 29.2786 117.291 28.9726 117.433C29.7682 118.283 30.931 118.354 31.7266 117.433C32.5222 116.653 32.7058 115.307 32.0938 114.315C31.7266 113.748 30.9922 114.244 31.237 114.882C31.7266 116.228 32.9506 116.653 33.9298 115.661C34.909 114.669 35.0314 112.969 34.297 111.764C34.0522 111.977 33.8074 112.189 33.5626 112.473C34.2358 113.181 35.0926 113.323 35.7046 112.402C36.1942 111.693 36.439 110.488 36.133 109.567C35.8882 109.78 35.6434 109.992 35.3986 110.205C36.2554 110.843 37.1734 110.488 37.663 109.426C37.357 109.426 37.1122 109.426 36.8062 109.426C37.5406 110.63 39.0094 110.488 39.6214 109.213C39.3154 109.071 39.0094 108.929 38.7034 108.788C38.5198 109.284 38.581 109.922 39.0706 110.205C39.5602 110.488 40.111 110.134 40.417 109.709C40.7842 109.142 40.111 108.363 39.7438 108.93C39.6826 109.071 39.6214 109.142 39.499 109.213C39.6214 109.355 39.6214 109.355 39.6826 109.142C39.8662 108.575 39.0706 108.15 38.7646 108.717C38.5198 109.213 37.9078 109.496 37.6018 108.93C37.4182 108.646 36.9286 108.504 36.745 108.93C36.5002 109.426 36.2554 109.567 35.827 109.284C35.521 109.071 34.9702 109.426 35.0926 109.922C35.3374 110.63 35.0314 112.685 34.1746 111.693C33.8074 111.268 33.073 111.835 33.4402 112.402C33.8686 113.11 33.9298 114.031 33.379 114.74C32.8282 115.378 32.3386 115.094 32.0326 114.315C31.7266 114.527 31.4818 114.669 31.1758 114.882C31.9102 116.086 30.5638 117.645 29.5846 116.582C29.2786 116.299 28.7278 116.441 28.7278 117.008C28.789 117.787 28.5442 118.708 27.7486 118.921C26.953 119.133 26.4634 118.425 26.2186 117.645C26.0962 117.291 25.7902 117.149 25.5454 117.291C24.7498 117.716 23.893 119.063 22.975 118.283C22.2406 117.645 22.1794 116.157 22.2406 115.236C22.3018 114.74 21.751 114.598 21.445 114.882C20.8942 115.449 19.2418 117.008 18.691 115.59C18.2014 114.315 18.6298 112.685 18.997 111.48C19.1194 111.055 18.691 110.701 18.385 110.914C17.5894 111.48 16.243 113.039 15.2638 112.26C13.9786 111.197 15.5086 109.426 15.9982 108.363C16.1206 108.008 15.937 107.654 15.631 107.654C15.2026 107.654 14.8354 107.796 14.407 107.867C14.101 107.937 13.4278 108.15 13.1218 107.867C12.3262 107.087 14.3458 105.103 14.7742 104.607C15.0802 104.324 14.713 103.898 14.4682 104.182Z" fill="white"/>
<path d="M13.9785 103.898C13.4889 104.394 12.6321 104.394 12.0813 103.969C11.8365 103.757 11.6529 103.402 11.6529 102.977C11.6529 102.552 12.0813 102.269 12.2649 101.843C12.6321 100.922 11.8365 100.001 12.5709 99.2216C12.8157 99.009 13.1217 98.8673 13.4277 98.6548C13.7949 98.3713 14.0397 98.0879 14.2845 97.6627C14.4069 97.4501 14.3457 97.0958 14.2233 96.9541C13.9173 96.6707 13.4277 96.2455 13.6113 95.7495C13.7949 95.1826 14.1621 94.6866 14.4069 94.1905C14.8353 93.3402 14.9577 92.4899 14.1621 91.923C13.4277 91.427 12.5709 91.3561 11.7753 91.2144C11.5917 91.2144 11.2245 91.1435 11.1021 90.931C10.9185 90.5767 11.4081 89.7972 11.5305 89.5138C11.7141 89.0886 11.4081 88.5926 10.9797 88.6634C10.4289 88.8052 8.53172 89.3012 8.22572 88.38C8.16452 88.1674 7.98092 87.9548 7.73612 87.9548C6.81812 87.884 5.96132 87.884 5.04332 87.6714C4.79852 87.6005 4.24772 87.4588 4.12532 87.2462C4.00292 87.0336 4.61492 86.4668 4.79852 86.2542C5.10453 85.9707 4.85972 85.333 4.43132 85.333C3.26852 85.333 0.942921 84.2701 2.28932 82.7112C2.47292 82.4986 2.47292 82.1443 2.28932 81.9317C1.79972 81.3648 1.24892 80.6562 1.00412 79.8768C0.759318 78.9556 1.18772 78.3887 1.92212 78.1052C2.22812 77.9635 2.41172 77.6092 2.22812 77.2549C1.43252 75.696 1.67733 72.153 3.88053 72.7199C4.24773 72.7907 4.73732 72.2947 4.43132 71.8695C3.81932 70.8066 4.49252 67.2636 5.90012 68.4682C6.32852 68.8225 6.75692 68.2557 6.69572 67.7596C6.63452 67.2636 6.57332 66.6259 6.87932 66.2007C7.24652 65.7755 7.79732 65.9173 8.28692 66.059C8.96012 66.2716 9.26612 65.0669 8.59292 64.8543C7.79732 64.5709 6.81812 64.5709 6.14492 65.3504C5.53292 66.059 5.53292 67.1927 5.71652 68.1139C5.96132 67.9014 6.26732 67.6179 6.51212 67.4053C4.12532 65.4212 2.41172 70.5232 3.63572 72.5073C3.81932 72.2238 4.00292 71.9404 4.18652 71.6569C1.12653 70.8775 0.147325 75.4126 1.43252 77.8927C1.55492 77.6092 1.61612 77.3258 1.73852 77.0423C0.698125 77.4675 -0.158677 78.3178 0.0249232 79.735C0.208523 80.9397 0.942921 81.9317 1.67732 82.7112C1.67732 82.4277 1.67732 82.2151 1.67732 81.9317C0.881721 82.8529 0.698123 84.1284 1.55492 85.1204C2.28932 85.9707 3.45213 86.3959 4.49253 86.4668C4.37012 86.1833 4.24772 85.829 4.12532 85.5456C3.63572 85.9707 3.08492 86.6085 3.14612 87.3171C3.20732 88.0257 3.69693 88.38 4.18652 88.5926C5.28813 89.0886 6.51212 89.0886 7.67492 89.1595C7.49132 89.0177 7.36892 88.876 7.18532 88.7343C7.67492 90.5058 9.93932 90.1515 11.1021 89.7972C10.9185 89.5138 10.7349 89.2303 10.5513 88.9469C10.1229 89.7972 9.57212 91.0727 10.3677 91.7813C10.9797 92.3482 11.8977 92.2773 12.6321 92.4899C12.8769 92.5608 13.5501 92.7733 13.6113 92.9859C13.6113 93.1985 13.3665 93.5528 13.3053 93.6945C13.1217 94.0488 12.9381 94.3323 12.7545 94.6866C12.5097 95.1826 12.3261 95.6786 12.3873 96.2455C12.5097 96.8832 12.9381 97.3793 13.3665 97.8044C13.3665 97.5918 13.3053 97.3084 13.3053 97.0958C12.7545 98.017 11.6529 98.0879 11.2245 99.2216C11.1021 99.5759 11.0409 99.9302 11.0409 100.214C11.0409 100.497 11.1633 100.781 11.2245 101.064C11.2857 101.631 10.6125 102.056 10.5513 102.623C10.3677 103.686 11.0409 104.678 11.8365 105.032C12.6933 105.386 13.6725 105.103 14.2845 104.394C14.7741 104.111 14.3457 103.615 13.9785 103.898Z" fill="white"/>
<path d="M46.9653 107.654C47.1489 108.15 47.3325 108.575 47.6997 108.859C48.0057 109.071 48.3729 109.142 48.6789 109.071C49.5357 108.859 49.9029 107.796 49.9641 106.875C49.7805 107.016 49.5969 107.229 49.4133 107.371C50.0253 107.654 50.8209 107.725 51.4329 107.371C52.1673 106.945 52.2285 106.024 51.9837 105.174C51.9225 104.89 51.6777 104.749 51.4329 104.82C51.1881 104.89 51.0657 105.174 51.1269 105.457C51.1881 105.599 51.2493 105.812 51.2493 105.882C51.2493 105.953 51.2493 106.024 51.2493 106.095C51.2493 106.024 51.2493 106.166 51.2493 106.095V106.166C51.2493 106.237 51.1881 106.237 51.1881 106.308L51.1269 106.378C51.0657 106.449 51.1881 106.308 51.1269 106.378C51.1269 106.378 51.0657 106.379 51.0657 106.449C51.0045 106.52 51.1269 106.449 51.0657 106.449C51.0045 106.449 50.9433 106.52 50.8821 106.52H50.8209C50.6985 106.52 50.5761 106.52 50.4537 106.52C50.3925 106.52 50.3925 106.52 50.3313 106.52C50.2701 106.52 50.2089 106.52 50.1477 106.449C50.0253 106.379 49.9029 106.378 49.7805 106.308C49.4745 106.166 49.2297 106.52 49.2297 106.804C49.2297 107.087 49.1685 107.441 49.0461 107.725C48.9849 107.867 48.9237 107.867 48.8625 108.008C48.8013 108.079 48.7401 108.15 48.6789 108.15C48.5565 108.221 48.5565 108.221 48.4341 108.221C48.3729 108.221 48.3117 108.15 48.1893 108.15C47.9445 108.008 47.6997 107.654 47.5773 107.371C47.2713 107.158 46.8429 107.371 46.9653 107.654Z" fill="white"/>
<path d="M59.6338 101.489C59.6338 102.056 59.9398 102.623 60.4906 102.623C61.0414 102.623 61.531 102.127 61.8982 101.702C62.3266 101.135 62.6326 100.568 62.6938 99.7885C62.755 99.505 62.6938 99.1507 62.755 98.8673C62.8162 98.5838 62.9998 98.3713 63.1834 98.1587C63.4282 97.9461 63.673 97.7335 63.8566 97.4501C64.1014 97.0958 64.1626 96.5998 64.1014 96.1037C63.8566 96.2455 63.6118 96.3163 63.367 96.458C63.673 96.7415 63.979 96.9541 64.285 97.0958C64.5298 97.2375 64.7746 97.3084 64.897 97.5918C65.203 98.1587 65.4478 98.7256 66.121 98.7256C66.4882 98.7256 66.733 98.0878 66.3046 97.8752C66.121 97.7335 65.9374 97.7335 65.815 97.5209C65.6926 97.3084 65.5702 97.0249 65.4478 96.8832C65.0194 96.3163 64.4074 96.3163 63.9178 95.8203C63.673 95.5369 63.1834 95.6786 63.1834 96.1746C63.1834 96.5289 63.1834 96.8123 62.9386 97.0958C62.755 97.3084 62.5102 97.5209 62.3266 97.7335C62.0818 98.017 61.8982 98.3713 61.837 98.7964C61.7758 99.1507 61.7758 99.505 61.7758 99.7885C61.7146 100.497 61.3474 100.993 60.919 101.418C60.7354 101.56 60.5518 101.843 60.307 101.843C60.1846 101.843 60.1234 101.631 60.0622 101.418C60.0622 101.064 59.6338 101.135 59.6338 101.489Z" fill="white"/>
<path d="M68.4463 98.513C69.7315 99.8594 71.4451 98.4422 72.0571 96.9541C72.4855 95.9621 72.2407 94.8283 72.9751 93.978C73.5259 93.3402 73.9543 92.8442 74.0767 91.8522C73.8931 91.9939 73.7095 92.2065 73.4647 92.3482C74.4439 92.6316 75.4843 92.4899 76.1575 91.5687C76.8307 90.6475 76.9531 89.372 76.8919 88.2383C76.6471 88.4508 76.4635 88.5926 76.2187 88.8052C77.3815 89.2303 78.6667 89.1595 79.7071 88.4509C80.8699 87.6714 81.3595 86.325 81.4207 84.837C81.0535 84.9787 80.7475 85.0496 80.3803 85.1913C81.4819 87.388 83.7463 86.6085 84.7867 84.837C84.4195 84.6953 84.1135 84.6244 83.7463 84.4827C83.6851 85.829 83.5015 87.388 84.4807 88.38C85.3987 89.3012 86.3779 88.5217 87.3571 88.2383C87.1123 87.9548 86.9287 87.7423 86.6839 87.4588C86.1331 89.3012 86.0719 92.9151 88.3363 92.9859C88.1527 92.7733 87.9691 92.5608 87.7855 92.3482C87.7243 93.2694 87.7855 94.2614 88.3363 95.0409C88.8259 95.6786 89.5603 96.0329 90.1723 96.3872C90.7843 96.7415 91.3351 95.6786 90.7231 95.3243C90.2335 95.0409 89.6215 94.7574 89.2543 94.3323C88.8259 93.8362 88.8871 93.0568 88.9483 92.3482C88.9483 91.9939 88.7035 91.7104 88.3975 91.7104C86.9899 91.6396 87.4795 88.6634 87.7855 87.7422C87.9691 87.2462 87.4795 86.8919 87.1123 86.9628C86.5615 87.1045 85.6435 87.8131 85.2151 87.3171C84.6031 86.6085 84.9091 85.333 84.9091 84.4118C84.9091 83.7032 84.1747 83.6323 83.8687 84.0575C83.2567 85.0496 81.9715 85.6873 81.2983 84.4118C80.9923 83.8449 80.3191 84.1284 80.2579 84.7661C80.2579 85.829 79.8295 86.8211 78.9727 87.3879C78.1771 87.884 77.2591 87.8131 76.4023 87.5297C76.0963 87.3879 75.7291 87.7422 75.7291 88.0965C75.7903 88.876 75.7291 89.7972 75.3619 90.5058C74.9335 91.2853 74.3215 91.3561 73.5871 91.1435C73.2811 91.0727 73.0363 91.2853 72.9751 91.6396C72.9139 92.3482 72.4243 92.7025 72.0571 93.1276C71.6287 93.6945 71.4451 94.3323 71.3227 95.1117C71.2003 95.9621 71.0167 96.5998 70.4659 97.2375C69.9763 97.8044 69.3031 98.2296 68.6299 97.8044C68.5075 97.8753 68.2015 98.3004 68.4463 98.513Z" fill="white"/>
<path d="M97.5165 100.426C97.2105 101.489 98.2508 102.765 99.1688 102.765C99.6584 102.765 100.087 102.481 100.393 102.127C100.76 101.773 101.005 101.277 101.494 101.135C101.311 100.993 101.066 100.851 100.882 100.71C101.127 102.41 102.596 102.836 103.881 102.552C104.616 102.339 105.228 101.702 105.962 101.489C106.329 101.418 106.758 101.489 107.125 101.56C107.614 101.631 108.043 101.489 108.471 101.277C108.226 101.064 107.92 100.781 107.676 100.568C107.431 101.631 107.002 102.765 107.125 103.898C107.308 105.103 108.226 105.67 109.206 105.882C109.083 105.599 108.961 105.245 108.9 104.961C108.41 106.166 107.798 107.3 107.492 108.575C107.37 109.213 107.308 109.922 107.553 110.488C107.859 111.126 108.532 111.339 109.144 111.268C108.961 110.984 108.777 110.701 108.594 110.418C108.41 111.764 108.288 113.465 109.267 114.457C109.818 115.023 110.491 115.236 111.225 115.094C111.898 114.953 112.633 114.527 113.245 114.74C113.612 114.882 113.796 115.378 114.04 115.732C114.346 116.228 114.775 116.582 115.264 116.724C116.611 117.149 117.712 115.803 118.814 115.165C118.569 115.023 118.263 114.882 118.018 114.811C118.447 116.37 119.671 117.362 121.078 116.724C122.302 116.228 123.098 114.74 122.608 113.252C122.364 113.465 122.119 113.677 121.874 113.89C122.425 114.315 122.914 114.882 123.526 115.165C124.138 115.449 124.812 115.378 125.362 115.023C126.525 114.386 127.137 112.898 126.525 111.551C126.342 111.835 126.158 112.118 125.913 112.473C127.076 112.827 128.545 112.189 129.34 111.197C129.708 110.772 129.952 110.134 129.83 109.567C129.646 108.788 128.973 108.433 128.361 108.15C128.3 108.575 128.239 108.929 128.239 109.355C129.218 109.496 130.32 109.284 130.87 108.221C131.36 107.229 131.115 106.024 130.687 105.032C130.564 105.316 130.503 105.599 130.381 105.882C131.544 105.528 132.829 104.961 133.502 103.757C134.175 102.552 133.441 101.56 132.89 100.568C132.768 100.851 132.706 101.135 132.584 101.418C133.686 101.135 134.91 100.426 135.522 99.2925C136.256 97.9461 135.46 96.7415 134.359 96.1746C134.298 96.5289 134.298 96.8832 134.236 97.3084C135.277 97.0958 136.378 96.2455 136.501 94.8991C136.623 93.4819 135.583 92.6316 134.542 92.3482C134.542 92.7733 134.542 93.1276 134.542 93.5528C135.766 93.1276 137.113 92.2064 136.929 90.5058C136.746 89.0177 135.583 88.0257 134.42 87.6005C134.542 87.884 134.665 88.0965 134.787 88.38C135.093 87.0336 136.378 85.8999 135.828 84.4118C135.399 83.4198 134.114 82.3569 133.135 82.4986C133.318 82.782 133.441 83.1363 133.624 83.4198C134.114 82.286 134.359 80.8688 133.808 79.735C133.196 78.5304 131.911 78.4595 130.87 78.743C131.054 79.0973 131.238 79.4516 131.421 79.8059C132.89 78.1052 130.564 76.4046 129.402 75.6251C129.402 75.9794 129.402 76.3337 129.402 76.688C130.136 76.2629 131.299 75.3417 130.626 74.2788C130.075 73.3576 128.79 73.0741 127.994 72.8616C128.055 73.2159 128.178 73.5702 128.239 73.9245C128.667 73.2867 128.912 72.5781 128.606 71.8695C128.3 71.2318 127.749 70.7358 127.382 70.1689C127.321 70.5232 127.198 70.8775 127.137 71.2318C127.749 71.0192 128.3 70.4523 128.3 69.602C128.361 68.8934 127.933 68.2556 127.321 68.1139C126.648 67.9722 126.342 69.1768 127.015 69.3185C127.382 69.3894 127.015 69.8854 126.77 69.9563C126.342 70.098 126.28 70.6649 126.525 71.0192C126.892 71.5152 127.933 72.2238 127.382 73.0033C127.137 73.3576 127.198 73.9245 127.627 74.0662C128.239 74.2788 128.912 74.4205 129.463 74.8457C129.524 74.9165 129.646 74.9165 129.646 74.9874C129.708 75.0582 129.646 74.8457 129.646 74.9165C129.585 75.2 128.973 75.4834 128.79 75.6251C128.422 75.8377 128.422 76.4755 128.79 76.688C129.218 76.9715 131.176 78.1052 130.564 78.8138C130.197 79.3099 130.564 80.0185 131.115 79.8767C131.727 79.735 132.584 79.6642 132.89 80.4436C133.196 81.1522 132.951 82.0734 132.706 82.7112C132.523 83.0655 132.706 83.7032 133.196 83.6323C133.808 83.5615 134.91 84.3409 134.971 85.0495C135.032 85.5456 134.665 86.0416 134.481 86.3959C134.236 86.8919 133.992 87.3879 133.869 87.884C133.808 88.2383 133.93 88.5217 134.236 88.6634C134.971 88.9469 135.828 89.5138 135.95 90.4349C136.072 91.4978 135.032 91.9939 134.359 92.2064C133.869 92.3482 133.808 93.2693 134.359 93.4111C134.91 93.5528 135.705 93.9071 135.583 94.6866C135.46 95.466 134.665 95.8912 134.114 96.0329C133.686 96.1038 133.563 96.8832 133.992 97.1667C134.726 97.5918 135.216 98.1587 134.542 98.9382C133.992 99.6468 133.196 100.072 132.462 100.214C132.156 100.285 131.972 100.781 132.156 101.064C132.4 101.418 132.645 101.843 132.829 102.198C133.012 102.623 132.89 102.906 132.645 103.261C132.094 104.04 131.115 104.394 130.258 104.607C129.891 104.678 129.83 105.174 129.952 105.457C130.197 106.024 130.381 106.875 130.075 107.441C129.769 108.15 128.912 108.079 128.361 107.937C127.749 107.867 127.688 108.929 128.239 109.142C128.484 109.213 128.973 109.426 128.912 109.78C128.912 110.063 128.606 110.276 128.422 110.418C127.872 110.914 127.015 111.268 126.28 111.126C125.852 110.984 125.485 111.551 125.668 112.047C126.097 112.898 125.301 113.819 124.567 114.031C123.71 114.173 123.098 113.323 122.486 112.827C122.119 112.543 121.629 113.039 121.752 113.465C121.996 114.315 121.568 115.094 120.895 115.378C120.099 115.732 119.426 115.236 119.181 114.315C119.059 113.89 118.692 113.748 118.386 113.961C117.651 114.457 116.488 115.803 115.57 115.307C114.897 114.953 114.652 113.961 113.979 113.535C113.551 113.252 113 113.252 112.51 113.323C111.898 113.394 111.286 113.819 110.674 113.748C109.512 113.465 109.634 111.693 109.756 110.701C109.818 110.347 109.634 109.851 109.206 109.851C108.9 109.851 108.594 109.922 108.532 109.567C108.471 109.071 108.655 108.575 108.777 108.15C109.083 107.229 109.512 106.379 109.879 105.457C110.001 105.103 109.94 104.607 109.573 104.536C108.9 104.394 108.226 104.182 108.288 103.332C108.288 102.481 108.594 101.631 108.777 100.851C108.9 100.285 108.41 99.9302 107.982 100.143C107.308 100.497 106.635 100.143 105.962 100.214C105.289 100.355 104.799 100.851 104.187 101.135C103.33 101.56 102.045 101.702 101.862 100.355C101.8 100.072 101.494 99.8594 101.25 99.9302C100.576 100.143 100.209 100.71 99.7197 101.277C99.4749 101.56 99.23 101.773 98.8628 101.631C98.4956 101.56 98.0061 101.064 98.0673 100.568C98.1897 100.143 97.6389 99.9302 97.5165 100.426Z" fill="white"/>
<path d="M130.014 74.3496C130.932 74.4914 132.033 73.9245 132.707 73.2867C133.502 72.5781 133.563 71.5152 132.584 70.8775C132.584 71.1609 132.584 71.4444 132.584 71.7278C134.726 70.594 134.91 66.7676 132.768 65.5629C132.829 65.7755 132.89 66.059 132.951 66.2715C133.441 65.4921 133.808 64.6418 133.931 63.6497C134.053 62.7285 134.053 61.8073 134.298 60.957C134.481 60.2484 134.849 59.5398 134.849 58.6895C134.849 57.7683 134.298 57.2014 133.686 56.7763C133.747 57.0597 133.808 57.2723 133.869 57.5557C134.481 56.4928 134.787 55.0048 134.298 53.8001C133.869 52.8081 132.951 52.5246 132.156 52.0995C131.727 51.8869 131.544 51.9578 131.421 51.32C131.299 50.7531 131.115 50.2571 130.748 49.9737C129.891 49.2651 128.606 49.4068 127.749 50.1154C127.933 50.1154 128.178 50.1862 128.361 50.1862C128.178 49.9737 128.055 49.7611 127.994 49.4776C127.933 49.6902 127.811 49.9028 127.749 50.1862C128.667 49.6194 129.524 48.6982 129.891 47.4936C130.075 46.9267 130.014 46.3598 130.075 45.7929C130.075 45.2969 130.32 44.8717 130.503 44.5174C130.809 43.8797 131.177 43.1711 131.115 42.4625C131.054 41.4704 130.136 41.1161 129.402 41.0453C129.524 41.2578 129.647 41.5413 129.769 41.7539C130.197 40.3367 130.014 38.7777 128.973 37.7857C127.933 36.7936 126.525 37.0062 125.363 37.644C125.607 37.7857 125.852 37.9983 126.097 38.14C126.158 36.7228 126.709 35.2347 126.158 33.8175C125.913 33.1089 125.363 32.6837 124.751 32.4712C124.445 32.4003 124.139 32.4003 123.894 32.4712C123.833 32.4712 123.343 32.6837 123.343 32.7546C123.343 32.6837 123.833 32.8255 123.527 32.8255C123.894 32.8963 123.649 32.9672 123.649 32.7546C123.649 32.6129 123.527 32.3294 123.465 32.1169C123.404 31.55 123.527 30.9831 123.404 30.4162C123.282 29.6367 122.67 28.6447 121.935 28.5738C121.385 28.503 120.895 29.0699 120.405 28.999C120.038 28.9281 120.038 28.4321 119.977 28.1487C119.855 27.6527 119.732 27.1566 119.487 26.7315C119.059 25.952 118.386 25.2434 117.529 25.2434C116.611 25.2434 115.938 25.952 115.448 26.8023C115.754 26.8023 116.06 26.8023 116.305 26.8023C115.815 25.6686 115.142 24.3931 114.041 24.1096C113.551 23.9679 113 24.1096 112.633 24.5348C112.327 24.8891 112.266 25.3143 112.021 25.6686C111.776 26.0229 111.531 25.5977 111.287 25.3851C110.919 25.0308 110.552 24.6057 110.063 24.4639C108.716 24.0388 108.104 25.5268 107.553 26.5897C107.859 26.5897 108.165 26.5897 108.41 26.5897C107.982 25.8811 107.37 25.3143 106.635 25.6686C105.962 25.952 105.534 26.8732 105.35 27.6527C105.167 28.4321 106.207 28.7156 106.391 28.007C106.574 27.2983 107.064 26.3063 107.615 27.2275C107.859 27.5818 108.288 27.5818 108.471 27.2275C108.716 26.8023 108.9 26.2354 109.267 25.8811C109.695 25.5268 110.001 25.7394 110.369 26.0229C110.919 26.5189 111.654 27.3692 112.388 26.8732C112.694 26.7315 112.878 26.3772 113 26.0937C113.123 25.8103 113.184 25.456 113.49 25.3143C114.408 24.96 115.142 26.7315 115.448 27.4401C115.632 27.8652 116.121 27.7944 116.305 27.4401C116.672 26.8023 117.223 26.2354 117.896 26.5897C118.631 27.0149 118.875 27.9361 119.059 28.7156C119.181 29.4242 119.487 29.991 120.161 30.1328C120.711 30.2745 121.14 29.991 121.691 29.7785C122.486 29.495 122.547 30.9831 122.547 31.55C122.547 32.1877 122.67 33.1089 123.037 33.6049C123.343 33.9592 123.649 33.8175 124.016 33.6758C124.383 33.4632 124.873 33.5341 125.179 33.9592C125.546 34.4553 125.485 35.3056 125.424 35.8725C125.363 36.5811 125.179 37.2897 125.179 38.0691C125.179 38.5652 125.607 38.7777 125.913 38.5652C126.709 38.14 127.688 37.9983 128.423 38.636C129.157 39.2738 129.157 40.4075 128.851 41.3287C128.79 41.6121 128.973 42.0373 129.218 42.0373C129.647 42.1082 130.32 42.1082 130.136 42.7459C130.014 43.3128 129.647 43.8797 129.402 44.4466C129.279 44.73 129.157 45.0843 129.157 45.4386C129.096 45.8638 129.218 46.3598 129.096 46.8558C128.912 47.8479 128.117 48.6273 127.382 49.1233C127.199 49.2651 127.076 49.5485 127.137 49.8319C127.26 50.328 127.505 50.7531 127.749 51.0366C127.872 51.1783 128.178 51.32 128.361 51.1074C128.912 50.6823 130.197 50.3988 130.503 51.32C130.626 51.6743 130.626 52.0995 130.809 52.3829C130.993 52.7372 131.299 52.8789 131.605 53.0207C131.911 53.1624 132.217 53.375 132.523 53.5167C132.768 53.6584 133.135 53.7293 133.319 53.9419C134.053 54.7213 133.625 56.1385 133.135 56.918C133.013 57.1306 133.074 57.5557 133.319 57.6975C133.931 58.0518 134.114 58.4769 133.931 59.2564C133.747 59.8941 133.502 60.5319 133.38 61.1696C133.257 61.8782 133.257 62.6577 133.135 63.3663C133.013 64.2166 132.707 64.9961 132.278 65.7047C132.156 65.9173 132.217 66.3424 132.462 66.4133C134.053 67.2636 133.869 70.0272 132.339 70.8066C132.033 70.9483 132.095 71.5152 132.339 71.6569C132.584 71.7987 132.768 71.8695 132.645 72.153C132.523 72.4364 132.217 72.649 131.972 72.8616C131.483 73.2159 130.809 73.5702 130.197 73.5702C129.647 73.641 129.647 74.2788 130.014 74.3496Z" fill="white"/>
<path d="M5.53295 66.9093C4.85975 66.6258 3.69696 66.555 3.26856 65.7755C2.71776 64.7835 4.06415 64.004 4.67615 63.7206C5.10455 63.508 4.85975 62.6577 4.43135 62.6577C3.20735 62.7285 2.47295 60.957 3.69695 60.1776C4.06415 59.8941 4.00296 59.1855 3.57456 59.0438C1.86096 58.5478 1.61615 55.9259 2.77895 54.6504C2.96255 54.4379 2.96255 54.1544 2.84015 53.871C2.47295 53.0915 1.79975 51.3909 2.53415 50.6114C2.77895 50.3988 3.08495 50.4697 3.32975 50.4697C3.75815 50.4697 4.12536 50.328 4.49256 50.0445C4.85976 49.7611 5.04336 49.3359 5.10456 48.8399C5.16576 48.4147 5.04335 47.777 5.28815 47.4227C5.96135 46.5015 7.06295 48.1313 7.49135 48.6982C7.73615 49.0525 8.34815 48.8399 8.40935 48.4147C8.65415 47.281 9.08256 45.6512 10.3066 46.4306C10.7962 46.7141 11.2858 46.1472 11.041 45.5803C10.7962 44.9426 10.735 43.4545 11.5918 43.5254C12.0814 43.5254 12.265 42.8168 11.959 42.4625C11.5306 41.8956 10.4289 39.9824 11.4081 39.4863C11.7753 39.3446 11.8977 38.9903 11.7141 38.5651C11.4081 37.7857 11.041 36.9354 10.9186 36.085C10.8574 35.093 11.347 34.7387 12.1426 34.597C12.4486 34.5261 12.571 34.1009 12.5098 33.8175C12.3874 32.9672 11.653 31.9751 11.7754 31.1248C11.8978 30.2036 12.8158 30.3453 13.3054 30.7705C13.6114 31.0539 14.1621 30.6996 14.1621 30.2036C14.1009 29.1407 13.6726 27.3692 14.5906 26.6606C15.325 26.0937 16.4266 26.448 17.161 25.952C18.0178 25.3851 17.7118 24.1805 17.6506 23.1884C17.6506 22.6216 17.8341 22.0547 18.4461 22.0547C18.9969 22.0547 19.4866 22.4798 19.8538 22.8341C20.0986 23.0467 20.4046 22.8341 20.527 22.6216C20.7106 22.2673 21.139 21.2044 21.6286 21.4169C22.1794 21.7004 22.669 22.4798 23.0974 22.9759C23.281 23.1884 23.587 23.1884 23.8318 22.9759C24.4438 22.409 25.1169 20.7083 26.0961 20.85C27.0142 20.9918 27.5038 22.6216 28.0546 23.2593C28.2994 23.5427 28.6666 23.4719 28.9114 23.1176C29.2786 22.5507 29.5234 21.2752 30.2578 21.1335C31.237 20.9209 31.7266 22.5507 32.0938 23.3302C32.2774 23.7553 32.8282 23.6845 33.0118 23.3302C33.1954 22.9759 33.6849 22.1255 34.0522 22.1964C34.4193 22.2673 34.6642 22.905 34.8478 23.2593C35.2761 24.3222 35.521 25.6686 35.6434 26.7315C35.7046 27.0858 36.0106 27.5109 36.3778 27.3692C36.8062 27.1566 37.1734 26.944 37.6018 26.7315C37.8465 26.5897 38.2138 26.3063 38.4586 26.3772C38.887 26.5189 39.0094 27.3692 39.0094 27.7944C39.0094 28.503 38.887 29.2116 38.887 29.991C38.9482 30.8414 40.0498 30.8414 39.9886 29.991C39.9274 29.0698 40.1721 28.1487 40.0497 27.2275C39.9273 26.5189 39.5602 25.6686 39.0094 25.3143C37.969 24.6765 36.9286 25.7394 36.0718 26.1646C36.3166 26.3772 36.5613 26.5897 36.8061 26.8023C36.6838 25.2434 36.3166 23.4719 35.5821 22.1255C35.215 21.4878 34.7253 20.9209 34.0522 20.9918C33.1954 20.9918 32.5834 21.9838 32.155 22.7633C32.461 22.7633 32.767 22.7633 33.073 22.7633C32.461 21.4169 31.849 19.858 30.319 19.9289C29.0338 19.9997 28.7278 21.4878 28.0546 22.5507C28.3606 22.4798 28.6054 22.4798 28.9114 22.409C28.1158 21.4169 27.6262 19.7163 26.2186 19.6454C24.811 19.5746 24.1378 21.2044 23.2198 22.1255C23.4646 22.1255 23.7094 22.1255 23.9541 22.1255C23.3421 21.5587 22.6689 20.4957 21.8121 20.2832C20.833 19.9997 20.1598 21.2043 19.7926 22.0547C20.0374 21.9838 20.221 21.913 20.4658 21.8421C19.4866 21.0626 18.2626 20.354 17.2834 21.4169C16.7938 21.913 16.6102 22.5507 16.6714 23.2593C16.6714 23.6845 16.9774 24.5348 16.6714 24.8891C16.3654 25.1725 15.5698 25.1017 15.2026 25.1725C14.6518 25.2434 14.101 25.456 13.7338 25.8811C12.6934 27.0149 12.9994 28.7155 13.1218 30.2036C13.4278 29.991 13.6726 29.8493 13.9786 29.6367C13.1218 28.8573 11.7141 28.8573 11.1021 30.0619C10.3065 31.4791 11.347 32.7546 11.5306 34.1718C11.653 33.8884 11.7754 33.6049 11.8978 33.3923C10.7962 33.6049 9.87815 34.3844 9.81695 35.7307C9.75575 36.9354 10.3065 38.14 10.7961 39.2029C10.8573 38.9194 10.9186 38.636 10.9798 38.3526C9.14375 39.3446 10.123 42.1082 11.1634 43.3836C11.2858 43.0293 11.4082 42.675 11.5306 42.3207C9.75576 42.2499 9.44975 44.8008 10.0618 46.2889C10.3066 46.0055 10.5513 45.722 10.7961 45.4386C10.0005 44.9426 9.14375 44.8717 8.40935 45.5803C7.79735 46.2181 7.49135 47.2101 7.30775 48.1313C7.61375 48.0604 7.91975 47.9187 8.22575 47.8478C7.55255 46.9267 6.51215 45.6512 5.34935 46.0055C4.73735 46.1472 4.24775 46.7141 4.06415 47.4227C3.94175 47.9187 4.18655 48.9108 3.75815 49.1942C3.39095 49.4776 2.90135 49.2651 2.53415 49.4068C1.98335 49.4776 1.61615 49.9028 1.37135 50.3988C0.759353 51.7452 1.24895 53.375 1.79975 54.6504C1.79975 54.367 1.86095 54.1544 1.86095 53.871C0.0861547 55.7842 0.636949 59.6815 3.14615 60.3193C3.08495 59.965 3.08495 59.6107 3.02375 59.1855C2.10575 59.7524 1.67735 60.957 1.98335 62.0908C2.28935 63.2245 3.26855 63.9331 4.30895 63.7914C4.24775 63.4371 4.12535 63.0828 4.06415 62.7285C3.08495 63.2954 1.73855 64.3583 2.16695 65.8464C2.59535 67.4762 4.12535 67.2636 5.28815 67.547C5.77775 67.6888 5.96135 67.051 5.53295 66.9093Z" fill="white"/>
<path d="M34.2968 21.2043C33.6236 20.354 33.2564 16.315 34.97 17.5905C35.3372 17.803 35.7656 17.4488 35.6432 16.9527C35.4596 16.2441 35.276 15.3938 35.7044 14.7561C36.194 14.1183 36.9896 14.3309 37.5404 14.5435C37.7852 14.6143 38.1524 14.4018 38.1524 14.1183C38.2748 13.268 38.0912 12.2051 38.5196 11.4965C38.8256 10.8587 39.254 11.0005 39.8048 10.9296C40.478 10.7879 41.0288 10.5044 41.4572 9.86669C41.7632 9.29981 41.9468 8.66206 42.0692 8.02432C42.2528 7.24485 42.62 6.67797 43.2932 6.39453C43.844 6.18195 44.2112 6.67797 44.6396 6.96141C45.1292 7.31571 45.8636 7.59916 46.4144 7.38658C46.9652 7.174 47.21 6.46539 47.5772 5.96937C48.0056 5.40249 48.6176 4.97732 49.2908 5.04818C50.0864 5.18991 50.4536 5.96937 50.6372 6.81969C50.7596 7.31572 51.2492 7.38658 51.5552 7.10314C52.2284 6.53625 52.6568 5.18991 53.4524 4.97733C54.4316 4.69388 55.166 6.53625 55.5332 7.31571C55.7168 7.74088 56.1452 7.67002 56.39 7.45744C57.002 6.89056 58.1036 5.75679 58.5932 7.174C58.8992 8.09518 58.6544 9.08723 59.0828 9.93755C59.2664 10.3627 59.8172 10.3627 60.0008 9.93755C60.368 9.22895 61.592 8.09518 62.0204 9.37067C62.2652 10.0793 61.8368 11.0713 61.8368 11.7799C61.8368 12.3468 62.5712 12.6302 62.816 12.0634C63.122 11.3548 63.5504 11.0005 64.04 11.7799C64.652 12.772 63.9788 13.8349 63.5504 14.6852C63.3056 15.2521 63.7952 15.7481 64.2848 15.5355C65.0192 15.1812 65.6924 15.6772 65.9984 16.4567C66.3044 17.307 66.182 18.1574 65.6312 18.7951C65.3864 19.0785 65.4476 19.5746 65.7536 19.7163C66.4268 20.1414 65.9984 20.9209 65.9372 21.6295C65.8148 22.409 66.8552 22.6924 66.9776 21.9838C67.1612 20.7083 67.4672 19.5037 66.3656 18.7242C66.4268 19.0077 66.4268 19.362 66.488 19.6454C68.5076 17.7322 66.5492 13.1971 63.9788 14.4018C64.1624 14.6852 64.346 14.9686 64.5908 15.3229C65.264 13.8349 65.9372 12.1342 64.7132 10.717C63.7952 9.72497 62.51 10.1501 62.0204 11.4256C62.3264 11.4965 62.6936 11.6382 62.9996 11.7091C62.9996 10.3627 63.6116 8.9455 62.4488 7.95346C61.286 6.89055 59.8784 7.95346 59.144 9.15809C59.45 9.15809 59.756 9.15809 60.062 9.15809C59.8172 8.52034 59.8172 7.81174 59.756 7.174C59.6336 6.46539 59.3888 5.89851 58.8992 5.47335C57.7364 4.4813 56.5736 5.47335 55.6556 6.39453C55.9616 6.46539 56.2676 6.46539 56.5124 6.53625C55.9616 5.26076 54.9824 3.4184 53.5748 3.48926C52.2284 3.56012 51.7388 5.18991 50.7596 6.04023C51.0656 6.11109 51.3716 6.25281 51.6776 6.32367C51.2492 4.62302 50.0864 3.27667 48.4952 3.70184C47.7608 3.84356 47.0876 4.41044 46.598 5.04818C46.4144 5.33163 46.292 5.68593 46.0472 5.89851C45.986 5.96937 46.1084 5.96937 45.9248 5.89851C45.7412 5.89851 45.4964 5.82765 45.3128 5.68593C44.7008 5.33163 44.2724 4.8356 43.5992 4.76474C42.8036 4.69388 42.008 5.26076 41.5184 5.89851C41.0288 6.53625 40.9064 7.31572 40.6616 8.09518C40.478 8.87465 40.172 9.37067 39.3764 9.51239C38.5808 9.65411 38.03 9.65411 37.5404 10.4336C36.9284 11.4965 37.112 12.6302 36.9896 13.764C37.2344 13.5514 37.418 13.4097 37.6628 13.1971C36.6836 12.772 35.5208 12.772 34.7864 13.764C34.1132 14.7561 34.1744 16.1024 34.6028 17.1653C34.8476 16.8819 35.0312 16.6693 35.276 16.3858C34.7252 16.1024 34.1132 15.8898 33.5624 16.2441C33.0728 16.5276 32.828 17.1653 32.7668 17.7322C32.5832 19.0077 32.828 20.6375 33.6848 21.4878C34.1744 21.9838 34.5416 21.5587 34.2968 21.2043Z" fill="white"/>
<path d="M119.243 26.2354C119.793 25.3143 121.079 22.3381 119.12 22.409C119.243 22.5507 119.426 22.7633 119.549 22.905C119.549 21.7004 119.61 20.2123 118.998 19.1494C118.325 17.9448 117.101 18.0156 115.999 18.3699C116.183 18.4408 116.366 18.5117 116.55 18.6534C116.244 17.8739 116.305 16.9527 115.877 16.2441C115.326 15.3938 114.347 15.6772 113.612 15.9607C113.857 16.1733 114.041 16.3858 114.285 16.5276C114.408 15.3229 114.102 14.1183 113.123 13.5514C112.205 13.0554 111.042 13.4097 110.185 13.9766C110.43 14.1183 110.675 14.3309 110.981 14.4726C110.981 13.268 110.981 11.6382 109.94 10.9296C109.634 10.717 109.328 10.717 109.022 10.717C108.777 10.717 108.41 10.9296 108.165 10.7879C108.043 10.717 107.798 10.1501 107.676 9.93756C107.309 9.1581 106.941 8.16605 106.207 7.67002C105.35 7.03228 104.555 7.67003 104.004 8.52035C104.249 8.44949 104.555 8.44949 104.799 8.37863C104.616 8.16605 104.493 7.67003 104.432 7.38659C104.249 6.96143 104.126 6.4654 103.881 6.04024C103.331 5.11905 102.535 4.97733 101.801 5.68594C102.107 5.82766 102.413 5.96938 102.719 6.1111C102.78 4.69389 102.474 3.20582 101.25 2.56808C100.087 1.93034 98.8017 2.49722 97.8225 3.27668C98.0061 3.27668 98.2509 3.34754 98.4345 3.34754C97.7001 2.21378 96.7209 0.65485 95.3133 0.867431C93.9057 1.00915 93.7833 2.49722 93.4161 3.7727C93.7221 3.70184 94.0281 3.70185 94.3953 3.63099C93.7221 2.56808 92.7429 1.50518 91.5801 1.36346C90.3561 1.22174 89.8665 2.28464 89.1321 3.0641C88.7649 3.48926 88.3977 3.20582 87.9081 3.0641C87.3573 2.85152 86.8065 2.92238 86.3169 3.34754C85.2765 4.19787 85.2153 5.7568 85.5213 7.03229C85.7049 6.74884 85.8885 6.53626 86.0109 6.25282C84.9705 6.32368 83.9301 5.61508 83.1345 6.67798C82.4001 7.67003 83.0121 9.01637 82.7061 10.1501C82.9509 10.0084 83.1345 9.8667 83.3793 9.72498C82.5225 9.44153 81.4821 9.22895 80.6865 9.65412C79.6461 10.1501 79.5237 11.2839 79.8909 12.4177C80.1969 12.276 80.5029 12.1342 80.8701 11.9216C80.1969 10.717 78.8505 10.2919 77.6877 10.1501C77.5041 10.1501 77.3205 10.2919 77.2593 10.4336C76.8309 11.213 76.7697 12.0634 76.5249 12.9137C76.7085 12.772 76.9533 12.6303 77.1369 12.4885C76.9533 12.4177 76.7085 11.9216 76.5249 11.7091C76.2801 11.3548 76.0965 10.9296 75.7905 10.5753C75.2397 9.93756 74.5053 9.79584 74.0769 10.6462C74.3829 10.8587 74.6889 11.0713 74.9337 11.213C76.0353 9.01637 74.0769 6.4654 72.0573 7.174C72.2409 7.31572 72.4857 7.45744 72.6693 7.59917C72.3021 6.53626 71.9349 5.40249 71.2617 4.48131C70.4661 3.4184 69.4257 3.48927 68.7525 4.69389C69.0585 4.76475 69.3645 4.76475 69.6705 4.83561C69.3645 3.70184 68.9973 2.14292 67.8345 1.85948C66.7941 1.57604 65.6313 2.3555 64.7133 2.63894C64.9581 2.78066 65.1417 2.92238 65.3865 3.0641C64.9581 1.64689 64.1013 0.22969 62.6937 0.0171085C62.2041 -0.0537519 61.7145 0.0879656 61.3473 0.583988C61.1637 0.86743 60.9801 1.36346 60.6129 1.36346C60.3069 1.36346 59.9397 1.00915 59.6949 0.867431C59.3277 0.65485 58.9605 0.371407 58.5321 0.229686C57.3081 -0.0537551 56.8797 1.22174 56.7573 2.42636C57.0021 2.28464 57.3081 2.07206 57.5529 1.93034C56.8185 1.57603 55.9617 1.22173 55.2273 1.50517C54.2481 1.93034 54.2481 3.13496 54.3705 4.12701C54.4317 4.76475 55.4109 4.62303 55.3497 3.98529C55.2885 3.56013 55.1661 2.78066 55.6557 2.63894C56.0841 2.49722 56.6349 2.78066 57.0633 2.99324C57.4305 3.20582 57.7977 2.92238 57.8589 2.49722C57.8589 2.28464 57.9201 1.57604 58.1649 1.50517C58.3485 1.43431 58.7769 1.71776 58.9605 1.78862C59.5113 2.14292 60.1233 2.63894 60.7353 2.63894C61.1025 2.63894 61.4697 2.42636 61.7145 2.07206C61.8981 1.85948 62.0205 1.43431 62.2653 1.29259C62.6325 1.08001 63.2445 1.50518 63.5505 1.78862C63.9789 2.21378 64.2237 2.85152 64.4073 3.4184C64.5297 3.70184 64.7745 3.91443 65.0805 3.84357C65.5701 3.70185 66.1209 3.48927 66.6105 3.27668C66.9165 3.13496 67.2837 2.99324 67.5897 2.99324C68.3241 3.0641 68.6301 4.48131 68.7525 5.11905C68.8749 5.61508 69.4257 5.68594 69.6705 5.26078C69.7929 5.0482 69.9153 4.76475 70.1601 4.90647C70.4661 5.0482 70.6497 5.47336 70.8333 5.7568C71.2005 6.39454 71.4453 7.10314 71.6901 7.88261C71.8125 8.16605 72.0573 8.37863 72.3021 8.30777C73.4649 7.95347 74.7501 9.29982 74.0157 10.6462C73.6485 11.2839 74.5665 11.9216 74.8725 11.213C75.0561 10.9296 74.8113 11.2839 74.7501 11.1422C74.7501 11.1422 74.8725 11.2839 74.9337 11.3548C75.1785 11.6382 75.3009 11.9216 75.4845 12.2051C75.7905 12.7011 76.1577 13.4097 76.7085 13.5514C77.0145 13.6223 77.2593 13.4097 77.3205 13.1263C77.5653 12.4177 77.6265 11.6382 77.9937 11.0005C77.8713 11.0713 77.6877 11.213 77.5653 11.2839C78.3609 11.3548 79.4013 11.6382 79.8909 12.4177C80.1969 12.9846 81.0537 12.6302 80.8701 11.9216C80.6253 11.213 80.6253 10.717 81.2985 10.5044C81.9105 10.3627 82.5225 10.5044 83.0733 10.717C83.3793 10.8587 83.6241 10.5753 83.7465 10.2919C83.8689 9.8667 83.8689 9.44154 83.8689 8.94551C83.8689 8.52035 83.7465 7.88261 83.8689 7.52831C84.1137 6.74884 85.4601 7.38658 86.0109 7.31572C86.3781 7.31572 86.6229 6.96142 86.5005 6.53626C86.3169 5.7568 86.2557 3.84357 87.4185 4.05615C87.8469 4.12701 88.1529 4.33959 88.5813 4.41045C88.9485 4.41045 89.3157 4.26873 89.6217 3.98529C90.1725 3.48927 90.5397 2.42636 91.2741 2.42636C92.1921 2.3555 93.0489 3.48927 93.5385 4.19787C93.7833 4.55217 94.3341 4.33959 94.3953 3.91443C94.5789 3.13496 94.5789 1.71776 95.6193 1.85948C96.5373 2.0012 97.2105 3.27668 97.7613 4.05615C97.8837 4.26873 98.1897 4.26873 98.3733 4.12701C99.0465 3.56012 99.9033 3.0641 100.76 3.4184C101.617 3.84356 101.739 4.97733 101.678 5.89852C101.678 6.4654 102.229 6.60712 102.596 6.32368C103.025 5.89852 103.269 6.8197 103.392 7.24486C103.637 7.81175 103.759 8.52035 104.187 9.01637C104.432 9.29981 104.799 9.1581 104.983 8.87465C105.411 8.23691 105.717 8.23691 106.085 8.87465C106.513 9.5124 106.758 10.221 107.125 10.8587C107.553 11.6382 108.043 11.8508 108.9 11.7091C109.512 11.5673 109.757 11.9216 109.879 12.6302C110.001 13.1263 109.94 13.6932 109.94 14.26C109.94 14.6852 110.369 14.9686 110.736 14.7561C111.287 14.4018 112.021 14.0475 112.633 14.3309C113.306 14.6852 113.306 15.5355 113.245 16.2441C113.245 16.5984 113.612 16.9527 113.918 16.811C114.347 16.5984 114.959 16.2441 115.203 16.8819C115.387 17.5196 115.509 18.2282 115.754 18.866C115.815 19.0785 116.121 19.1494 116.305 19.1494C116.978 18.9368 117.957 18.7242 118.325 19.6454C118.631 20.5666 118.569 21.6295 118.692 22.6216C118.692 22.905 118.875 23.1884 119.12 23.1176C119.365 23.1176 119.365 23.0467 119.365 23.2593C119.426 23.4719 119.304 23.8262 119.243 24.0388C119.12 24.5348 118.875 25.0308 118.631 25.456C118.386 26.3063 118.998 26.6606 119.243 26.2354Z" fill="white"/>
</svg>
