<?xml version="1.0" encoding="UTF-8"?>
<svg id="Layer_2" data-name="Layer 2" xmlns="http://www.w3.org/2000/svg" viewBox="0 0 104.16 96">
  <defs>
    <style>
      .cls-1 {
        fill: #1b2615;
        stroke: #bcb2d6;
        stroke-miterlimit: 10;
        stroke-width: 3px;
      }
    </style>
  </defs>
  <g id="Layer_1-2" data-name="Layer 1">
    <g>
      <path class="cls-1" d="m62.52,86.06h.1v8.44h-13.2v-8.44h.9c-12.02-1.44-22.41-6.51-23.27-6.73l13.04-13.25-8.14-2.73,10.95-13.37-6.07-2.56s3.07-4.7,9.24-14.12c-1.32-.79-2.4-1.44-3.16-1.91-.76-.45-1.18-.71-1.18-.71,0,0,7.2-18.17,14.63-27.92t.03-.04c4.83,9.2,8.48,16.2,10.95,20.88,2.47,4.68,3.72,7.08,3.72,7.08,0,0-.13.1-3.93,2.85,2.91,4.58,5.11,8.06,6.59,10.38,1.48,2.34,2.24,3.52,2.24,3.52l-6.54,4.8,11.43,11.13-7.43,3.8,12.33,12.17s-10.87,5.27-23.23,6.73Z"/>
      <path class="cls-1" d="m74.47,87.37h.08v7.12h-10.77v-7.12h.74c-9.8-1.22-18.28-5.49-18.98-5.68l10.63-11.18-6.64-2.3,8.93-11.28-4.95-2.16s2.51-3.97,7.54-11.91c-1.07-.67-1.96-1.22-2.57-1.61-.62-.38-.97-.6-.97-.6,0,0,5.87-15.33,11.94-23.55t.03-.03c3.94,7.76,6.92,13.67,8.93,17.61,2.01,3.95,3.03,5.97,3.03,5.97,0,0-.11.09-3.21,2.4,2.37,3.86,4.17,6.8,5.38,8.76,1.21,1.97,1.82,2.97,1.82,2.97l-5.34,4.05,9.32,9.39-6.06,3.21,10.06,10.27s-8.86,4.45-18.95,5.68Z"/>
      <path class="cls-1" d="m84.24,88.06h.07v6.44h-9.35v-6.44h.64c-8.51-1.1-15.86-4.96-16.47-5.13l9.23-10.1-5.76-2.08,7.75-10.19-4.29-1.95s2.18-3.58,6.54-10.77c-.93-.6-1.7-1.1-2.23-1.46-.54-.34-.84-.54-.84-.54,0,0,5.1-13.85,10.36-21.28t.02-.03c3.42,7.01,6.01,12.35,7.75,15.92,1.75,3.57,2.63,5.4,2.63,5.4,0,0-.09.08-2.78,2.17,2.06,3.49,3.62,6.14,4.67,7.91,1.05,1.78,1.58,2.68,1.58,2.68l-4.63,3.66,8.09,8.48-5.26,2.9,8.73,9.28s-7.69,4.02-16.44,5.13Z"/>
      <path class="cls-1" d="m63.19,88.57h.07v5.93h-8.76v-5.93h.6c-7.97-1.01-14.86-4.57-15.43-4.73l8.65-9.3-5.4-1.91,7.26-9.39-4.02-1.8s2.04-3.3,6.13-9.92c-.87-.56-1.59-1.01-2.09-1.34-.5-.31-.79-.5-.79-.5,0,0,4.78-12.76,9.71-19.61t.02-.03c3.21,6.46,5.63,11.38,7.26,14.66,1.64,3.29,2.46,4.97,2.46,4.97,0,0-.09.07-2.61,2,1.93,3.22,3.39,5.66,4.37,7.29.98,1.64,1.48,2.47,1.48,2.47l-4.34,3.37,7.58,7.82-4.93,2.67,8.18,8.55s-7.21,3.7-15.41,4.73Z"/>
      <path class="cls-1" d="m27.76,87.71h.07v6.79h-9.35v-6.79h.64c-8.51-1.16-15.86-5.23-16.47-5.41l9.23-10.65-5.76-2.19,7.75-10.75-4.29-2.06s2.18-3.78,6.54-11.35c-.93-.64-1.7-1.16-2.23-1.54-.54-.36-.84-.57-.84-.57,0,0,5.1-14.6,10.36-22.44t.02-.03c3.42,7.39,6.01,13.02,7.75,16.78,1.75,3.76,2.63,5.69,2.63,5.69,0,0-.09.08-2.78,2.29,2.06,3.68,3.62,6.48,4.67,8.34,1.05,1.88,1.58,2.83,1.58,2.83l-4.63,3.86,8.09,8.95-5.26,3.06,8.73,9.78s-7.69,4.24-16.44,5.41Z"/>
      <path class="cls-1" d="m43.06,86.49h.07v8.01h-9.35v-8.01h.64c-8.51-1.37-15.86-6.17-16.47-6.39l9.23-12.56-5.76-2.58,7.75-12.67-4.29-2.43s2.18-4.46,6.54-13.39c-.93-.75-1.7-1.37-2.23-1.81-.54-.42-.84-.68-.84-.68,0,0,5.1-17.23,10.36-26.47t.02-.04c3.42,8.72,6.01,15.36,7.75,19.79,1.75,4.44,2.63,6.71,2.63,6.71,0,0-.09.1-2.78,2.7,2.06,4.34,3.62,7.64,4.67,9.84,1.05,2.22,1.58,3.34,1.58,3.34l-4.63,4.55,8.09,10.55-5.26,3.61,8.73,11.54s-7.69,5-16.44,6.39Z"/>
      <path class="cls-1" d="m39.26,90.56h.05v3.94h-6.96v-3.94h.48c-6.34-.67-11.82-3.04-12.27-3.14l6.88-6.18-4.29-1.27,5.78-6.24-3.2-1.2s1.62-2.19,4.87-6.59c-.69-.37-1.27-.67-1.67-.89-.4-.21-.62-.33-.62-.33,0,0,3.8-8.48,7.72-13.03t.02-.02c2.55,4.29,4.48,7.56,5.78,9.74,1.3,2.18,1.96,3.3,1.96,3.3,0,0-.07.05-2.07,1.33,1.54,2.14,2.7,3.76,3.48,4.84.78,1.09,1.18,1.64,1.18,1.64l-3.45,2.24,6.03,5.19-3.92,1.78,6.5,5.68s-5.73,2.46-12.25,3.14Z"/>
      <path class="cls-1" d="m55.3,89.11h.06v5.39h-8.18v-5.39h.56c-7.45-.92-13.88-4.16-14.41-4.3l8.08-8.46-5.04-1.74,6.78-8.54-3.76-1.64s1.9-3,5.72-9.02c-.81-.51-1.49-.92-1.96-1.22-.47-.29-.73-.45-.73-.45,0,0,4.46-11.6,9.07-17.83t.02-.03c2.99,5.87,5.26,10.34,6.78,13.33,1.53,2.99,2.3,4.52,2.3,4.52,0,0-.08.06-2.43,1.82,1.8,2.92,3.17,5.15,4.08,6.63.92,1.49,1.39,2.25,1.39,2.25l-4.05,3.07,7.08,7.11-4.6,2.43,7.64,7.77s-6.73,3.37-14.39,4.3Z"/>
    </g>
  </g>
</svg>